%TF.GenerationSoftware,KiCad,Pcbnew,9.0.4*%
%TF.CreationDate,2025-09-26T16:51:33-04:00*%
%TF.ProjectId,emberone,656d6265-726f-46e6-952e-6b696361645f,rev?*%
%TF.SameCoordinates,Original*%
%TF.FileFunction,Copper,L4,Inr*%
%TF.FilePolarity,Positive*%
%FSLAX46Y46*%
G04 Gerber Fmt 4.6, Leading zero omitted, Abs format (unit mm)*
G04 Created by KiCad (PCBNEW 9.0.4) date 2025-09-26 16:51:33*
%MOMM*%
%LPD*%
G01*
G04 APERTURE LIST*
%TA.AperFunction,ComponentPad*%
%ADD10C,0.540000*%
%TD*%
%TA.AperFunction,HeatsinkPad*%
%ADD11C,0.540000*%
%TD*%
%TA.AperFunction,ComponentPad*%
%ADD12C,6.400000*%
%TD*%
%TA.AperFunction,ComponentPad*%
%ADD13C,2.850000*%
%TD*%
%TA.AperFunction,ComponentPad*%
%ADD14O,1.000000X2.100000*%
%TD*%
%TA.AperFunction,ComponentPad*%
%ADD15O,1.000000X1.800000*%
%TD*%
%TA.AperFunction,ComponentPad*%
%ADD16C,0.400000*%
%TD*%
%TA.AperFunction,ComponentPad*%
%ADD17R,1.700000X1.700000*%
%TD*%
%TA.AperFunction,ComponentPad*%
%ADD18C,1.700000*%
%TD*%
%TA.AperFunction,ViaPad*%
%ADD19C,0.450000*%
%TD*%
%TA.AperFunction,ViaPad*%
%ADD20C,0.500000*%
%TD*%
%TA.AperFunction,ViaPad*%
%ADD21C,0.800000*%
%TD*%
%TA.AperFunction,ViaPad*%
%ADD22C,1.000000*%
%TD*%
%TA.AperFunction,Conductor*%
%ADD23C,0.254000*%
%TD*%
G04 APERTURE END LIST*
D10*
%TO.N,/stack5/GND1*%
%TO.C,U55*%
X172656257Y-173391142D03*
X172650545Y-171421142D03*
X171550545Y-170401142D03*
X171543401Y-173391142D03*
X171537689Y-171421142D03*
X171520545Y-174431142D03*
X171520545Y-172471142D03*
X170366257Y-173391142D03*
X170360545Y-171421142D03*
X169320545Y-171441142D03*
X169310545Y-170411142D03*
D11*
X169300545Y-174431142D03*
D10*
X169300545Y-172491142D03*
X169299117Y-173391142D03*
X168106257Y-173391142D03*
X168100545Y-171421142D03*
%TD*%
D12*
%TO.N,unconnected-(H6-Pad1)*%
%TO.C,H6*%
X203350545Y-180436142D03*
%TD*%
D10*
%TO.N,/stack6/GND2*%
%TO.C,U65*%
X189674833Y-187301142D03*
X189680545Y-189271142D03*
X190780545Y-190291142D03*
X190787689Y-187301142D03*
X190793401Y-189271142D03*
X190810545Y-186261142D03*
X190810545Y-188221142D03*
X191964833Y-187301142D03*
X191970545Y-189271142D03*
X193010545Y-189251142D03*
X193020545Y-190281142D03*
D11*
X193030545Y-186261142D03*
D10*
X193030545Y-188201142D03*
X193031973Y-187301142D03*
X194224833Y-187301142D03*
X194230545Y-189271142D03*
%TD*%
%TO.N,/stack4/GND2*%
%TO.C,U47*%
X146634833Y-187271142D03*
X146640545Y-189241142D03*
X147740545Y-190261142D03*
X147747689Y-187271142D03*
X147753401Y-189241142D03*
X147770545Y-186231142D03*
X147770545Y-188191142D03*
X148924833Y-187271142D03*
X148930545Y-189241142D03*
X149970545Y-189221142D03*
X149980545Y-190251142D03*
D11*
X149990545Y-186231142D03*
D10*
X149990545Y-188171142D03*
X149991973Y-187271142D03*
X151184833Y-187271142D03*
X151190545Y-189241142D03*
%TD*%
D12*
%TO.N,unconnected-(H8-Pad1)*%
%TO.C,H8*%
X181350545Y-180436142D03*
%TD*%
D10*
%TO.N,GND*%
%TO.C,U74*%
X215716257Y-159801142D03*
X215710545Y-157831142D03*
X214610545Y-156811142D03*
X214603401Y-159801142D03*
X214597689Y-157831142D03*
X214580545Y-160841142D03*
X214580545Y-158881142D03*
X213426257Y-159801142D03*
X213420545Y-157831142D03*
X212380545Y-157851142D03*
X212370545Y-156821142D03*
D11*
X212360545Y-160841142D03*
D10*
X212360545Y-158901142D03*
X212359117Y-159801142D03*
X211166257Y-159801142D03*
X211160545Y-157831142D03*
%TD*%
%TO.N,/stack5/GND0*%
%TO.C,U54*%
X172656257Y-187061142D03*
X172650545Y-185091142D03*
X171550545Y-184071142D03*
X171543401Y-187061142D03*
X171537689Y-185091142D03*
X171520545Y-188101142D03*
X171520545Y-186141142D03*
X170366257Y-187061142D03*
X170360545Y-185091142D03*
X169320545Y-185111142D03*
X169310545Y-184081142D03*
D11*
X169300545Y-188101142D03*
D10*
X169300545Y-186161142D03*
X169299117Y-187061142D03*
X168106257Y-187061142D03*
X168100545Y-185091142D03*
%TD*%
%TO.N,/stack4/GND1*%
%TO.C,U46*%
X146634833Y-173591142D03*
X146640545Y-175561142D03*
X147740545Y-176581142D03*
X147747689Y-173591142D03*
X147753401Y-175561142D03*
X147770545Y-172551142D03*
X147770545Y-174511142D03*
X148924833Y-173591142D03*
X148930545Y-175561142D03*
X149970545Y-175541142D03*
X149980545Y-176571142D03*
D11*
X149990545Y-172551142D03*
D10*
X149990545Y-174491142D03*
X149991973Y-173591142D03*
X151184833Y-173591142D03*
X151190545Y-175561142D03*
%TD*%
%TO.N,/stack4/GND0*%
%TO.C,U45*%
X146634833Y-159901142D03*
X146640545Y-161871142D03*
X147740545Y-162891142D03*
X147747689Y-159901142D03*
X147753401Y-161871142D03*
X147770545Y-158861142D03*
X147770545Y-160821142D03*
X148924833Y-159901142D03*
X148930545Y-161871142D03*
X149970545Y-161851142D03*
X149980545Y-162881142D03*
D11*
X149990545Y-158861142D03*
D10*
X149990545Y-160801142D03*
X149991973Y-159901142D03*
X151184833Y-159901142D03*
X151190545Y-161871142D03*
%TD*%
D13*
%TO.N,/Power/VIN*%
%TO.C,J1*%
X170200000Y-83500000D03*
X162700000Y-83500000D03*
X170200000Y-88500000D03*
X162700000Y-88500000D03*
%TD*%
D12*
%TO.N,unconnected-(H5-Pad1)*%
%TO.C,H5*%
X203350545Y-166436142D03*
%TD*%
D10*
%TO.N,/stack7/GND0*%
%TO.C,U72*%
X215716257Y-187171142D03*
X215710545Y-185201142D03*
X214610545Y-184181142D03*
X214603401Y-187171142D03*
X214597689Y-185201142D03*
X214580545Y-188211142D03*
X214580545Y-186251142D03*
X213426257Y-187171142D03*
X213420545Y-185201142D03*
X212380545Y-185221142D03*
X212370545Y-184191142D03*
D11*
X212360545Y-188211142D03*
D10*
X212360545Y-186271142D03*
X212359117Y-187171142D03*
X211166257Y-187171142D03*
X211160545Y-185201142D03*
%TD*%
%TO.N,/stack6/GND0*%
%TO.C,U63*%
X189674833Y-159931142D03*
X189680545Y-161901142D03*
X190780545Y-162921142D03*
X190787689Y-159931142D03*
X190793401Y-161901142D03*
X190810545Y-158891142D03*
X190810545Y-160851142D03*
X191964833Y-159931142D03*
X191970545Y-161901142D03*
X193010545Y-161881142D03*
X193020545Y-162911142D03*
D11*
X193030545Y-158891142D03*
D10*
X193030545Y-160831142D03*
X193031973Y-159931142D03*
X194224833Y-159931142D03*
X194230545Y-161901142D03*
%TD*%
%TO.N,/stack6/GND1*%
%TO.C,U64*%
X189674833Y-173611142D03*
X189680545Y-175581142D03*
X190780545Y-176601142D03*
X190787689Y-173611142D03*
X190793401Y-175581142D03*
X190810545Y-172571142D03*
X190810545Y-174531142D03*
X191964833Y-173611142D03*
X191970545Y-175581142D03*
X193010545Y-175561142D03*
X193020545Y-176591142D03*
D11*
X193030545Y-172571142D03*
D10*
X193030545Y-174511142D03*
X193031973Y-173611142D03*
X194224833Y-173611142D03*
X194230545Y-175581142D03*
%TD*%
D14*
%TO.N,GND*%
%TO.C,J6*%
X226268700Y-85495000D03*
D15*
X226268700Y-81315000D03*
D14*
X217628700Y-85495000D03*
D15*
X217628700Y-81315000D03*
%TD*%
D10*
%TO.N,/stack7/GND1*%
%TO.C,U73*%
X215716257Y-173481142D03*
X215710545Y-171511142D03*
X214610545Y-170491142D03*
X214603401Y-173481142D03*
X214597689Y-171511142D03*
X214580545Y-174521142D03*
X214580545Y-172561142D03*
X213426257Y-173481142D03*
X213420545Y-171511142D03*
X212380545Y-171531142D03*
X212370545Y-170501142D03*
D11*
X212360545Y-174521142D03*
D10*
X212360545Y-172581142D03*
X212359117Y-173481142D03*
X211166257Y-173481142D03*
X211160545Y-171511142D03*
%TD*%
%TO.N,/stack5/GND2*%
%TO.C,U56*%
X172676257Y-159711142D03*
X172670545Y-157741142D03*
X171570545Y-156721142D03*
X171563401Y-159711142D03*
X171557689Y-157741142D03*
X171540545Y-160751142D03*
X171540545Y-158791142D03*
X170386257Y-159711142D03*
X170380545Y-157741142D03*
X169340545Y-157761142D03*
X169330545Y-156731142D03*
D11*
X169320545Y-160751142D03*
D10*
X169320545Y-158811142D03*
X169319117Y-159711142D03*
X168126257Y-159711142D03*
X168120545Y-157741142D03*
%TD*%
D16*
%TO.N,GND*%
%TO.C,U2*%
X169660000Y-120730000D03*
X171060000Y-120730000D03*
X172460000Y-120730000D03*
X168660000Y-119450000D03*
X169660000Y-119450000D03*
X171060000Y-119450000D03*
X172460000Y-119450000D03*
X173460000Y-119450000D03*
X169660000Y-118170000D03*
X171060000Y-118170000D03*
X172460000Y-118170000D03*
%TD*%
D12*
%TO.N,unconnected-(H10-Pad1)*%
%TO.C,H10*%
X159350545Y-180436142D03*
%TD*%
%TO.N,unconnected-(H7-Pad1)*%
%TO.C,H7*%
X181350545Y-166436142D03*
%TD*%
D13*
%TO.N,GND*%
%TO.C,J2*%
X190766378Y-83500000D03*
X183266378Y-83500000D03*
X190766378Y-88500000D03*
X183266378Y-88500000D03*
%TD*%
D17*
%TO.N,GND*%
%TO.C,J20*%
X146090000Y-88180000D03*
D18*
%TO.N,/Data/VIN_REV*%
X143550000Y-88180000D03*
%TO.N,Net-(J20-Pin_3)*%
X141010000Y-88180000D03*
%TO.N,Net-(J20-Pin_4)*%
X138470000Y-88180000D03*
%TO.N,Net-(J20-Pin_5)*%
X135930000Y-88180000D03*
%TO.N,Net-(J20-Pin_6)*%
X133390000Y-88180000D03*
%TO.N,GND*%
X130850000Y-88180000D03*
%TO.N,/3V3*%
X128310000Y-88180000D03*
%TD*%
D12*
%TO.N,unconnected-(H9-Pad1)*%
%TO.C,H9*%
X159350545Y-166436142D03*
%TD*%
D19*
%TO.N,GND*%
X179800000Y-118210000D03*
X178510000Y-118200000D03*
X177910000Y-120110000D03*
X177910000Y-118870000D03*
X178510000Y-120730000D03*
X178510000Y-119490000D03*
X179200000Y-120120000D03*
X179800000Y-119500000D03*
X179200000Y-118880000D03*
X179800000Y-120740000D03*
X177150000Y-118220000D03*
X176550000Y-120130000D03*
X176550000Y-118890000D03*
X177150000Y-120750000D03*
X177150000Y-119510000D03*
X216580000Y-152120000D03*
X215960000Y-151520000D03*
X217210000Y-152750000D03*
X209650000Y-151520000D03*
X211570000Y-152120000D03*
X217200000Y-151520000D03*
X210270000Y-152120000D03*
X214790000Y-153980000D03*
X214160000Y-153350000D03*
X215400000Y-153350000D03*
X212260000Y-153980000D03*
X212870000Y-153350000D03*
X211020000Y-153980000D03*
X209720000Y-153980000D03*
X217270000Y-153980000D03*
X216640000Y-153350000D03*
X216030000Y-153980000D03*
X211630000Y-153350000D03*
X210330000Y-153350000D03*
X213550000Y-153980000D03*
X214730000Y-152750000D03*
X212190000Y-151520000D03*
X214100000Y-152120000D03*
X215340000Y-152120000D03*
X213490000Y-152750000D03*
X213480000Y-151520000D03*
X212200000Y-152750000D03*
X212810000Y-152120000D03*
X210950000Y-151520000D03*
X210960000Y-152750000D03*
X214720000Y-151520000D03*
X209660000Y-152750000D03*
X215970000Y-152750000D03*
%TO.N,/VDD*%
X150000000Y-153810000D03*
X149370000Y-153180000D03*
X150610000Y-153180000D03*
X147470000Y-153810000D03*
X148080000Y-153180000D03*
X146230000Y-153810000D03*
X144930000Y-153810000D03*
X152480000Y-153810000D03*
X151850000Y-153180000D03*
X151240000Y-153810000D03*
X146840000Y-153180000D03*
X145540000Y-153180000D03*
X148760000Y-153810000D03*
X149940000Y-152580000D03*
X147400000Y-151350000D03*
X149310000Y-151950000D03*
X150550000Y-151950000D03*
X148690000Y-151350000D03*
X147410000Y-152580000D03*
X148020000Y-151950000D03*
X146160000Y-151350000D03*
X146170000Y-152580000D03*
X149930000Y-151350000D03*
X144870000Y-152580000D03*
X152420000Y-152580000D03*
X151790000Y-151950000D03*
X152410000Y-151350000D03*
X151180000Y-152580000D03*
X151170000Y-151350000D03*
X146780000Y-151950000D03*
X144860000Y-151350000D03*
X148700000Y-152580000D03*
X145480000Y-151950000D03*
%TO.N,/Data/VIN_REV*%
X170250000Y-104780000D03*
X170870000Y-105420000D03*
X169630000Y-105420000D03*
X171490000Y-104780000D03*
X172160000Y-105420000D03*
X172160000Y-104180000D03*
X173400000Y-104180000D03*
X169630000Y-104180000D03*
X170870000Y-104180000D03*
X173400000Y-105420000D03*
X172780000Y-104780000D03*
%TO.N,GND*%
X176940000Y-104780000D03*
X177560000Y-105420000D03*
X176320000Y-105420000D03*
X178180000Y-104780000D03*
X178850000Y-105420000D03*
X178850000Y-104180000D03*
X180090000Y-104180000D03*
X176320000Y-104180000D03*
X177560000Y-104180000D03*
X180090000Y-105420000D03*
X179470000Y-104780000D03*
%TO.N,/VDD*%
X173970000Y-137560000D03*
X182810000Y-137560000D03*
X175210000Y-137560000D03*
X182180000Y-136930000D03*
X183420000Y-136930000D03*
X180280000Y-137560000D03*
X180890000Y-136930000D03*
X176500000Y-137560000D03*
X174580000Y-136930000D03*
X177110000Y-136930000D03*
X175820000Y-136930000D03*
X173320000Y-136930000D03*
X179040000Y-137560000D03*
X177740000Y-137560000D03*
X185290000Y-137560000D03*
X184660000Y-136930000D03*
X184050000Y-137560000D03*
X172710000Y-137560000D03*
X172080000Y-136930000D03*
X179650000Y-136930000D03*
X181570000Y-137560000D03*
X178350000Y-136930000D03*
X183980000Y-135100000D03*
X173900000Y-135100000D03*
X172650000Y-136330000D03*
X172020000Y-135700000D03*
X179590000Y-135700000D03*
X177670000Y-135100000D03*
X181510000Y-136330000D03*
X178290000Y-135700000D03*
X173910000Y-136330000D03*
X182750000Y-136330000D03*
X175150000Y-136330000D03*
X180210000Y-135100000D03*
X182120000Y-135700000D03*
X183360000Y-135700000D03*
X181500000Y-135100000D03*
X180220000Y-136330000D03*
X175140000Y-135100000D03*
X180830000Y-135700000D03*
X178970000Y-135100000D03*
X176440000Y-136330000D03*
X174520000Y-135700000D03*
X177050000Y-135700000D03*
X172640000Y-135100000D03*
X175760000Y-135700000D03*
X173260000Y-135700000D03*
X178980000Y-136330000D03*
X176430000Y-135100000D03*
X182740000Y-135100000D03*
X177680000Y-136330000D03*
X185230000Y-136330000D03*
X184600000Y-135700000D03*
X185220000Y-135100000D03*
X183990000Y-136330000D03*
X188120000Y-143890000D03*
X187520000Y-124330000D03*
X186880000Y-124950000D03*
X188120000Y-133810000D03*
X188120000Y-131310000D03*
X186880000Y-123710000D03*
X187520000Y-125570000D03*
X186890000Y-132560000D03*
X187520000Y-131930000D03*
X186880000Y-126240000D03*
X188120000Y-126240000D03*
X187520000Y-139500000D03*
X188120000Y-137580000D03*
X186890000Y-141420000D03*
X187520000Y-138200000D03*
X187520000Y-129400000D03*
X186890000Y-133820000D03*
X186890000Y-142660000D03*
X186890000Y-135060000D03*
X188120000Y-140120000D03*
X188120000Y-127480000D03*
X186890000Y-128790000D03*
X187520000Y-142030000D03*
X187520000Y-130640000D03*
X188120000Y-123710000D03*
X188120000Y-124950000D03*
X187520000Y-143270000D03*
X188120000Y-141410000D03*
X186890000Y-140130000D03*
X186880000Y-127480000D03*
X188120000Y-135050000D03*
X186890000Y-131320000D03*
X187520000Y-140740000D03*
X188120000Y-138880000D03*
X186890000Y-136350000D03*
X186890000Y-130030000D03*
X187520000Y-134430000D03*
X187520000Y-136960000D03*
X188120000Y-132550000D03*
X187520000Y-135670000D03*
X187520000Y-133170000D03*
X188120000Y-130020000D03*
X188120000Y-128780000D03*
X186890000Y-138890000D03*
X187520000Y-128100000D03*
X188120000Y-136340000D03*
X187520000Y-126860000D03*
X188120000Y-142650000D03*
X186890000Y-137590000D03*
X186890000Y-145140000D03*
X187520000Y-145800000D03*
X187520000Y-144510000D03*
X188120000Y-145130000D03*
X186890000Y-143900000D03*
%TO.N,/Data/VIN_REV*%
X173570000Y-110420000D03*
X172340000Y-110430000D03*
X172340000Y-112960000D03*
X172970000Y-112330000D03*
X173570000Y-111710000D03*
X172970000Y-111040000D03*
X173570000Y-112950000D03*
X172340000Y-111720000D03*
%TO.N,GND*%
X176340000Y-111030000D03*
X175700000Y-111650000D03*
X175700000Y-110410000D03*
X176340000Y-112270000D03*
X175700000Y-112940000D03*
X176940000Y-112940000D03*
X176340000Y-116100000D03*
X176940000Y-114180000D03*
X175710000Y-115490000D03*
X176940000Y-110410000D03*
X176940000Y-111650000D03*
X175700000Y-114180000D03*
X175710000Y-116730000D03*
X176940000Y-116720000D03*
X176940000Y-115480000D03*
X176340000Y-114800000D03*
X176340000Y-113560000D03*
%TO.N,/Power/VIN*%
X173300000Y-92690000D03*
X166200000Y-93290000D03*
X169970000Y-92050000D03*
X166200000Y-92050000D03*
X171270000Y-92050000D03*
X167440000Y-92050000D03*
X168060000Y-92690000D03*
X167440000Y-93290000D03*
X171890000Y-92690000D03*
X170590000Y-92690000D03*
X166820000Y-92690000D03*
X172510000Y-92050000D03*
X169350000Y-92690000D03*
X171270000Y-93290000D03*
X169970000Y-93290000D03*
X168730000Y-92050000D03*
X168730000Y-93290000D03*
X172510000Y-93290000D03*
%TO.N,GND*%
X178480000Y-92130000D03*
X177840000Y-92750000D03*
X177840000Y-91510000D03*
X178480000Y-93370000D03*
X177840000Y-94040000D03*
X179080000Y-94040000D03*
X179080000Y-91510000D03*
X179080000Y-92750000D03*
%TO.N,/Data/VIN_REV*%
X159420000Y-117850000D03*
X160050000Y-117220000D03*
X160650000Y-112810000D03*
X160050000Y-113430000D03*
X159420000Y-111580000D03*
X160650000Y-119140000D03*
X160650000Y-110280000D03*
X159420000Y-119150000D03*
X159420000Y-110290000D03*
X160660000Y-100480000D03*
X159420000Y-100480000D03*
X160060000Y-99860000D03*
X159420000Y-99240000D03*
X160660000Y-99240000D03*
X159420000Y-112820000D03*
X160050000Y-112190000D03*
X159410000Y-106500000D03*
X160650000Y-106500000D03*
X160050000Y-119760000D03*
X160050000Y-104590000D03*
X160650000Y-111570000D03*
X159410000Y-103970000D03*
X160050000Y-118460000D03*
X160050000Y-110900000D03*
X160650000Y-103970000D03*
X160650000Y-105210000D03*
X160050000Y-105830000D03*
X160650000Y-117840000D03*
X159410000Y-105210000D03*
%TO.N,/stack5/GND2*%
X185900000Y-151440000D03*
X176253334Y-151440000D03*
X171430000Y-151440000D03*
X166606667Y-151440000D03*
X181076667Y-151440000D03*
%TO.N,/Data/VIN_REV*%
X167050000Y-112680000D03*
%TO.N,/stack6/GND2*%
X193056666Y-197930000D03*
X188233333Y-197930000D03*
X202703333Y-197930000D03*
X207526666Y-197930000D03*
X197880000Y-197930000D03*
X212350000Y-197930000D03*
X217173333Y-197930000D03*
%TO.N,/stack4/GND2*%
X168996667Y-197890000D03*
X173820000Y-197890000D03*
X164173333Y-197890000D03*
X154526667Y-197890000D03*
X149703333Y-197890000D03*
X144880000Y-197890000D03*
X159350000Y-197890000D03*
%TO.N,/stack5/GND2*%
X195510000Y-148760000D03*
X190686667Y-148760000D03*
X185863333Y-148760000D03*
X181040000Y-148760000D03*
X176216667Y-148760000D03*
X171393333Y-148760000D03*
X166570000Y-148760000D03*
%TO.N,GND*%
X196680000Y-83810000D03*
X201780000Y-83860000D03*
X201780000Y-90400000D03*
X201780000Y-95990000D03*
X204650000Y-100080000D03*
X210420000Y-105560000D03*
X216770000Y-118576667D03*
X216770000Y-137556667D03*
X216770000Y-112250000D03*
X216770000Y-143883333D03*
X216770000Y-124903333D03*
X216770000Y-131230000D03*
X216750000Y-148440000D03*
X205660000Y-151430000D03*
X202580000Y-148400000D03*
X200290000Y-146410000D03*
X195080000Y-145530000D03*
X155860000Y-93950000D03*
X152670000Y-90600000D03*
X149380000Y-87300000D03*
%TO.N,/VDD*%
X155230000Y-152000000D03*
X158210000Y-148800000D03*
X173440000Y-145840000D03*
X183140000Y-145840000D03*
X163740000Y-145840000D03*
X178290000Y-145840000D03*
X168590000Y-145840000D03*
X145660000Y-146030000D03*
X145660000Y-141365000D03*
X145660000Y-136700000D03*
X145660000Y-132035000D03*
D20*
%TO.N,/stack4/GND0*%
X143780545Y-156046142D03*
D19*
%TO.N,/VDD*%
X146440000Y-128620000D03*
X151290000Y-128620000D03*
X156140000Y-128620000D03*
X160990000Y-128620000D03*
X165840000Y-128620000D03*
X170690000Y-128620000D03*
X175540000Y-128620000D03*
X180390000Y-128620000D03*
X185240000Y-128620000D03*
%TO.N,GND*%
X145890000Y-91080000D03*
X145670000Y-95970000D03*
X145670000Y-99888571D03*
X145670000Y-103807143D03*
X145670000Y-107725714D03*
X145670000Y-111644286D03*
X145670000Y-115562857D03*
X145670000Y-119481429D03*
X149080000Y-119510000D03*
X152000000Y-119510000D03*
%TO.N,/Data/SCL*%
X167510000Y-124098941D03*
%TO.N,/Power/PGOOD*%
X212490000Y-104490000D03*
%TO.N,/VDD*%
X164920000Y-120930000D03*
%TO.N,GND*%
X154630000Y-100490000D03*
X155270000Y-99870000D03*
X154630000Y-99250000D03*
X155870000Y-99250000D03*
X155270000Y-97340000D03*
X155870000Y-100490000D03*
X155870000Y-97960000D03*
X155270000Y-98580000D03*
X154630000Y-97960000D03*
X191710000Y-144360000D03*
X192940000Y-144350000D03*
X191710000Y-143120000D03*
X192940000Y-143110000D03*
X155260000Y-104600000D03*
X154620000Y-105220000D03*
X155860000Y-114080000D03*
X155860000Y-111580000D03*
X154620000Y-103980000D03*
X155260000Y-105840000D03*
X154630000Y-112830000D03*
X155260000Y-112200000D03*
X154620000Y-106510000D03*
X155860000Y-106510000D03*
X155260000Y-119770000D03*
X155860000Y-117850000D03*
X155260000Y-118470000D03*
X155260000Y-109670000D03*
X154630000Y-114090000D03*
X154630000Y-115330000D03*
X155860000Y-107750000D03*
X154630000Y-109060000D03*
X155260000Y-110910000D03*
X155860000Y-103980000D03*
X155860000Y-105220000D03*
X154620000Y-107750000D03*
X155860000Y-115320000D03*
X154630000Y-111590000D03*
X155860000Y-119150000D03*
X154630000Y-116620000D03*
X154630000Y-110300000D03*
X155260000Y-114700000D03*
X155260000Y-117230000D03*
X155860000Y-112820000D03*
X155260000Y-115940000D03*
X155260000Y-113440000D03*
X155860000Y-110290000D03*
X155860000Y-109050000D03*
X154630000Y-119160000D03*
X155260000Y-108370000D03*
X155860000Y-116610000D03*
X155260000Y-107130000D03*
X154630000Y-117860000D03*
D20*
X212210000Y-83990000D03*
D19*
X191710000Y-136810000D03*
X192940000Y-141870000D03*
X192940000Y-135560000D03*
D20*
X228850000Y-145800000D03*
X205320000Y-83980000D03*
X221400807Y-96170000D03*
D19*
X191710000Y-138110000D03*
D20*
X218900807Y-104665000D03*
D19*
X192940000Y-128000000D03*
X230880000Y-83880000D03*
D20*
X227400000Y-91210000D03*
D19*
X192940000Y-129240000D03*
D20*
X215110000Y-93310800D03*
D19*
X174620000Y-119500000D03*
D20*
X222820807Y-96170000D03*
X237780000Y-149120000D03*
D19*
X174620000Y-118210000D03*
X165730000Y-126080000D03*
D20*
X208560545Y-163316142D03*
D19*
X192940000Y-131770000D03*
D20*
X128050000Y-172901142D03*
X235650000Y-138610000D03*
D19*
X191710000Y-129250000D03*
D21*
X236180000Y-90580000D03*
D20*
X216122500Y-94117500D03*
X222170807Y-103035000D03*
D19*
X191710000Y-135570000D03*
X192940000Y-138100000D03*
D20*
X226198700Y-91325000D03*
D19*
X175860000Y-119500000D03*
X191710000Y-130540000D03*
D20*
X223670807Y-104850000D03*
X220915382Y-99500000D03*
D19*
X231740000Y-147250000D03*
X192940000Y-134270000D03*
X191700000Y-126700000D03*
X191710000Y-139350000D03*
X192940000Y-140630000D03*
D21*
X236970000Y-87510000D03*
D20*
X226790000Y-103410000D03*
D19*
X230330000Y-84430000D03*
D20*
X222120807Y-96997500D03*
D19*
X192940000Y-124170000D03*
X192940000Y-122930000D03*
D20*
X225100807Y-105800000D03*
X221390807Y-97840000D03*
X220370807Y-105335000D03*
D21*
X236170000Y-91450000D03*
D20*
X227900000Y-93870000D03*
D19*
X191710000Y-128010000D03*
D20*
X162005000Y-93455000D03*
D19*
X230190000Y-99640000D03*
X192940000Y-126700000D03*
D20*
X219320807Y-89770000D03*
D19*
X192940000Y-139340000D03*
X191710000Y-134280000D03*
X191710000Y-141880000D03*
X166070000Y-120920000D03*
X175860000Y-120740000D03*
X191710000Y-133040000D03*
X175260000Y-118880000D03*
D20*
X222810807Y-97840000D03*
D19*
X229790000Y-84970000D03*
D20*
X227980000Y-98000000D03*
D19*
X229410000Y-98630000D03*
D20*
X168010000Y-114360000D03*
X227323700Y-92400000D03*
D19*
X174620000Y-120740000D03*
X175260000Y-120120000D03*
D21*
X235690000Y-87510000D03*
D19*
X191710000Y-140640000D03*
X192940000Y-136800000D03*
D20*
X128895000Y-180241142D03*
X225450000Y-103460000D03*
D19*
X234700000Y-146980000D03*
X192940000Y-125460000D03*
X191700000Y-125460000D03*
X191710000Y-131780000D03*
X175860000Y-118210000D03*
D20*
X227700000Y-143290000D03*
X219450545Y-163496142D03*
D21*
X237440000Y-90600000D03*
D20*
X219624180Y-88972959D03*
D19*
X191700000Y-122930000D03*
X192940000Y-130530000D03*
D20*
X230300000Y-137960000D03*
X214720000Y-99420000D03*
D19*
X226100000Y-110230000D03*
D21*
X237451300Y-91460000D03*
D19*
X192940000Y-133030000D03*
D20*
X217090000Y-89550000D03*
D19*
X191700000Y-124170000D03*
D20*
X224860000Y-89070000D03*
D19*
%TO.N,/Power/AGND*%
X170060000Y-114370000D03*
X164480000Y-117890000D03*
X167005068Y-119699999D03*
X169728725Y-116277955D03*
%TO.N,/Power/SMB_ALRT*%
X227500000Y-108206800D03*
X169709742Y-123623141D03*
X217111093Y-107982507D03*
%TO.N,/Power/PWR_EN*%
X214670000Y-105540000D03*
X214780000Y-94800000D03*
X169090000Y-113690000D03*
%TO.N,/Power/PGOOD*%
X164124708Y-123038013D03*
D20*
%TO.N,Net-(U1-VCP)*%
X173830000Y-98805000D03*
X171270000Y-95280000D03*
%TO.N,/3V3*%
X214303591Y-102163591D03*
X226790000Y-102450000D03*
X209860000Y-89560000D03*
X223380404Y-102420000D03*
X222560807Y-91580000D03*
D21*
X233890000Y-94030000D03*
D20*
X225750000Y-143750000D03*
D21*
X233898700Y-96980000D03*
D20*
X218030807Y-90795000D03*
X224920807Y-92475000D03*
D19*
X226770000Y-104840000D03*
X228550000Y-104860000D03*
D20*
X226940000Y-93870000D03*
D21*
X233890000Y-92940000D03*
D19*
X215690000Y-102200000D03*
D20*
X232100000Y-138460000D03*
X227020000Y-98000000D03*
X129855000Y-180241142D03*
X212630000Y-89560000D03*
X217082500Y-94117500D03*
X214720000Y-98460000D03*
%TO.N,/Data/1V1*%
X221910807Y-94615000D03*
X222270807Y-99385000D03*
X223850807Y-94615000D03*
%TO.N,/stack4/GND0*%
X147663878Y-167136142D03*
X149497212Y-167936142D03*
X149510545Y-167136142D03*
X148573878Y-167936142D03*
X150433878Y-167136142D03*
X146727212Y-167936142D03*
X146740545Y-167136142D03*
X148587211Y-167136142D03*
X145803878Y-167936142D03*
X144880545Y-167936142D03*
X151313333Y-167930000D03*
X144893878Y-167136142D03*
X154050545Y-156276142D03*
X145817211Y-167136142D03*
X150420545Y-167936142D03*
X147650545Y-167936142D03*
X151326666Y-167130000D03*
%TO.N,/stack4/GND1*%
X144720545Y-181646142D03*
X145760545Y-181646142D03*
X149933878Y-180836142D03*
X150960545Y-181646142D03*
X145773878Y-180836142D03*
X147853878Y-180836142D03*
X149920545Y-181646142D03*
X148893878Y-180836142D03*
X146800545Y-181646142D03*
X147840545Y-181646142D03*
X146813878Y-180836142D03*
X150973878Y-180836142D03*
X143310545Y-169926142D03*
X153860545Y-169706142D03*
X144733878Y-180836142D03*
X148880545Y-181646142D03*
%TO.N,/stack4/GND2*%
X167140545Y-193626142D03*
X147802212Y-193676142D03*
X145007212Y-192816142D03*
X150620545Y-192816142D03*
X169965545Y-193626142D03*
X150627212Y-193676142D03*
X149678878Y-192816142D03*
X149685545Y-193676142D03*
X146860545Y-193676142D03*
X168075545Y-192766142D03*
X170907212Y-193626142D03*
X169023878Y-193626142D03*
X145955545Y-193676142D03*
X170900545Y-192766142D03*
X151568878Y-193676142D03*
X171848878Y-193626142D03*
X145013879Y-193676142D03*
X145948878Y-192816142D03*
X169958878Y-192766142D03*
X169017211Y-192766142D03*
X151562211Y-192816142D03*
X172790545Y-193616142D03*
X146853878Y-192816142D03*
X154040545Y-182596142D03*
X147795545Y-192816142D03*
X143800545Y-183206142D03*
X167133878Y-192766142D03*
X171842211Y-192766142D03*
X152503878Y-192806142D03*
X172783878Y-192756142D03*
X168082212Y-193626142D03*
X148737211Y-192816142D03*
X148743878Y-193676142D03*
X152510545Y-193666142D03*
%TO.N,/stack4/1V2-0*%
X143540545Y-164136142D03*
D19*
%TO.N,/Power/SW1*%
X178123182Y-125230000D03*
X174594091Y-125930000D03*
X182331364Y-125230000D03*
X175317728Y-125230000D03*
X178802273Y-125930000D03*
X175347728Y-123790000D03*
X176718182Y-122260000D03*
X172542273Y-123790000D03*
X179523636Y-122260000D03*
X183032728Y-124550000D03*
X184413182Y-125930000D03*
X177421818Y-124550000D03*
X174616364Y-124550000D03*
X183734091Y-125230000D03*
X176720455Y-125230000D03*
X180227273Y-124550000D03*
X176019091Y-122990000D03*
X173945000Y-123790000D03*
X180926364Y-122260000D03*
X173912727Y-122260000D03*
X178824546Y-124550000D03*
X173191364Y-125930000D03*
X178120909Y-122260000D03*
X182329091Y-122260000D03*
X179555909Y-123790000D03*
X184435455Y-122990000D03*
X172512273Y-125230000D03*
X172510000Y-122260000D03*
X183032728Y-122990000D03*
X180227273Y-122990000D03*
X183764091Y-123790000D03*
X173213637Y-122990000D03*
X181607727Y-125930000D03*
X180928637Y-125230000D03*
X177399545Y-125930000D03*
X184435455Y-124550000D03*
X180958637Y-123790000D03*
X179525909Y-125230000D03*
X181630000Y-124550000D03*
X176750455Y-123790000D03*
X178153182Y-123790000D03*
X176019091Y-124550000D03*
X173915000Y-125230000D03*
X181630000Y-122990000D03*
X180205000Y-125930000D03*
X182361364Y-123790000D03*
X174616364Y-122990000D03*
X183731818Y-122260000D03*
X178824546Y-122990000D03*
X175996818Y-125930000D03*
X183010455Y-125930000D03*
X173213637Y-124550000D03*
X175315455Y-122260000D03*
X177421818Y-122990000D03*
D20*
%TO.N,Net-(U1-GATE)*%
X171580000Y-97910000D03*
X164555000Y-93380000D03*
D19*
%TO.N,Net-(U2-MSEL1)*%
X165730000Y-115960000D03*
D20*
%TO.N,/stack4/1V2-1*%
X143370545Y-177826142D03*
%TO.N,/stack4/1V2-2*%
X143210545Y-192536142D03*
%TO.N,/stack4/0V8-0*%
X142550545Y-164086142D03*
X139390545Y-159496142D03*
%TO.N,/stack4/0V8-1*%
X143270545Y-175036142D03*
X142000545Y-177056142D03*
%TO.N,/stack4/0V8-2*%
X139160545Y-186416142D03*
X142240545Y-192406142D03*
%TO.N,/stack5/GND0*%
X171715000Y-179870000D03*
X172690000Y-179870000D03*
X160350545Y-186326142D03*
X168803333Y-179010000D03*
X165490545Y-190726142D03*
X171728333Y-179010000D03*
X170740000Y-179870000D03*
X169765000Y-179870000D03*
X167828333Y-179010000D03*
X170753333Y-179010000D03*
X166853333Y-179020000D03*
X172703333Y-179010000D03*
X168790000Y-179870000D03*
X167815000Y-179870000D03*
X175960545Y-190696142D03*
X169778333Y-179010000D03*
X166840000Y-179880000D03*
%TO.N,/stack5/GND1*%
X166873333Y-165400000D03*
X171698333Y-165390000D03*
X168790000Y-166250000D03*
X172650000Y-166250000D03*
X170720000Y-166250000D03*
X169768333Y-165390000D03*
X170733333Y-165390000D03*
X169755000Y-166250000D03*
X172663333Y-165390000D03*
X166860000Y-166260000D03*
X167838333Y-165390000D03*
X171685000Y-166250000D03*
X175350545Y-177076142D03*
X167825000Y-166250000D03*
X168803333Y-165390000D03*
X165220545Y-177076142D03*
%TO.N,/stack5/GND2*%
X189903878Y-154286142D03*
X187730545Y-154286142D03*
X194250545Y-154286142D03*
X169583878Y-154136142D03*
X171937212Y-153276142D03*
X192257212Y-153426142D03*
X172843878Y-154136142D03*
X173930545Y-154136142D03*
X188817212Y-154286142D03*
X171757212Y-154136142D03*
X196094545Y-151574142D03*
X170670545Y-154136142D03*
X169680545Y-153276142D03*
X175423045Y-164273642D03*
X170808878Y-153276142D03*
X167423878Y-153276142D03*
X168497212Y-154136142D03*
X173065545Y-153276142D03*
X193163878Y-154286142D03*
X190000545Y-153426142D03*
X168552211Y-153276142D03*
X192077212Y-154286142D03*
X167410545Y-154136142D03*
X191128878Y-153426142D03*
X165190545Y-164076142D03*
X190990545Y-154286142D03*
X193385545Y-153426142D03*
X158143045Y-154621142D03*
X188872211Y-153426142D03*
X187743878Y-153426142D03*
X156783045Y-160486142D03*
%TO.N,/stack5/1V2-0*%
X163350545Y-185236142D03*
X164645545Y-182791142D03*
%TO.N,/stack5/1V2-1*%
X165300545Y-172586142D03*
%TO.N,/stack5/1V2-2*%
X161260545Y-156386142D03*
X165050545Y-154846142D03*
%TO.N,/stack5/0V8-0*%
X164220545Y-185566142D03*
%TO.N,/stack5/0V8-1*%
X175570545Y-170276142D03*
%TO.N,/stack5/0V8-2*%
X161111636Y-157687233D03*
X163980545Y-154866142D03*
%TO.N,/stack6/GND0*%
X192100545Y-167976142D03*
X193170545Y-167976142D03*
X188890545Y-167136142D03*
X191030545Y-167136142D03*
X189960545Y-167976142D03*
X192100545Y-167136142D03*
X191030545Y-167976142D03*
X197320545Y-155386142D03*
X188890545Y-167976142D03*
X194240545Y-167136142D03*
X187820545Y-167976142D03*
X193170545Y-167136142D03*
X189960545Y-167136142D03*
X194240545Y-167976142D03*
X187820545Y-167136142D03*
X186420545Y-156346142D03*
%TO.N,/stack6/GND1*%
X189753878Y-180756142D03*
X192793878Y-181696142D03*
X189743878Y-181696142D03*
X197130545Y-169736142D03*
X188737212Y-180756142D03*
X186440545Y-170006142D03*
X187720545Y-180766142D03*
X192803878Y-180756142D03*
X190770545Y-180756142D03*
X191777212Y-181696142D03*
X190760545Y-181696142D03*
X193820545Y-180756142D03*
X193810545Y-181696142D03*
X191787212Y-180756142D03*
X188727212Y-181696142D03*
X187710545Y-181706142D03*
%TO.N,/stack6/GND2*%
X191150545Y-192816142D03*
X214827211Y-192856142D03*
X213760545Y-192856142D03*
X195433878Y-193726142D03*
X194350545Y-192816142D03*
X187950545Y-192826142D03*
X197280545Y-183566142D03*
X193283878Y-192816142D03*
X196510545Y-192816142D03*
X189017212Y-192816142D03*
X209440545Y-193776142D03*
X192207212Y-193726142D03*
X213707212Y-193766142D03*
X212640545Y-193766142D03*
X189007212Y-193726142D03*
X215840545Y-193766142D03*
X187940545Y-193736142D03*
X190073878Y-193726142D03*
X215893878Y-192856142D03*
X194340545Y-193726142D03*
X186700545Y-183366142D03*
X210507212Y-193766142D03*
X212693878Y-192856142D03*
X211573878Y-193766142D03*
X190083878Y-192816142D03*
X209493878Y-192866142D03*
X195443878Y-192816142D03*
X196500545Y-193726142D03*
X211627211Y-192856142D03*
X191140545Y-193726142D03*
X192217212Y-192816142D03*
X214773878Y-193766142D03*
X210560545Y-192856142D03*
X193273878Y-193726142D03*
%TO.N,/stack6/1V2-0*%
X197080545Y-163386142D03*
%TO.N,/stack6/1V2-1*%
X186720545Y-176716142D03*
%TO.N,/stack6/1V2-2*%
X181900545Y-187986142D03*
X186070545Y-193036142D03*
%TO.N,/stack6/0V8-0*%
X186230545Y-162456142D03*
%TO.N,/stack6/0V8-1*%
X202949294Y-170719891D03*
X198845545Y-176416142D03*
%TO.N,/stack6/0V8-2*%
X185020545Y-193026142D03*
%TO.N,/stack7/GND0*%
X209320545Y-180006142D03*
X211350545Y-179986142D03*
X208240545Y-190806142D03*
X215410545Y-179986142D03*
X214395545Y-179986142D03*
X213380545Y-179986142D03*
X211373878Y-179106142D03*
X212365545Y-179986142D03*
X210335545Y-179986142D03*
X212388878Y-179106142D03*
X209343878Y-179126142D03*
X222020545Y-189596142D03*
X215433878Y-179106142D03*
X210358878Y-179106142D03*
X213403878Y-179106142D03*
X214418878Y-179106142D03*
%TO.N,/stack7/GND1*%
X208185000Y-177648910D03*
X215380545Y-166326142D03*
X209400545Y-166346142D03*
X213400545Y-165446142D03*
X211407211Y-165446142D03*
X212403878Y-165446142D03*
X211393878Y-166326142D03*
X210397212Y-166326142D03*
X213387212Y-166326142D03*
X212390545Y-166326142D03*
X219150545Y-177226142D03*
X215393878Y-165446142D03*
X210410545Y-165446142D03*
X214383878Y-166326142D03*
X209413878Y-165466142D03*
X214397211Y-165446142D03*
%TO.N,/stack7/1V2-0*%
X219500545Y-183716142D03*
X218620545Y-186996142D03*
%TO.N,/stack7/1V2-1*%
X224240545Y-174336142D03*
X221000545Y-170791142D03*
%TO.N,/stack7/1V2-2*%
X230295104Y-140910000D03*
D19*
X235700000Y-146890000D03*
D20*
X219940545Y-156126142D03*
X222260545Y-157646142D03*
%TO.N,/stack7/0V8-0*%
X220110545Y-184246142D03*
%TO.N,/stack7/0V8-1*%
X219980545Y-170816142D03*
%TO.N,/stack7/0V8-2*%
X220950545Y-156126142D03*
%TO.N,/Data/SWD*%
X223930807Y-99415000D03*
X224670000Y-90470000D03*
D19*
%TO.N,Net-(U2-VSEL)*%
X166680000Y-113870000D03*
D20*
%TO.N,/Data/SWCLK*%
X223170807Y-99330000D03*
X221716320Y-90236474D03*
D19*
%TO.N,Net-(U2-ADRSEL)*%
X164390000Y-114360000D03*
D20*
%TO.N,/Data/QSPI_SS*%
X211220000Y-91870000D03*
X217533835Y-93314305D03*
%TO.N,Net-(U46-NRSTO)*%
X154030545Y-170556142D03*
%TO.N,Net-(U46-CO)*%
X153946636Y-174080051D03*
%TO.N,Net-(U46-CLKO)*%
X153970545Y-172986142D03*
%TO.N,Net-(U46-RI)*%
X153969545Y-172197142D03*
%TO.N,Net-(U46-BO)*%
X153970545Y-171376142D03*
%TO.N,Net-(U46-CI)*%
X142040545Y-178996142D03*
%TO.N,Net-(U47-CO)*%
X141940545Y-181256142D03*
%TO.N,Net-(U46-CLKI)*%
X140910545Y-178866142D03*
%TO.N,Net-(U47-CLKO)*%
X140960545Y-181246142D03*
%TO.N,Net-(U46-RO)*%
X139900545Y-178866142D03*
%TO.N,Net-(U47-RI)*%
X139900545Y-181166142D03*
%TO.N,Net-(U46-BI)*%
X138910545Y-178866142D03*
%TO.N,Net-(U47-BO)*%
X138950545Y-181276142D03*
%TO.N,Net-(U46-NRSTI)*%
X138050545Y-178846142D03*
%TO.N,Net-(U47-NRSTO)*%
X143190545Y-186836142D03*
X138090545Y-181276142D03*
%TO.N,Net-(U55-NRSTO)*%
X178610545Y-189936142D03*
X177695545Y-176041142D03*
%TO.N,Net-(U55-CO)*%
X178610545Y-185786142D03*
%TO.N,Net-(U55-CLKO)*%
X178610545Y-186806142D03*
%TO.N,Net-(U55-RI)*%
X178610545Y-187876142D03*
%TO.N,Net-(U55-BO)*%
X178610545Y-188866142D03*
%TO.N,Net-(U55-CI)*%
X162100545Y-157476142D03*
%TO.N,Net-(U54-CO)*%
X156883454Y-184253233D03*
%TO.N,Net-(U56-CO)*%
X163960545Y-157466142D03*
%TO.N,Net-(U54-CLKO)*%
X156770545Y-185056142D03*
%TO.N,Net-(U55-CLKI)*%
X162120545Y-158476142D03*
%TO.N,Net-(U56-CLKO)*%
X163960545Y-158480142D03*
%TO.N,Net-(U55-RO)*%
X162120545Y-159506142D03*
%TO.N,Net-(U54-RI)*%
X156730545Y-185996142D03*
X162820545Y-182816142D03*
%TO.N,Net-(U56-RI)*%
X163960545Y-159494142D03*
%TO.N,Net-(U55-BI)*%
X162080545Y-160536142D03*
%TO.N,Net-(U54-BO)*%
X156740545Y-187076142D03*
%TO.N,Net-(U56-BO)*%
X163960545Y-160508142D03*
%TO.N,Net-(U54-NRSTO)*%
X156730545Y-188026142D03*
%TO.N,Net-(U55-NRSTI)*%
X162360545Y-161522142D03*
%TO.N,Net-(U56-NRSTO)*%
X163960545Y-161522142D03*
%TO.N,Net-(U64-NRSTO)*%
X197045545Y-170576142D03*
X200340545Y-159736142D03*
%TO.N,Net-(U64-CO)*%
X200520545Y-155756142D03*
%TO.N,Net-(U64-CLKO)*%
X200310545Y-156776142D03*
%TO.N,Net-(U64-RI)*%
X200310545Y-157726142D03*
%TO.N,Net-(U64-BO)*%
X200310545Y-158716142D03*
%TO.N,Net-(U64-CI)*%
X184134499Y-185526455D03*
%TO.N,Net-(U63-CO)*%
X178200545Y-159396142D03*
%TO.N,Net-(U65-CO)*%
X186820545Y-184136142D03*
%TO.N,Net-(U63-CLKO)*%
X178200545Y-160386142D03*
%TO.N,Net-(U64-CLKI)*%
X184180545Y-186316142D03*
%TO.N,Net-(U65-CLKO)*%
X186850545Y-184906142D03*
%TO.N,Net-(U63-RI)*%
X178220545Y-158116142D03*
X178200545Y-161396142D03*
%TO.N,Net-(U64-RO)*%
X184220545Y-187066142D03*
%TO.N,Net-(U65-RI)*%
X186810545Y-185796142D03*
%TO.N,Net-(U64-BI)*%
X184220545Y-187991142D03*
%TO.N,Net-(U63-BO)*%
X178200545Y-162396142D03*
%TO.N,Net-(U65-BO)*%
X186790545Y-186606142D03*
%TO.N,Net-(U63-NRSTO)*%
X178195545Y-163416142D03*
%TO.N,Net-(U64-NRSTI)*%
X184220545Y-188916142D03*
%TO.N,Net-(U65-NRSTO)*%
X186617090Y-188457925D03*
%TO.N,Net-(U73-NRSTO)*%
X225360545Y-178906142D03*
X221870545Y-174116142D03*
%TO.N,Net-(U73-CO)*%
X221330545Y-178906142D03*
%TO.N,Net-(U73-CLKO)*%
X222340545Y-178906142D03*
%TO.N,Net-(U73-RI)*%
X223350545Y-178906142D03*
%TO.N,Net-(U73-BO)*%
X224340545Y-178896142D03*
%TO.N,Net-(U74-BI)*%
X220330545Y-162166142D03*
%TO.N,Net-(U72-CO)*%
X202680545Y-184326142D03*
%TO.N,Net-(U73-CI)*%
X208411636Y-176637233D03*
%TO.N,Net-(U72-CLKO)*%
X202680545Y-185276142D03*
%TO.N,Net-(U73-CLKI)*%
X208099641Y-175915238D03*
%TO.N,Net-(U72-RI)*%
X202700545Y-186236142D03*
%TO.N,Net-(U73-RO)*%
X208400545Y-175216142D03*
%TO.N,Net-(U73-BI)*%
X208110545Y-174516142D03*
%TO.N,Net-(U72-BO)*%
X202730545Y-187186142D03*
%TO.N,Net-(U73-NRSTI)*%
X208400545Y-173796142D03*
%TO.N,Net-(U72-NRSTO)*%
X202730545Y-188116142D03*
%TO.N,/stack4/RO*%
X153970545Y-185346142D03*
%TO.N,/stack4/CLKI*%
X153970545Y-184466142D03*
%TO.N,/stack4/CI*%
X153950545Y-183646142D03*
%TO.N,Net-(U74-NRSTO)*%
X205670545Y-173296142D03*
X207661231Y-162982894D03*
%TO.N,Net-(U74-BO)*%
X205650545Y-174233642D03*
%TO.N,Net-(U74-RI)*%
X205650545Y-175171142D03*
%TO.N,Net-(U74-CLKO)*%
X205650545Y-176108642D03*
%TO.N,Net-(U74-CO)*%
X205650545Y-177046142D03*
%TO.N,/Data/SCL*%
X234780000Y-110040000D03*
X128847365Y-173496501D03*
X214283591Y-103213591D03*
%TO.N,/Data/SDA*%
X235759293Y-110030000D03*
X215690000Y-103200000D03*
D19*
X166910368Y-124349830D03*
D20*
X129750000Y-173501142D03*
%TO.N,/Data/QSPI_SD1*%
X219850807Y-94590000D03*
X212269696Y-91863644D03*
%TO.N,/Data/QSPI_SD2*%
X220690807Y-94590000D03*
X213220807Y-91845000D03*
%TO.N,/RST*%
X236740000Y-141350000D03*
X217030807Y-99430000D03*
%TO.N,/RX*%
X235320000Y-141900000D03*
X215710000Y-99079530D03*
%TO.N,/TX*%
X235910000Y-141350000D03*
X216265404Y-98515404D03*
%TO.N,/stack6/1V2-0B*%
X176645545Y-157066142D03*
%TO.N,/stack7/1V2-0B*%
X207145545Y-183991142D03*
%TO.N,/stack6/CI*%
X200220545Y-184296142D03*
%TO.N,/stack6/CLKI*%
X200240545Y-185256142D03*
%TO.N,/stack6/RO*%
X200220545Y-186206142D03*
%TO.N,/stack6/BI*%
X200220545Y-187166142D03*
%TO.N,/stack6/NRSTI*%
X200190545Y-188146142D03*
%TO.N,Net-(U54-NRSTI)*%
X175680545Y-189986142D03*
%TO.N,Net-(U54-BI)*%
X175680545Y-189166142D03*
%TO.N,Net-(U54-RO)*%
X175680545Y-188386142D03*
%TO.N,Net-(U54-CLKI)*%
X175680545Y-187616142D03*
%TO.N,Net-(U54-CI)*%
X175680545Y-186856142D03*
%TO.N,/stack4/BI*%
X153970545Y-186396142D03*
%TO.N,/stack4/NRSTI*%
X153990545Y-187686142D03*
%TO.N,Net-(U63-NRSTI)*%
X197790545Y-159836142D03*
%TO.N,/stack5/NRSTI*%
X175610545Y-163376142D03*
%TO.N,Net-(U63-BI)*%
X197300545Y-158926142D03*
%TO.N,/stack5/BI*%
X175610545Y-162376142D03*
%TO.N,Net-(U63-RO)*%
X197820545Y-157966142D03*
%TO.N,/stack5/RO*%
X175610545Y-161366142D03*
%TO.N,Net-(U63-CLKI)*%
X197280545Y-157196142D03*
%TO.N,/stack5/CLKI*%
X175610545Y-160416142D03*
%TO.N,Net-(U63-CI)*%
X197820545Y-156216142D03*
%TO.N,/stack5/CI*%
X175610545Y-159386142D03*
%TO.N,Net-(U72-NRSTI)*%
X225360545Y-181726142D03*
%TO.N,Net-(U72-BI)*%
X224350545Y-181726142D03*
%TO.N,Net-(U72-RO)*%
X223340545Y-181726142D03*
%TO.N,Net-(U72-CLKI)*%
X222350545Y-181706142D03*
%TO.N,Net-(U72-CI)*%
X221330545Y-181706142D03*
%TO.N,/stack7/RST_N*%
X237220545Y-163066142D03*
%TO.N,/stack7/RO*%
X237270545Y-161766142D03*
%TO.N,/stack7/CI*%
X237270545Y-160416142D03*
D22*
%TO.N,/5V*%
X225530000Y-87770000D03*
X219548700Y-87520000D03*
D20*
%TO.N,Net-(U74-NRSTI)*%
X235170545Y-163066142D03*
%TO.N,Net-(U74-RO)*%
X235170545Y-161766142D03*
%TO.N,Net-(U74-CLKI)*%
X230100545Y-160876142D03*
%TO.N,Net-(U74-CI)*%
X235170545Y-160416142D03*
%TO.N,/Data/THERM*%
X226310000Y-141320000D03*
D19*
X217035000Y-107175000D03*
D20*
X226240000Y-146530000D03*
%TO.N,Net-(U27-RUN)*%
X212720000Y-100020000D03*
X224280424Y-101761800D03*
%TO.N,Net-(U27-GPIO1)*%
X234480000Y-83880000D03*
X215830000Y-95298300D03*
%TO.N,Net-(U45-CI)*%
X157070545Y-175456142D03*
%TO.N,Net-(U45-CLKI)*%
X157070545Y-174446142D03*
%TO.N,Net-(U45-RO)*%
X157060545Y-173436142D03*
%TO.N,Net-(U45-NRSTI)*%
X156830545Y-171696142D03*
%TO.N,/5V_SWITCH*%
X228430545Y-172626142D03*
D22*
X222420000Y-150100000D03*
D20*
X228430545Y-158766142D03*
X136990545Y-168546142D03*
X228430545Y-191276142D03*
X136990545Y-187046142D03*
X136990545Y-182336142D03*
X228430545Y-186316142D03*
X200759294Y-174749891D03*
D19*
X137130545Y-154426142D03*
D20*
X136990545Y-173756142D03*
X160250545Y-190806142D03*
X155005264Y-170171423D03*
X157730545Y-190806142D03*
X155100545Y-156366142D03*
X228430545Y-177516142D03*
X136990545Y-159886142D03*
X185280545Y-156126142D03*
X202090545Y-162026142D03*
X181030545Y-172856142D03*
X181110545Y-189266142D03*
X181330545Y-184386142D03*
X226370545Y-164466142D03*
D19*
X159043045Y-151863642D03*
%TO.N,Net-(J20-Pin_5)*%
X209670000Y-100940000D03*
X215030862Y-97245800D03*
%TO.N,Net-(J20-Pin_4)*%
X214568564Y-96761600D03*
X209205000Y-100475000D03*
%TO.N,Net-(J20-Pin_3)*%
X208740000Y-99980000D03*
X215130000Y-96285800D03*
D20*
%TO.N,Net-(U45-NRSTO)*%
X135940545Y-159916142D03*
%TO.N,Net-(U45-RI)*%
X135060544Y-160223959D03*
%TO.N,Net-(U45-BI)*%
X157040545Y-172426142D03*
D19*
%TO.N,Net-(J20-Pin_6)*%
X210165000Y-101405000D03*
X216110000Y-97273300D03*
%TO.N,/Data/VIN_REV*%
X161950000Y-95390000D03*
X166310000Y-97290000D03*
X168840000Y-96010000D03*
X168220000Y-95370000D03*
X168840000Y-97290000D03*
X163190000Y-96630000D03*
X159420000Y-96630000D03*
X166310000Y-98530000D03*
X161280000Y-96030000D03*
X164450000Y-97930000D03*
X165070000Y-96010000D03*
X172100000Y-115240000D03*
X167600000Y-97290000D03*
X161950000Y-96630000D03*
X164450000Y-95370000D03*
X163190000Y-95390000D03*
X172720000Y-114640000D03*
X160660000Y-97950000D03*
X168220000Y-97930000D03*
X173340000Y-115240000D03*
X160040000Y-96030000D03*
X173340000Y-114000000D03*
X163810000Y-96030000D03*
X165690000Y-96610000D03*
X173960000Y-114640000D03*
X163810000Y-97310000D03*
X165070000Y-97290000D03*
X159420000Y-95390000D03*
X161280000Y-98550000D03*
X168220000Y-96610000D03*
X160040000Y-97310000D03*
X165070000Y-98530000D03*
X162570000Y-96030000D03*
X163190000Y-97950000D03*
X165690000Y-95370000D03*
X161950000Y-97950000D03*
X173350000Y-116500000D03*
X166980000Y-97930000D03*
X168840000Y-98530000D03*
X163810000Y-98550000D03*
X159420000Y-97950000D03*
X165690000Y-97930000D03*
X161280000Y-97310000D03*
X166980000Y-96610000D03*
X162570000Y-97310000D03*
X167600000Y-98530000D03*
X172730000Y-115870000D03*
X173970000Y-115870000D03*
X164450000Y-96610000D03*
X167600000Y-96010000D03*
X172100000Y-114000000D03*
X160040000Y-98550000D03*
X166310000Y-96010000D03*
X160660000Y-95390000D03*
X160660000Y-96630000D03*
X166980000Y-95370000D03*
X172110000Y-116500000D03*
X162570000Y-98550000D03*
%TO.N,GND*%
X192340000Y-143730000D03*
X192340000Y-137420000D03*
X192340000Y-127320000D03*
X192340000Y-136180000D03*
X192340000Y-132390000D03*
X192340000Y-134890000D03*
X192340000Y-133650000D03*
X192340000Y-145020000D03*
X192340000Y-141250000D03*
X192340000Y-131150000D03*
X192340000Y-139960000D03*
X192340000Y-129860000D03*
X192340000Y-128620000D03*
X192340000Y-142490000D03*
X192340000Y-126080000D03*
X192340000Y-138720000D03*
X192340000Y-124790000D03*
X192340000Y-123550000D03*
%TD*%
D23*
%TO.N,/VDD*%
X164670000Y-128380000D02*
X164930000Y-128120000D01*
X164930000Y-120940000D02*
X164920000Y-120930000D01*
X164930000Y-128120000D02*
X164930000Y-120940000D01*
%TD*%
%TA.AperFunction,Conductor*%
%TO.N,/Data/VIN_REV*%
G36*
X169488034Y-94909107D02*
G01*
X169533791Y-94961908D01*
X169545000Y-95013426D01*
X169545000Y-100710000D01*
X174275561Y-100710000D01*
X174342600Y-100729685D01*
X174388355Y-100782489D01*
X174399560Y-100834539D01*
X174328230Y-117249430D01*
X174308254Y-117316383D01*
X174255252Y-117361908D01*
X174203595Y-117372889D01*
X171813364Y-117360632D01*
X171746427Y-117340604D01*
X171700943Y-117287566D01*
X171690000Y-117236634D01*
X171690000Y-113400000D01*
X171689999Y-113400000D01*
X169537571Y-113412999D01*
X169470414Y-113393719D01*
X169449141Y-113376682D01*
X169381965Y-113309506D01*
X169381964Y-113309505D01*
X169273536Y-113246905D01*
X169273537Y-113246905D01*
X169233224Y-113236103D01*
X169152601Y-113214500D01*
X169027399Y-113214500D01*
X168946775Y-113236103D01*
X168906463Y-113246905D01*
X168798037Y-113309503D01*
X168725428Y-113382113D01*
X168664104Y-113415597D01*
X168638496Y-113418429D01*
X166888431Y-113428998D01*
X166855589Y-113424775D01*
X166742601Y-113394500D01*
X166617399Y-113394500D01*
X166617398Y-113394500D01*
X166494833Y-113427341D01*
X166463489Y-113431564D01*
X163592581Y-113448905D01*
X163581866Y-120523792D01*
X163562080Y-120590801D01*
X163509207Y-120636476D01*
X163457341Y-120647603D01*
X158055589Y-120624742D01*
X157988634Y-120604774D01*
X157943103Y-120551777D01*
X157932114Y-120500704D01*
X157933086Y-117373526D01*
X157940036Y-95014018D01*
X157959741Y-94946987D01*
X158012560Y-94901249D01*
X158064028Y-94890059D01*
X169420996Y-94889426D01*
X169488034Y-94909107D01*
G37*
%TD.AperFunction*%
%TD*%
%TA.AperFunction,Conductor*%
%TO.N,/stack6/GND2*%
G36*
X196323282Y-185645827D02*
G01*
X196369037Y-185698631D01*
X196380242Y-185750467D01*
X196370545Y-189416142D01*
X208970335Y-189356143D01*
X208970925Y-189356142D01*
X217836982Y-189356142D01*
X217904021Y-189375827D01*
X217949776Y-189428631D01*
X217960981Y-189479620D01*
X217999475Y-198615559D01*
X217980073Y-198682680D01*
X217927462Y-198728657D01*
X217875557Y-198740081D01*
X187494626Y-198759906D01*
X187427574Y-198740265D01*
X187381784Y-198687491D01*
X187370545Y-198635906D01*
X187370545Y-190880062D01*
X207490044Y-190880062D01*
X207518885Y-191025049D01*
X207518888Y-191025059D01*
X207575457Y-191161630D01*
X207575464Y-191161643D01*
X207657593Y-191284557D01*
X207657596Y-191284561D01*
X207762125Y-191389090D01*
X207762129Y-191389093D01*
X207885043Y-191471222D01*
X207885056Y-191471229D01*
X208021627Y-191527798D01*
X208021632Y-191527800D01*
X208021636Y-191527800D01*
X208021637Y-191527801D01*
X208166624Y-191556642D01*
X208166627Y-191556642D01*
X208314465Y-191556642D01*
X208412007Y-191537238D01*
X208459458Y-191527800D01*
X208596040Y-191471226D01*
X208718961Y-191389093D01*
X208823496Y-191284558D01*
X208905629Y-191161637D01*
X208962203Y-191025055D01*
X208991045Y-190880060D01*
X208991045Y-190732224D01*
X208991045Y-190732221D01*
X208962204Y-190587234D01*
X208962203Y-190587233D01*
X208962203Y-190587229D01*
X208962201Y-190587224D01*
X208905632Y-190450653D01*
X208905625Y-190450640D01*
X208823496Y-190327726D01*
X208823493Y-190327722D01*
X208718964Y-190223193D01*
X208718960Y-190223190D01*
X208596046Y-190141061D01*
X208596033Y-190141054D01*
X208459462Y-190084485D01*
X208459452Y-190084482D01*
X208314465Y-190055642D01*
X208314463Y-190055642D01*
X208166627Y-190055642D01*
X208166625Y-190055642D01*
X208021637Y-190084482D01*
X208021627Y-190084485D01*
X207885056Y-190141054D01*
X207885043Y-190141061D01*
X207762129Y-190223190D01*
X207762125Y-190223193D01*
X207657596Y-190327722D01*
X207657593Y-190327726D01*
X207575464Y-190450640D01*
X207575457Y-190450653D01*
X207518888Y-190587224D01*
X207518885Y-190587234D01*
X207490045Y-190732221D01*
X207490045Y-190732224D01*
X207490045Y-190880060D01*
X207490045Y-190880062D01*
X207490044Y-190880062D01*
X187370545Y-190880062D01*
X187370545Y-187126589D01*
X187390230Y-187059550D01*
X187391443Y-187057698D01*
X187455629Y-186961637D01*
X187512203Y-186825055D01*
X187539520Y-186687726D01*
X187541045Y-186680062D01*
X187541045Y-186532221D01*
X187512204Y-186387234D01*
X187512203Y-186387233D01*
X187512203Y-186387229D01*
X187463328Y-186269235D01*
X187455860Y-186199769D01*
X187473065Y-186157167D01*
X187472760Y-186157004D01*
X187474276Y-186154166D01*
X187474794Y-186152886D01*
X187475629Y-186151637D01*
X187532203Y-186015055D01*
X187561045Y-185870060D01*
X187561045Y-185750142D01*
X187580730Y-185683103D01*
X187633534Y-185637348D01*
X187685045Y-185626142D01*
X196256243Y-185626142D01*
X196323282Y-185645827D01*
G37*
%TD.AperFunction*%
%TD*%
%TA.AperFunction,Conductor*%
%TO.N,/stack4/GND2*%
G36*
X153212811Y-185535827D02*
G01*
X153258566Y-185588631D01*
X153260333Y-185592689D01*
X153305459Y-185701633D01*
X153305464Y-185701642D01*
X153349647Y-185767766D01*
X153355297Y-185785812D01*
X153365522Y-185801722D01*
X153369973Y-185832681D01*
X153370525Y-185834443D01*
X153370545Y-185836657D01*
X153370545Y-185905625D01*
X153350860Y-185972664D01*
X153349648Y-185974514D01*
X153305460Y-186040646D01*
X153305459Y-186040648D01*
X153248888Y-186177224D01*
X153248885Y-186177234D01*
X153220045Y-186322221D01*
X153220045Y-186322224D01*
X153220045Y-186470060D01*
X153220045Y-186470062D01*
X153220044Y-186470062D01*
X153248885Y-186615049D01*
X153248888Y-186615059D01*
X153305457Y-186751630D01*
X153305464Y-186751642D01*
X153349647Y-186817766D01*
X153370525Y-186884443D01*
X153370545Y-186886657D01*
X153370545Y-187225558D01*
X153350860Y-187292597D01*
X153349648Y-187294447D01*
X153325460Y-187330646D01*
X153325459Y-187330648D01*
X153268888Y-187467224D01*
X153268885Y-187467234D01*
X153240045Y-187612221D01*
X153240045Y-187612224D01*
X153240045Y-187760060D01*
X153240045Y-187760062D01*
X153240044Y-187760062D01*
X153268885Y-187905049D01*
X153268888Y-187905059D01*
X153325457Y-188041630D01*
X153325461Y-188041637D01*
X153349647Y-188077834D01*
X153370525Y-188144510D01*
X153370545Y-188146725D01*
X153370545Y-191496142D01*
X153380545Y-191506142D01*
X157434680Y-191506142D01*
X157482132Y-191515580D01*
X157511632Y-191527800D01*
X157511636Y-191527800D01*
X157511637Y-191527801D01*
X157656624Y-191556642D01*
X157656627Y-191556642D01*
X157804465Y-191556642D01*
X157902007Y-191537238D01*
X157949458Y-191527800D01*
X157978957Y-191515580D01*
X158026410Y-191506142D01*
X159954680Y-191506142D01*
X160002132Y-191515580D01*
X160031632Y-191527800D01*
X160031636Y-191527800D01*
X160031637Y-191527801D01*
X160176624Y-191556642D01*
X160176627Y-191556642D01*
X160324465Y-191556642D01*
X160422007Y-191537238D01*
X160469458Y-191527800D01*
X160498957Y-191515580D01*
X160546410Y-191506142D01*
X165920545Y-191506142D01*
X165950545Y-191476142D01*
X165950545Y-191378872D01*
X165970230Y-191311833D01*
X165986864Y-191291191D01*
X166073493Y-191204561D01*
X166073496Y-191204558D01*
X166155629Y-191081637D01*
X166212203Y-190945055D01*
X166241045Y-190800060D01*
X166241045Y-190652224D01*
X166241045Y-190652221D01*
X166212204Y-190507234D01*
X166212203Y-190507233D01*
X166212203Y-190507229D01*
X166188766Y-190450647D01*
X166155632Y-190370653D01*
X166155625Y-190370640D01*
X166073496Y-190247726D01*
X166073493Y-190247722D01*
X165986864Y-190161093D01*
X165953379Y-190099770D01*
X165950545Y-190073412D01*
X165950545Y-189370142D01*
X165970230Y-189303103D01*
X166023034Y-189257348D01*
X166074545Y-189246142D01*
X174826326Y-189246142D01*
X174893365Y-189265827D01*
X174939120Y-189318631D01*
X174950326Y-189370402D01*
X174949418Y-189802875D01*
X174947035Y-189826806D01*
X174930045Y-189912219D01*
X174930045Y-190060061D01*
X174946273Y-190141644D01*
X174948656Y-190166096D01*
X174930809Y-198673304D01*
X174910984Y-198740302D01*
X174858084Y-198785946D01*
X174807052Y-198797044D01*
X144484788Y-198856578D01*
X144417710Y-198837025D01*
X144371852Y-198784311D01*
X144360545Y-198732578D01*
X144360545Y-185640142D01*
X144380230Y-185573103D01*
X144433034Y-185527348D01*
X144484545Y-185516142D01*
X153145772Y-185516142D01*
X153212811Y-185535827D01*
G37*
%TD.AperFunction*%
%TD*%
%TA.AperFunction,Conductor*%
%TO.N,/Power/VIN*%
G36*
X161231377Y-82359685D02*
G01*
X161277132Y-82412489D01*
X161287076Y-82481647D01*
X161264269Y-82535789D01*
X161264895Y-82536208D01*
X161262724Y-82539456D01*
X161262710Y-82539491D01*
X161262644Y-82539576D01*
X161262633Y-82539592D01*
X161149578Y-82735407D01*
X161149573Y-82735418D01*
X161063044Y-82944317D01*
X161063041Y-82944327D01*
X161004517Y-83162744D01*
X161004515Y-83162755D01*
X160993028Y-83250000D01*
X161781116Y-83250000D01*
X161750000Y-83406433D01*
X161750000Y-83593567D01*
X161781116Y-83750000D01*
X160993029Y-83750000D01*
X161004515Y-83837244D01*
X161004517Y-83837255D01*
X161063041Y-84055672D01*
X161063044Y-84055682D01*
X161149573Y-84264581D01*
X161149578Y-84264592D01*
X161262633Y-84460407D01*
X161262644Y-84460423D01*
X161400292Y-84639810D01*
X161400298Y-84639817D01*
X161560182Y-84799701D01*
X161560189Y-84799707D01*
X161739576Y-84937355D01*
X161739592Y-84937366D01*
X161935407Y-85050421D01*
X161935418Y-85050426D01*
X162144317Y-85136955D01*
X162144327Y-85136958D01*
X162362744Y-85195482D01*
X162362755Y-85195484D01*
X162450000Y-85206971D01*
X162450000Y-84418883D01*
X162606433Y-84450000D01*
X162793567Y-84450000D01*
X162950000Y-84418883D01*
X162950000Y-85206970D01*
X163037244Y-85195484D01*
X163037255Y-85195482D01*
X163255672Y-85136958D01*
X163255682Y-85136955D01*
X163464581Y-85050426D01*
X163464592Y-85050421D01*
X163660407Y-84937366D01*
X163660423Y-84937355D01*
X163839810Y-84799707D01*
X163839817Y-84799701D01*
X163999701Y-84639817D01*
X163999707Y-84639810D01*
X164137355Y-84460423D01*
X164137366Y-84460407D01*
X164250421Y-84264592D01*
X164250426Y-84264581D01*
X164336955Y-84055682D01*
X164336958Y-84055672D01*
X164395482Y-83837255D01*
X164395484Y-83837244D01*
X164406971Y-83750000D01*
X163618884Y-83750000D01*
X163650000Y-83593567D01*
X163650000Y-83406433D01*
X163618884Y-83250000D01*
X164406971Y-83250000D01*
X164395484Y-83162755D01*
X164395482Y-83162744D01*
X164336958Y-82944327D01*
X164336955Y-82944317D01*
X164250426Y-82735418D01*
X164250421Y-82735407D01*
X164137366Y-82539592D01*
X164137355Y-82539576D01*
X164137290Y-82539491D01*
X164137278Y-82539460D01*
X164135105Y-82536208D01*
X164135832Y-82535721D01*
X164112092Y-82474323D01*
X164126128Y-82405877D01*
X164174939Y-82355885D01*
X164235662Y-82340000D01*
X168664338Y-82340000D01*
X168731377Y-82359685D01*
X168777132Y-82412489D01*
X168787076Y-82481647D01*
X168764269Y-82535789D01*
X168764895Y-82536208D01*
X168762724Y-82539456D01*
X168762710Y-82539491D01*
X168762644Y-82539576D01*
X168762633Y-82539592D01*
X168649578Y-82735407D01*
X168649573Y-82735418D01*
X168563044Y-82944317D01*
X168563041Y-82944327D01*
X168504517Y-83162744D01*
X168504515Y-83162755D01*
X168493028Y-83250000D01*
X169281116Y-83250000D01*
X169250000Y-83406433D01*
X169250000Y-83593567D01*
X169281116Y-83750000D01*
X168493029Y-83750000D01*
X168504515Y-83837244D01*
X168504517Y-83837255D01*
X168563041Y-84055672D01*
X168563044Y-84055682D01*
X168649573Y-84264581D01*
X168649578Y-84264592D01*
X168762633Y-84460407D01*
X168762644Y-84460423D01*
X168900292Y-84639810D01*
X168900298Y-84639817D01*
X169060182Y-84799701D01*
X169060189Y-84799707D01*
X169239576Y-84937355D01*
X169239592Y-84937366D01*
X169435407Y-85050421D01*
X169435418Y-85050426D01*
X169644317Y-85136955D01*
X169644327Y-85136958D01*
X169862744Y-85195482D01*
X169862755Y-85195484D01*
X169950000Y-85206971D01*
X169950000Y-84418883D01*
X170106433Y-84450000D01*
X170293567Y-84450000D01*
X170450000Y-84418883D01*
X170450000Y-85206970D01*
X170537244Y-85195484D01*
X170537255Y-85195482D01*
X170755672Y-85136958D01*
X170755682Y-85136955D01*
X170964581Y-85050426D01*
X170964592Y-85050421D01*
X171160407Y-84937366D01*
X171160423Y-84937355D01*
X171339810Y-84799707D01*
X171339817Y-84799701D01*
X171499701Y-84639817D01*
X171499707Y-84639810D01*
X171637355Y-84460423D01*
X171637366Y-84460407D01*
X171750421Y-84264592D01*
X171750426Y-84264581D01*
X171836955Y-84055682D01*
X171836958Y-84055672D01*
X171895482Y-83837255D01*
X171895484Y-83837244D01*
X171906971Y-83750000D01*
X171118884Y-83750000D01*
X171150000Y-83593567D01*
X171150000Y-83406433D01*
X171118884Y-83250000D01*
X171906971Y-83250000D01*
X171895484Y-83162755D01*
X171895482Y-83162744D01*
X171836958Y-82944327D01*
X171836955Y-82944317D01*
X171750426Y-82735418D01*
X171750421Y-82735407D01*
X171637366Y-82539592D01*
X171637355Y-82539576D01*
X171637290Y-82539491D01*
X171637278Y-82539460D01*
X171635105Y-82536208D01*
X171635832Y-82535721D01*
X171612092Y-82474323D01*
X171626128Y-82405877D01*
X171674939Y-82355885D01*
X171735662Y-82340000D01*
X173966000Y-82340000D01*
X174033039Y-82359685D01*
X174078794Y-82412489D01*
X174090000Y-82464000D01*
X174090000Y-93786000D01*
X174070315Y-93853039D01*
X174017511Y-93898794D01*
X173966000Y-93910000D01*
X165618695Y-93910000D01*
X165551656Y-93890315D01*
X165505901Y-93837511D01*
X165494700Y-93787127D01*
X165481817Y-92370000D01*
X159224000Y-92370000D01*
X159156961Y-92350315D01*
X159111206Y-92297511D01*
X159100000Y-92246000D01*
X159100000Y-88386930D01*
X160975000Y-88386930D01*
X160975000Y-88613069D01*
X161004515Y-88837244D01*
X161004517Y-88837255D01*
X161063041Y-89055672D01*
X161063044Y-89055682D01*
X161149573Y-89264581D01*
X161149578Y-89264592D01*
X161262631Y-89460404D01*
X161262637Y-89460412D01*
X161316211Y-89530233D01*
X161873473Y-88972971D01*
X161962087Y-89105590D01*
X162094410Y-89237913D01*
X162227027Y-89326525D01*
X161669765Y-89883787D01*
X161669765Y-89883788D01*
X161739578Y-89937356D01*
X161739586Y-89937361D01*
X161935414Y-90050424D01*
X161935418Y-90050426D01*
X162144317Y-90136955D01*
X162144327Y-90136958D01*
X162362744Y-90195482D01*
X162362755Y-90195484D01*
X162586930Y-90224999D01*
X162586945Y-90225000D01*
X162813055Y-90225000D01*
X162813069Y-90224999D01*
X163037244Y-90195484D01*
X163037255Y-90195482D01*
X163255672Y-90136958D01*
X163255682Y-90136955D01*
X163464581Y-90050426D01*
X163464592Y-90050421D01*
X163660407Y-89937366D01*
X163660415Y-89937360D01*
X163730233Y-89883787D01*
X163172971Y-89326525D01*
X163305590Y-89237913D01*
X163437913Y-89105590D01*
X163526525Y-88972971D01*
X164083787Y-89530233D01*
X164137360Y-89460415D01*
X164137366Y-89460407D01*
X164250421Y-89264592D01*
X164250426Y-89264581D01*
X164336955Y-89055682D01*
X164336958Y-89055672D01*
X164395482Y-88837255D01*
X164395484Y-88837244D01*
X164424999Y-88613069D01*
X164425000Y-88613055D01*
X164425000Y-88386944D01*
X164424999Y-88386930D01*
X168475000Y-88386930D01*
X168475000Y-88613069D01*
X168504515Y-88837244D01*
X168504517Y-88837255D01*
X168563041Y-89055672D01*
X168563044Y-89055682D01*
X168649573Y-89264581D01*
X168649578Y-89264592D01*
X168762631Y-89460404D01*
X168762637Y-89460412D01*
X168816211Y-89530233D01*
X169373473Y-88972970D01*
X169462087Y-89105590D01*
X169594410Y-89237913D01*
X169727027Y-89326525D01*
X169169765Y-89883787D01*
X169169765Y-89883788D01*
X169239578Y-89937356D01*
X169239586Y-89937361D01*
X169435414Y-90050424D01*
X169435418Y-90050426D01*
X169644317Y-90136955D01*
X169644327Y-90136958D01*
X169862744Y-90195482D01*
X169862755Y-90195484D01*
X170086930Y-90224999D01*
X170086945Y-90225000D01*
X170313055Y-90225000D01*
X170313069Y-90224999D01*
X170537244Y-90195484D01*
X170537255Y-90195482D01*
X170755672Y-90136958D01*
X170755682Y-90136955D01*
X170964581Y-90050426D01*
X170964592Y-90050421D01*
X171160407Y-89937366D01*
X171160415Y-89937360D01*
X171230233Y-89883787D01*
X170672971Y-89326525D01*
X170805590Y-89237913D01*
X170937913Y-89105590D01*
X171026525Y-88972971D01*
X171583787Y-89530233D01*
X171637360Y-89460415D01*
X171637366Y-89460407D01*
X171750421Y-89264592D01*
X171750426Y-89264581D01*
X171836955Y-89055682D01*
X171836958Y-89055672D01*
X171895482Y-88837255D01*
X171895484Y-88837244D01*
X171924999Y-88613069D01*
X171925000Y-88613055D01*
X171925000Y-88386944D01*
X171924999Y-88386930D01*
X171895484Y-88162755D01*
X171895482Y-88162744D01*
X171836958Y-87944327D01*
X171836955Y-87944317D01*
X171750426Y-87735418D01*
X171750424Y-87735414D01*
X171637361Y-87539586D01*
X171637356Y-87539578D01*
X171583787Y-87469765D01*
X171026525Y-88027027D01*
X170937913Y-87894410D01*
X170805590Y-87762087D01*
X170672971Y-87673474D01*
X171230233Y-87116211D01*
X171230233Y-87116210D01*
X171160412Y-87062637D01*
X171160404Y-87062631D01*
X170964592Y-86949578D01*
X170964581Y-86949573D01*
X170755682Y-86863044D01*
X170755672Y-86863041D01*
X170537255Y-86804517D01*
X170537244Y-86804515D01*
X170313069Y-86775000D01*
X170086930Y-86775000D01*
X169862755Y-86804515D01*
X169862744Y-86804517D01*
X169644327Y-86863041D01*
X169644317Y-86863044D01*
X169435418Y-86949573D01*
X169435407Y-86949578D01*
X169239593Y-87062632D01*
X169239578Y-87062642D01*
X169169764Y-87116211D01*
X169727027Y-87673474D01*
X169594410Y-87762087D01*
X169462087Y-87894410D01*
X169373474Y-88027027D01*
X168816211Y-87469764D01*
X168762642Y-87539578D01*
X168762632Y-87539593D01*
X168649578Y-87735407D01*
X168649573Y-87735418D01*
X168563044Y-87944317D01*
X168563041Y-87944327D01*
X168504517Y-88162744D01*
X168504515Y-88162755D01*
X168475000Y-88386930D01*
X164424999Y-88386930D01*
X164395484Y-88162755D01*
X164395482Y-88162744D01*
X164336958Y-87944327D01*
X164336955Y-87944317D01*
X164250426Y-87735418D01*
X164250424Y-87735414D01*
X164137361Y-87539586D01*
X164137356Y-87539578D01*
X164083787Y-87469765D01*
X163526525Y-88027027D01*
X163437913Y-87894410D01*
X163305590Y-87762087D01*
X163172971Y-87673474D01*
X163730233Y-87116211D01*
X163730233Y-87116210D01*
X163660412Y-87062637D01*
X163660404Y-87062631D01*
X163464592Y-86949578D01*
X163464581Y-86949573D01*
X163255682Y-86863044D01*
X163255672Y-86863041D01*
X163037255Y-86804517D01*
X163037244Y-86804515D01*
X162813069Y-86775000D01*
X162586930Y-86775000D01*
X162362755Y-86804515D01*
X162362744Y-86804517D01*
X162144327Y-86863041D01*
X162144317Y-86863044D01*
X161935418Y-86949573D01*
X161935407Y-86949578D01*
X161739593Y-87062632D01*
X161739578Y-87062642D01*
X161669764Y-87116211D01*
X162227027Y-87673474D01*
X162094410Y-87762087D01*
X161962087Y-87894410D01*
X161873474Y-88027027D01*
X161316211Y-87469764D01*
X161262642Y-87539578D01*
X161262632Y-87539593D01*
X161149578Y-87735407D01*
X161149573Y-87735418D01*
X161063044Y-87944317D01*
X161063041Y-87944327D01*
X161004517Y-88162744D01*
X161004515Y-88162755D01*
X160975000Y-88386930D01*
X159100000Y-88386930D01*
X159100000Y-82464000D01*
X159119685Y-82396961D01*
X159172489Y-82351206D01*
X159224000Y-82340000D01*
X161164338Y-82340000D01*
X161231377Y-82359685D01*
G37*
%TD.AperFunction*%
%TD*%
%TA.AperFunction,Conductor*%
%TO.N,/VDD*%
G36*
X189036966Y-122897485D02*
G01*
X189103849Y-122917690D01*
X189149192Y-122970849D01*
X189160000Y-123021481D01*
X189160000Y-146416000D01*
X189140315Y-146483039D01*
X189087511Y-146528794D01*
X189036000Y-146540000D01*
X161899999Y-146540000D01*
X153410001Y-155029997D01*
X153410000Y-155029999D01*
X153417489Y-155833934D01*
X153398429Y-155901154D01*
X153396600Y-155903975D01*
X153385463Y-155920643D01*
X153385459Y-155920650D01*
X153328887Y-156057228D01*
X153328886Y-156057231D01*
X153317073Y-156116615D01*
X153284686Y-156178525D01*
X153223970Y-156213098D01*
X153195349Y-156216421D01*
X144654938Y-156209072D01*
X144587916Y-156189330D01*
X144542206Y-156136486D01*
X144531045Y-156085072D01*
X144531045Y-155972221D01*
X144502204Y-155827234D01*
X144502203Y-155827233D01*
X144502203Y-155827229D01*
X144492246Y-155803191D01*
X144445632Y-155690653D01*
X144445625Y-155690640D01*
X144363496Y-155567726D01*
X144363493Y-155567722D01*
X144258964Y-155463193D01*
X144215108Y-155433889D01*
X144170304Y-155380276D01*
X144160000Y-155330787D01*
X144160000Y-128991362D01*
X144179685Y-128924323D01*
X144196319Y-128903681D01*
X145103681Y-127996319D01*
X145165004Y-127962834D01*
X145191362Y-127960000D01*
X185930000Y-127960000D01*
X185930000Y-122998274D01*
X185949685Y-122931235D01*
X186002489Y-122885480D01*
X186054962Y-122874278D01*
X189036966Y-122897485D01*
G37*
%TD.AperFunction*%
%TD*%
%TA.AperFunction,Conductor*%
%TO.N,/Power/SW1*%
G36*
X173934797Y-121567190D02*
G01*
X174295648Y-121780000D01*
X184636000Y-121780000D01*
X184703039Y-121799685D01*
X184748794Y-121852489D01*
X184760000Y-121904000D01*
X184760000Y-126626000D01*
X184740315Y-126693039D01*
X184687511Y-126738794D01*
X184636000Y-126750000D01*
X171814000Y-126750000D01*
X171746961Y-126730315D01*
X171701206Y-126677511D01*
X171690000Y-126626000D01*
X171690000Y-121674000D01*
X171709685Y-121606961D01*
X171762489Y-121561206D01*
X171814000Y-121550000D01*
X173871808Y-121550000D01*
X173934797Y-121567190D01*
G37*
%TD.AperFunction*%
%TD*%
%TA.AperFunction,Conductor*%
%TO.N,/stack4/GND0*%
G36*
X153323584Y-158185827D02*
G01*
X153369339Y-158238631D01*
X153380545Y-158290142D01*
X153380545Y-169073412D01*
X153360860Y-169140451D01*
X153344226Y-169161093D01*
X153277596Y-169227722D01*
X153277593Y-169227726D01*
X153195464Y-169350640D01*
X153195457Y-169350653D01*
X153138888Y-169487224D01*
X153138885Y-169487234D01*
X153110045Y-169632221D01*
X153110045Y-169632224D01*
X153110045Y-169780060D01*
X153110045Y-169780062D01*
X153110044Y-169780062D01*
X153138885Y-169925049D01*
X153138888Y-169925059D01*
X153195457Y-170061630D01*
X153195464Y-170061643D01*
X153277593Y-170184557D01*
X153277596Y-170184561D01*
X153285850Y-170192815D01*
X153319335Y-170254138D01*
X153314351Y-170323830D01*
X153312731Y-170327945D01*
X153308889Y-170337219D01*
X153308886Y-170337230D01*
X153280045Y-170482221D01*
X153280045Y-170482224D01*
X153280045Y-170630060D01*
X153280045Y-170630062D01*
X153280044Y-170630062D01*
X153308885Y-170775049D01*
X153308888Y-170775059D01*
X153345009Y-170862263D01*
X153352478Y-170931732D01*
X153333552Y-170978603D01*
X153305465Y-171020640D01*
X153305459Y-171020650D01*
X153248887Y-171157228D01*
X153248885Y-171157233D01*
X153244191Y-171180835D01*
X153211805Y-171242745D01*
X153151089Y-171277319D01*
X153122574Y-171280642D01*
X144494545Y-171280642D01*
X144427506Y-171260957D01*
X144381751Y-171208153D01*
X144370545Y-171156642D01*
X144370545Y-158290142D01*
X144390230Y-158223103D01*
X144443034Y-158177348D01*
X144494545Y-158166142D01*
X153256545Y-158166142D01*
X153323584Y-158185827D01*
G37*
%TD.AperFunction*%
%TD*%
%TA.AperFunction,Conductor*%
%TO.N,/stack5/GND0*%
G36*
X174857902Y-175674988D02*
G01*
X174906419Y-175725266D01*
X174920545Y-175782744D01*
X174920545Y-176394809D01*
X174900860Y-176461848D01*
X174875209Y-176490663D01*
X174872125Y-176493193D01*
X174767596Y-176597722D01*
X174767593Y-176597726D01*
X174685464Y-176720640D01*
X174685457Y-176720653D01*
X174628888Y-176857224D01*
X174628885Y-176857234D01*
X174600045Y-177002221D01*
X174600045Y-177002224D01*
X174600045Y-177150060D01*
X174600045Y-177150062D01*
X174600044Y-177150062D01*
X174628885Y-177295049D01*
X174628888Y-177295059D01*
X174685457Y-177431630D01*
X174685464Y-177431643D01*
X174767593Y-177554557D01*
X174767596Y-177554561D01*
X174872120Y-177659085D01*
X174872125Y-177659089D01*
X174872129Y-177659093D01*
X174872133Y-177659095D01*
X174875202Y-177661614D01*
X174876384Y-177663349D01*
X174876436Y-177663401D01*
X174876426Y-177663410D01*
X174914541Y-177719357D01*
X174920545Y-177757474D01*
X174920545Y-188584780D01*
X174911900Y-188614220D01*
X174905377Y-188644207D01*
X174901622Y-188649222D01*
X174900860Y-188651819D01*
X174884226Y-188672461D01*
X174852364Y-188704323D01*
X174791041Y-188737808D01*
X174764683Y-188740642D01*
X166074545Y-188740642D01*
X166047796Y-188743517D01*
X165979039Y-188731111D01*
X165927902Y-188683500D01*
X165910545Y-188620228D01*
X165910545Y-177396149D01*
X165919984Y-177348696D01*
X165942203Y-177295055D01*
X165971045Y-177150060D01*
X165971045Y-177002224D01*
X165971045Y-177002221D01*
X165942204Y-176857234D01*
X165942203Y-176857233D01*
X165942203Y-176857229D01*
X165942201Y-176857224D01*
X165919984Y-176803586D01*
X165910545Y-176756134D01*
X165910545Y-175784041D01*
X165930230Y-175717002D01*
X165983034Y-175671247D01*
X166050111Y-175661602D01*
X166050131Y-175661326D01*
X166051400Y-175661416D01*
X166052189Y-175661303D01*
X166054545Y-175661642D01*
X166054549Y-175661642D01*
X174739183Y-175661642D01*
X174789908Y-175658922D01*
X174857902Y-175674988D01*
G37*
%TD.AperFunction*%
%TD*%
%TA.AperFunction,Conductor*%
%TO.N,/stack7/GND1*%
G36*
X217983584Y-162015827D02*
G01*
X218029339Y-162068631D01*
X218040545Y-162120142D01*
X218040545Y-175044778D01*
X218031900Y-175074218D01*
X218025377Y-175104205D01*
X218021622Y-175109220D01*
X218020860Y-175111817D01*
X218004226Y-175132459D01*
X217992362Y-175144323D01*
X217931039Y-175177808D01*
X217904681Y-175180642D01*
X209260451Y-175180642D01*
X209193412Y-175160957D01*
X209147657Y-175108153D01*
X209138834Y-175080834D01*
X209122204Y-174997234D01*
X209122203Y-174997233D01*
X209122203Y-174997229D01*
X209065629Y-174860647D01*
X209051441Y-174839413D01*
X209030565Y-174772735D01*
X209030545Y-174770524D01*
X209030545Y-174241759D01*
X209050230Y-174174720D01*
X209051444Y-174172867D01*
X209065624Y-174151644D01*
X209065629Y-174151637D01*
X209122203Y-174015055D01*
X209151045Y-173870060D01*
X209151045Y-173722224D01*
X209151045Y-173722221D01*
X209122204Y-173577234D01*
X209122203Y-173577233D01*
X209122203Y-173577229D01*
X209065629Y-173440647D01*
X209051441Y-173419413D01*
X209030565Y-173352735D01*
X209030545Y-173350524D01*
X209030545Y-163958871D01*
X209050230Y-163891832D01*
X209066859Y-163871194D01*
X209143496Y-163794558D01*
X209225629Y-163671637D01*
X209282203Y-163535055D01*
X209311045Y-163390060D01*
X209311045Y-163242224D01*
X209311045Y-163242221D01*
X209282204Y-163097234D01*
X209282203Y-163097233D01*
X209282203Y-163097229D01*
X209282201Y-163097224D01*
X209225632Y-162960653D01*
X209225625Y-162960640D01*
X209143496Y-162837726D01*
X209143493Y-162837722D01*
X209066864Y-162761093D01*
X209033379Y-162699770D01*
X209030545Y-162673412D01*
X209030545Y-162120142D01*
X209050230Y-162053103D01*
X209103034Y-162007348D01*
X209154545Y-161996142D01*
X217916545Y-161996142D01*
X217983584Y-162015827D01*
G37*
%TD.AperFunction*%
%TD*%
%TA.AperFunction,Conductor*%
%TO.N,/stack4/GND1*%
G36*
X153208912Y-171805827D02*
G01*
X153254667Y-171858631D01*
X153264611Y-171927789D01*
X153256434Y-171957594D01*
X153247888Y-171978224D01*
X153247885Y-171978234D01*
X153219045Y-172123221D01*
X153219045Y-172123224D01*
X153219045Y-172271060D01*
X153219045Y-172271062D01*
X153219044Y-172271062D01*
X153247885Y-172416049D01*
X153247888Y-172416059D01*
X153301461Y-172545397D01*
X153308930Y-172614866D01*
X153301461Y-172640301D01*
X153248888Y-172767224D01*
X153248885Y-172767234D01*
X153220045Y-172912221D01*
X153220045Y-172912224D01*
X153220045Y-173060060D01*
X153220045Y-173060062D01*
X153220044Y-173060062D01*
X153248885Y-173205049D01*
X153248888Y-173205059D01*
X153305457Y-173341630D01*
X153305461Y-173341637D01*
X153329647Y-173377834D01*
X153335298Y-173395881D01*
X153345522Y-173411790D01*
X153349973Y-173442747D01*
X153350525Y-173444510D01*
X153350545Y-173446725D01*
X153350545Y-173583685D01*
X153330860Y-173650724D01*
X153329648Y-173652575D01*
X153281549Y-173724559D01*
X153224979Y-173861133D01*
X153224976Y-173861143D01*
X153196136Y-174006130D01*
X153196136Y-174006133D01*
X153196136Y-174153969D01*
X153196136Y-174153971D01*
X153196135Y-174153971D01*
X153224976Y-174298958D01*
X153224979Y-174298968D01*
X153281548Y-174435539D01*
X153281555Y-174435551D01*
X153329647Y-174507525D01*
X153350525Y-174574202D01*
X153350545Y-174576416D01*
X153350545Y-182276134D01*
X153341106Y-182323586D01*
X153318888Y-182377224D01*
X153318885Y-182377234D01*
X153290045Y-182522221D01*
X153290045Y-182522224D01*
X153290045Y-182670060D01*
X153290045Y-182670062D01*
X153290044Y-182670062D01*
X153318885Y-182815049D01*
X153318887Y-182815055D01*
X153341106Y-182868696D01*
X153342732Y-182876873D01*
X153345522Y-182881214D01*
X153350545Y-182916149D01*
X153350545Y-183155625D01*
X153330860Y-183222664D01*
X153329648Y-183224514D01*
X153285460Y-183290646D01*
X153285459Y-183290648D01*
X153228888Y-183427224D01*
X153228885Y-183427234D01*
X153200045Y-183572221D01*
X153200045Y-183572224D01*
X153200045Y-183720060D01*
X153200045Y-183720062D01*
X153200044Y-183720062D01*
X153228885Y-183865049D01*
X153228887Y-183865055D01*
X153285459Y-184001633D01*
X153285464Y-184001642D01*
X153288858Y-184006721D01*
X153309736Y-184073399D01*
X153300317Y-184123064D01*
X153248888Y-184247224D01*
X153248885Y-184247234D01*
X153220045Y-184392221D01*
X153220045Y-184392224D01*
X153220045Y-184540060D01*
X153220045Y-184540062D01*
X153220044Y-184540062D01*
X153248885Y-184685049D01*
X153248888Y-184685059D01*
X153305851Y-184822581D01*
X153307987Y-184842456D01*
X153314974Y-184861187D01*
X153311646Y-184876483D01*
X153313320Y-184892050D01*
X153304371Y-184909926D01*
X153300122Y-184929460D01*
X153283434Y-184951752D01*
X153282044Y-184954529D01*
X153278971Y-184957714D01*
X153259843Y-184976842D01*
X153198520Y-185010327D01*
X153154518Y-185011899D01*
X153145777Y-185010642D01*
X153145772Y-185010642D01*
X144484545Y-185010642D01*
X144477795Y-185011367D01*
X144409039Y-184998961D01*
X144357902Y-184951350D01*
X144340545Y-184888078D01*
X144340545Y-183778871D01*
X144360230Y-183711832D01*
X144376868Y-183691186D01*
X144383495Y-183684559D01*
X144383496Y-183684558D01*
X144465629Y-183561637D01*
X144522203Y-183425055D01*
X144548939Y-183290647D01*
X144551045Y-183280062D01*
X144551045Y-183132221D01*
X144522204Y-182987234D01*
X144522203Y-182987233D01*
X144522203Y-182987229D01*
X144522201Y-182987224D01*
X144465632Y-182850653D01*
X144465625Y-182850640D01*
X144383496Y-182727726D01*
X144383493Y-182727722D01*
X144376864Y-182721093D01*
X144343379Y-182659770D01*
X144340545Y-182633412D01*
X144340545Y-171910142D01*
X144360230Y-171843103D01*
X144413034Y-171797348D01*
X144464545Y-171786142D01*
X153141873Y-171786142D01*
X153208912Y-171805827D01*
G37*
%TD.AperFunction*%
%TD*%
%TA.AperFunction,Conductor*%
%TO.N,/stack7/GND0*%
G36*
X217983584Y-175705827D02*
G01*
X218029339Y-175758631D01*
X218040545Y-175810142D01*
X218040545Y-186475694D01*
X218020860Y-186542733D01*
X218019647Y-186544585D01*
X217955464Y-186640640D01*
X217955457Y-186640653D01*
X217898888Y-186777224D01*
X217898885Y-186777234D01*
X217870045Y-186922221D01*
X217870045Y-186922224D01*
X217870045Y-187070060D01*
X217870045Y-187070062D01*
X217870044Y-187070062D01*
X217898885Y-187215049D01*
X217898888Y-187215059D01*
X217955457Y-187351630D01*
X217955464Y-187351642D01*
X218019647Y-187447698D01*
X218040525Y-187514375D01*
X218040545Y-187516589D01*
X218040545Y-188734778D01*
X218031900Y-188764218D01*
X218025377Y-188794205D01*
X218021622Y-188799220D01*
X218020860Y-188801817D01*
X218004226Y-188822459D01*
X218002453Y-188824232D01*
X217941130Y-188857717D01*
X217897126Y-188859289D01*
X217836982Y-188850642D01*
X209154545Y-188850642D01*
X209087506Y-188830957D01*
X209041751Y-188778153D01*
X209030545Y-188726642D01*
X209030545Y-177099448D01*
X209050230Y-177032409D01*
X209051416Y-177030596D01*
X209076720Y-176992728D01*
X209133294Y-176856146D01*
X209162136Y-176711151D01*
X209162136Y-176563315D01*
X209162136Y-176563312D01*
X209133295Y-176418325D01*
X209133294Y-176418324D01*
X209133294Y-176418320D01*
X209133292Y-176418315D01*
X209076721Y-176281739D01*
X209076719Y-176281736D01*
X209051443Y-176243907D01*
X209030565Y-176177230D01*
X209030545Y-176175017D01*
X209030545Y-175810142D01*
X209050230Y-175743103D01*
X209103034Y-175697348D01*
X209154545Y-175686142D01*
X217916545Y-175686142D01*
X217983584Y-175705827D01*
G37*
%TD.AperFunction*%
%TD*%
%TA.AperFunction,Conductor*%
%TO.N,/stack5/GND1*%
G36*
X174732537Y-162020605D02*
G01*
X174732538Y-162020604D01*
X174732552Y-162020605D01*
X174752770Y-162018516D01*
X174821477Y-162031206D01*
X174872417Y-162079027D01*
X174889416Y-162146798D01*
X174887131Y-162166050D01*
X174860045Y-162302219D01*
X174860045Y-162302224D01*
X174860045Y-162450060D01*
X174860045Y-162450062D01*
X174860044Y-162450062D01*
X174888885Y-162595049D01*
X174888887Y-162595055D01*
X174931106Y-162696980D01*
X174940545Y-162744433D01*
X174940545Y-163007849D01*
X174931106Y-163055301D01*
X174888888Y-163157224D01*
X174888885Y-163157234D01*
X174860045Y-163302221D01*
X174860045Y-163302224D01*
X174860045Y-163450060D01*
X174860045Y-163450062D01*
X174860044Y-163450062D01*
X174888885Y-163595049D01*
X174888885Y-163595050D01*
X174888886Y-163595054D01*
X174888887Y-163595055D01*
X174901518Y-163625549D01*
X174908986Y-163695018D01*
X174877710Y-163757497D01*
X174874639Y-163760679D01*
X174840096Y-163795223D01*
X174840091Y-163795229D01*
X174757964Y-163918140D01*
X174757957Y-163918153D01*
X174701388Y-164054724D01*
X174701385Y-164054734D01*
X174672545Y-164199721D01*
X174672545Y-164199724D01*
X174672545Y-164347560D01*
X174672545Y-164347562D01*
X174672544Y-164347562D01*
X174701385Y-164492549D01*
X174701388Y-164492559D01*
X174757957Y-164629130D01*
X174757964Y-164629143D01*
X174840092Y-164752056D01*
X174840093Y-164752057D01*
X174840094Y-164752058D01*
X174904227Y-164816191D01*
X174937711Y-164877512D01*
X174940545Y-164903871D01*
X174940545Y-169830524D01*
X174920860Y-169897563D01*
X174919649Y-169899413D01*
X174905462Y-169920645D01*
X174905459Y-169920650D01*
X174848887Y-170057228D01*
X174848885Y-170057234D01*
X174820045Y-170202221D01*
X174820045Y-170202224D01*
X174820045Y-170350060D01*
X174820045Y-170350062D01*
X174820044Y-170350062D01*
X174848885Y-170495049D01*
X174848888Y-170495059D01*
X174905457Y-170631630D01*
X174905465Y-170631644D01*
X174919646Y-170652867D01*
X174940525Y-170719544D01*
X174940545Y-170721759D01*
X174940545Y-174954780D01*
X174931900Y-174984220D01*
X174925377Y-175014207D01*
X174921622Y-175019222D01*
X174920860Y-175021819D01*
X174904226Y-175042461D01*
X174826864Y-175119823D01*
X174765541Y-175153308D01*
X174739183Y-175156142D01*
X166054545Y-175156142D01*
X165987506Y-175136457D01*
X165941751Y-175083653D01*
X165930545Y-175032142D01*
X165930545Y-173031759D01*
X165950230Y-172964720D01*
X165951444Y-172962867D01*
X165965624Y-172941644D01*
X165965629Y-172941637D01*
X166022203Y-172805055D01*
X166051045Y-172660060D01*
X166051045Y-172512224D01*
X166051045Y-172512221D01*
X166022204Y-172367234D01*
X166022203Y-172367233D01*
X166022203Y-172367229D01*
X165965629Y-172230647D01*
X165951441Y-172209413D01*
X165930565Y-172142735D01*
X165930545Y-172140524D01*
X165930545Y-164215057D01*
X165932928Y-164190864D01*
X165941045Y-164150060D01*
X165941045Y-164002221D01*
X165932928Y-163961417D01*
X165930545Y-163937225D01*
X165930545Y-162096450D01*
X165950230Y-162029411D01*
X166003034Y-161983656D01*
X166055233Y-161972452D01*
X174732537Y-162020605D01*
G37*
%TD.AperFunction*%
%TD*%
%TA.AperFunction,Conductor*%
%TO.N,/stack6/GND0*%
G36*
X196413584Y-158271327D02*
G01*
X196459339Y-158324131D01*
X196470545Y-158375642D01*
X196470545Y-162910592D01*
X196450860Y-162977631D01*
X196449648Y-162979482D01*
X196415459Y-163030650D01*
X196358888Y-163167224D01*
X196358885Y-163167234D01*
X196330045Y-163312221D01*
X196330045Y-163312224D01*
X196330045Y-163460060D01*
X196330045Y-163460062D01*
X196330044Y-163460062D01*
X196358885Y-163605049D01*
X196358888Y-163605059D01*
X196415457Y-163741630D01*
X196415461Y-163741637D01*
X196449647Y-163792801D01*
X196470525Y-163859477D01*
X196470545Y-163861691D01*
X196470545Y-169343708D01*
X196461106Y-169391161D01*
X196408887Y-169517228D01*
X196408885Y-169517234D01*
X196380045Y-169662221D01*
X196380045Y-169662224D01*
X196380045Y-169810060D01*
X196380045Y-169810062D01*
X196380044Y-169810062D01*
X196408885Y-169955049D01*
X196408888Y-169955059D01*
X196440556Y-170031513D01*
X196448025Y-170100983D01*
X196429098Y-170147855D01*
X196380463Y-170220642D01*
X196380457Y-170220653D01*
X196323888Y-170357224D01*
X196323885Y-170357234D01*
X196295045Y-170502221D01*
X196295045Y-170502224D01*
X196295045Y-170650060D01*
X196295045Y-170650062D01*
X196295044Y-170650062D01*
X196323885Y-170795049D01*
X196323888Y-170795059D01*
X196380457Y-170931630D01*
X196380464Y-170931643D01*
X196449647Y-171035181D01*
X196455297Y-171053227D01*
X196465522Y-171069137D01*
X196469973Y-171100096D01*
X196470525Y-171101858D01*
X196470545Y-171104072D01*
X196470545Y-171236642D01*
X196450860Y-171303681D01*
X196398056Y-171349436D01*
X196346545Y-171360642D01*
X187584545Y-171360642D01*
X187517506Y-171340957D01*
X187471751Y-171288153D01*
X187460545Y-171236642D01*
X187460545Y-158375642D01*
X187480230Y-158308603D01*
X187533034Y-158262848D01*
X187584545Y-158251642D01*
X196346545Y-158251642D01*
X196413584Y-158271327D01*
G37*
%TD.AperFunction*%
%TD*%
%TA.AperFunction,Conductor*%
%TO.N,/stack6/GND1*%
G36*
X196433169Y-171885827D02*
G01*
X196478924Y-171938631D01*
X196490128Y-171990891D01*
X196411625Y-184992891D01*
X196391536Y-185059810D01*
X196338457Y-185105245D01*
X196287627Y-185116142D01*
X187724455Y-185116142D01*
X187657416Y-185096457D01*
X187611661Y-185043653D01*
X187602079Y-184986152D01*
X187601045Y-184986152D01*
X187601045Y-184832221D01*
X187572204Y-184687234D01*
X187572203Y-184687233D01*
X187572203Y-184687229D01*
X187572201Y-184687224D01*
X187515630Y-184550648D01*
X187512759Y-184545277D01*
X187515274Y-184543932D01*
X187497969Y-184488987D01*
X187507383Y-184439117D01*
X187542203Y-184355055D01*
X187571045Y-184210060D01*
X187571045Y-184062224D01*
X187571045Y-184062221D01*
X187542204Y-183917234D01*
X187542203Y-183917233D01*
X187542203Y-183917229D01*
X187512102Y-183844558D01*
X187485630Y-183780648D01*
X187485629Y-183780646D01*
X187461442Y-183744447D01*
X187455791Y-183726401D01*
X187445568Y-183710493D01*
X187441116Y-183679530D01*
X187440565Y-183677770D01*
X187440545Y-183675558D01*
X187440545Y-183505057D01*
X187442928Y-183480864D01*
X187451045Y-183440060D01*
X187451045Y-183292221D01*
X187442928Y-183251417D01*
X187440545Y-183227225D01*
X187440545Y-176955601D01*
X187442928Y-176931409D01*
X187471045Y-176790062D01*
X187471045Y-176642221D01*
X187442928Y-176500872D01*
X187440545Y-176476680D01*
X187440545Y-171990142D01*
X187460230Y-171923103D01*
X187513034Y-171877348D01*
X187564545Y-171866142D01*
X196366130Y-171866142D01*
X196433169Y-171885827D01*
G37*
%TD.AperFunction*%
%TD*%
%TA.AperFunction,Conductor*%
%TO.N,GND*%
G36*
X181704904Y-82382943D02*
G01*
X181771904Y-82402746D01*
X181817565Y-82455632D01*
X181827385Y-82524808D01*
X181812066Y-82568942D01*
X181715956Y-82735407D01*
X181715951Y-82735418D01*
X181629422Y-82944317D01*
X181629419Y-82944327D01*
X181570895Y-83162744D01*
X181570893Y-83162755D01*
X181559406Y-83250000D01*
X182347494Y-83250000D01*
X182316378Y-83406433D01*
X182316378Y-83593567D01*
X182347494Y-83750000D01*
X181559407Y-83750000D01*
X181570893Y-83837244D01*
X181570895Y-83837255D01*
X181629419Y-84055672D01*
X181629422Y-84055682D01*
X181715951Y-84264581D01*
X181715956Y-84264592D01*
X181829011Y-84460407D01*
X181829022Y-84460423D01*
X181966670Y-84639810D01*
X181966676Y-84639817D01*
X182126560Y-84799701D01*
X182126567Y-84799707D01*
X182305954Y-84937355D01*
X182305970Y-84937366D01*
X182501785Y-85050421D01*
X182501796Y-85050426D01*
X182710695Y-85136955D01*
X182710705Y-85136958D01*
X182929122Y-85195482D01*
X182929133Y-85195484D01*
X183016378Y-85206971D01*
X183016378Y-84418883D01*
X183172811Y-84450000D01*
X183359945Y-84450000D01*
X183516378Y-84418883D01*
X183516378Y-85206970D01*
X183603622Y-85195484D01*
X183603633Y-85195482D01*
X183822050Y-85136958D01*
X183822060Y-85136955D01*
X184030959Y-85050426D01*
X184030970Y-85050421D01*
X184226785Y-84937366D01*
X184226801Y-84937355D01*
X184406188Y-84799707D01*
X184406195Y-84799701D01*
X184566079Y-84639817D01*
X184566085Y-84639810D01*
X184703733Y-84460423D01*
X184703744Y-84460407D01*
X184816799Y-84264592D01*
X184816804Y-84264581D01*
X184903333Y-84055682D01*
X184903336Y-84055672D01*
X184961860Y-83837255D01*
X184961862Y-83837244D01*
X184973349Y-83750000D01*
X184185262Y-83750000D01*
X184216378Y-83593567D01*
X184216378Y-83406433D01*
X184185262Y-83250000D01*
X184973349Y-83250000D01*
X184961862Y-83162755D01*
X184961860Y-83162744D01*
X184903336Y-82944327D01*
X184903333Y-82944317D01*
X184816804Y-82735418D01*
X184816799Y-82735407D01*
X184723906Y-82574513D01*
X184707433Y-82506613D01*
X184730285Y-82440586D01*
X184785206Y-82397396D01*
X184831509Y-82388513D01*
X189197195Y-82396292D01*
X189264196Y-82416095D01*
X189309857Y-82468981D01*
X189319677Y-82538157D01*
X189304358Y-82582291D01*
X189215956Y-82735407D01*
X189215951Y-82735418D01*
X189129422Y-82944317D01*
X189129419Y-82944327D01*
X189070895Y-83162744D01*
X189070893Y-83162755D01*
X189059406Y-83250000D01*
X189847494Y-83250000D01*
X189816378Y-83406433D01*
X189816378Y-83593567D01*
X189847494Y-83750000D01*
X189059407Y-83750000D01*
X189070893Y-83837244D01*
X189070895Y-83837255D01*
X189129419Y-84055672D01*
X189129422Y-84055682D01*
X189215951Y-84264581D01*
X189215956Y-84264592D01*
X189329011Y-84460407D01*
X189329022Y-84460423D01*
X189466670Y-84639810D01*
X189466676Y-84639817D01*
X189626560Y-84799701D01*
X189626567Y-84799707D01*
X189805954Y-84937355D01*
X189805970Y-84937366D01*
X190001785Y-85050421D01*
X190001796Y-85050426D01*
X190210695Y-85136955D01*
X190210705Y-85136958D01*
X190429122Y-85195482D01*
X190429133Y-85195484D01*
X190516378Y-85206971D01*
X190516378Y-84418883D01*
X190672811Y-84450000D01*
X190859945Y-84450000D01*
X191016378Y-84418883D01*
X191016378Y-85206970D01*
X191103622Y-85195484D01*
X191103633Y-85195482D01*
X191322050Y-85136958D01*
X191322060Y-85136955D01*
X191530959Y-85050426D01*
X191530970Y-85050421D01*
X191726785Y-84937366D01*
X191726801Y-84937355D01*
X191906188Y-84799707D01*
X191906195Y-84799701D01*
X192066079Y-84639817D01*
X192066085Y-84639810D01*
X192203733Y-84460423D01*
X192203744Y-84460407D01*
X192316799Y-84264592D01*
X192316804Y-84264581D01*
X192403333Y-84055682D01*
X192403336Y-84055672D01*
X192461860Y-83837255D01*
X192461862Y-83837244D01*
X192473349Y-83750000D01*
X191685262Y-83750000D01*
X191716378Y-83593567D01*
X191716378Y-83406433D01*
X191685262Y-83250000D01*
X192473349Y-83250000D01*
X192461862Y-83162755D01*
X192461860Y-83162744D01*
X192403336Y-82944327D01*
X192403333Y-82944317D01*
X192316804Y-82735418D01*
X192316802Y-82735414D01*
X192231628Y-82587890D01*
X192215155Y-82519990D01*
X192238007Y-82453963D01*
X192292928Y-82410772D01*
X192339230Y-82401890D01*
X202931758Y-82420762D01*
X202998761Y-82440566D01*
X203044422Y-82493452D01*
X203055536Y-82544762D01*
X203055536Y-96165536D01*
X218099129Y-111209129D01*
X218132614Y-111270452D01*
X218135448Y-111297021D01*
X218050210Y-161366476D01*
X218047712Y-161374927D01*
X218048986Y-161383648D01*
X218037964Y-161407919D01*
X218030411Y-161433482D01*
X218023740Y-161439241D01*
X218020097Y-161447266D01*
X217997703Y-161461726D01*
X217977529Y-161479147D01*
X217967260Y-161481383D01*
X217961401Y-161485167D01*
X217926477Y-161490265D01*
X217752203Y-161490639D01*
X217751149Y-161490642D01*
X214899400Y-161490642D01*
X214832361Y-161470957D01*
X214786606Y-161418153D01*
X214783684Y-161397836D01*
X214580545Y-161194695D01*
X214380019Y-161395220D01*
X214379801Y-161404397D01*
X214340639Y-161462260D01*
X214276411Y-161489765D01*
X214261689Y-161490642D01*
X212679400Y-161490642D01*
X212612361Y-161470957D01*
X212566606Y-161418153D01*
X212563684Y-161397836D01*
X212360545Y-161194695D01*
X212160019Y-161395220D01*
X212159801Y-161404397D01*
X212120639Y-161462260D01*
X212056411Y-161489765D01*
X212041689Y-161490642D01*
X209154545Y-161490642D01*
X209097499Y-161496775D01*
X209047093Y-161502194D01*
X209026811Y-161506606D01*
X209000722Y-161509439D01*
X208864349Y-161509732D01*
X208797268Y-161490191D01*
X208751400Y-161437486D01*
X208740083Y-161385651D01*
X208740499Y-160766094D01*
X211790545Y-160766094D01*
X211790545Y-160916185D01*
X211820425Y-161027705D01*
X212006990Y-160841141D01*
X211977154Y-160811305D01*
X212210545Y-160811305D01*
X212210545Y-160870979D01*
X212233381Y-160926110D01*
X212275577Y-160968306D01*
X212330708Y-160991142D01*
X212390382Y-160991142D01*
X212445513Y-160968306D01*
X212487709Y-160926110D01*
X212510545Y-160870979D01*
X212510545Y-160841141D01*
X212714098Y-160841141D01*
X212900663Y-161027705D01*
X212930544Y-160916183D01*
X212930545Y-160916182D01*
X212930545Y-160766102D01*
X212930544Y-160766100D01*
X212930542Y-160766094D01*
X214010545Y-160766094D01*
X214010545Y-160916185D01*
X214040425Y-161027705D01*
X214226990Y-160841141D01*
X214197154Y-160811305D01*
X214430545Y-160811305D01*
X214430545Y-160870979D01*
X214453381Y-160926110D01*
X214495577Y-160968306D01*
X214550708Y-160991142D01*
X214610382Y-160991142D01*
X214665513Y-160968306D01*
X214707709Y-160926110D01*
X214730545Y-160870979D01*
X214730545Y-160841141D01*
X214934098Y-160841141D01*
X215120663Y-161027705D01*
X215150544Y-160916183D01*
X215150545Y-160916182D01*
X215150545Y-160766102D01*
X215150544Y-160766100D01*
X215120662Y-160654577D01*
X214934098Y-160841141D01*
X214730545Y-160841141D01*
X214730545Y-160811305D01*
X214707709Y-160756174D01*
X214665513Y-160713978D01*
X214610382Y-160691142D01*
X214550708Y-160691142D01*
X214495577Y-160713978D01*
X214453381Y-160756174D01*
X214430545Y-160811305D01*
X214197154Y-160811305D01*
X214040426Y-160654577D01*
X214040425Y-160654577D01*
X214010545Y-160766094D01*
X212930542Y-160766094D01*
X212900662Y-160654577D01*
X212714098Y-160841141D01*
X212510545Y-160841141D01*
X212510545Y-160811305D01*
X212487709Y-160756174D01*
X212445513Y-160713978D01*
X212390382Y-160691142D01*
X212330708Y-160691142D01*
X212275577Y-160713978D01*
X212233381Y-160756174D01*
X212210545Y-160811305D01*
X211977154Y-160811305D01*
X211820426Y-160654577D01*
X211820425Y-160654577D01*
X211790545Y-160766094D01*
X208740499Y-160766094D01*
X208740785Y-160341259D01*
X210979692Y-160341259D01*
X211091215Y-160371141D01*
X211091217Y-160371142D01*
X211241297Y-160371142D01*
X211241298Y-160371141D01*
X211352820Y-160341260D01*
X211331987Y-160320427D01*
X212193384Y-160320427D01*
X212360545Y-160487587D01*
X212506872Y-160341259D01*
X213239692Y-160341259D01*
X213351215Y-160371141D01*
X213351217Y-160371142D01*
X213501297Y-160371142D01*
X213501298Y-160371141D01*
X213612820Y-160341260D01*
X213604129Y-160332569D01*
X214425526Y-160332569D01*
X214580545Y-160487588D01*
X214726874Y-160341259D01*
X215529692Y-160341259D01*
X215641215Y-160371141D01*
X215641217Y-160371142D01*
X215791297Y-160371142D01*
X215791298Y-160371141D01*
X215902820Y-160341260D01*
X215716257Y-160154695D01*
X215529692Y-160341259D01*
X214726874Y-160341259D01*
X214758419Y-160309714D01*
X214603401Y-160154695D01*
X214425526Y-160332569D01*
X213604129Y-160332569D01*
X213426257Y-160154695D01*
X213239692Y-160341259D01*
X212506872Y-160341259D01*
X212526277Y-160321854D01*
X212359117Y-160154695D01*
X212193384Y-160320427D01*
X211331987Y-160320427D01*
X211166257Y-160154695D01*
X210979692Y-160341259D01*
X208740785Y-160341259D01*
X208741198Y-159726094D01*
X210596257Y-159726094D01*
X210596257Y-159876185D01*
X210626137Y-159987705D01*
X210812702Y-159801141D01*
X210782866Y-159771305D01*
X211016257Y-159771305D01*
X211016257Y-159830979D01*
X211039093Y-159886110D01*
X211081289Y-159928306D01*
X211136420Y-159951142D01*
X211196094Y-159951142D01*
X211251225Y-159928306D01*
X211293421Y-159886110D01*
X211316257Y-159830979D01*
X211316257Y-159801141D01*
X211519810Y-159801141D01*
X211706374Y-159987704D01*
X211730591Y-159981216D01*
X211794780Y-159981216D01*
X211818998Y-159987705D01*
X212005562Y-159801141D01*
X211975726Y-159771305D01*
X212209117Y-159771305D01*
X212209117Y-159830979D01*
X212231953Y-159886110D01*
X212274149Y-159928306D01*
X212329280Y-159951142D01*
X212388954Y-159951142D01*
X212444085Y-159928306D01*
X212486281Y-159886110D01*
X212509117Y-159830979D01*
X212509117Y-159801141D01*
X212712670Y-159801141D01*
X212892687Y-159981158D01*
X213072703Y-159801143D01*
X213072703Y-159801142D01*
X213042866Y-159771305D01*
X213276257Y-159771305D01*
X213276257Y-159830979D01*
X213299093Y-159886110D01*
X213341289Y-159928306D01*
X213396420Y-159951142D01*
X213456094Y-159951142D01*
X213511225Y-159928306D01*
X213553421Y-159886110D01*
X213576257Y-159830979D01*
X213576257Y-159801141D01*
X213779810Y-159801141D01*
X213966375Y-159987705D01*
X213982734Y-159983322D01*
X214046922Y-159983322D01*
X214063281Y-159987705D01*
X214249846Y-159801141D01*
X214220010Y-159771305D01*
X214453401Y-159771305D01*
X214453401Y-159830979D01*
X214476237Y-159886110D01*
X214518433Y-159928306D01*
X214573564Y-159951142D01*
X214633238Y-159951142D01*
X214688369Y-159928306D01*
X214730565Y-159886110D01*
X214753401Y-159830979D01*
X214753401Y-159801141D01*
X214956954Y-159801141D01*
X215147750Y-159991936D01*
X215171909Y-159991936D01*
X215362703Y-159801142D01*
X215362703Y-159801141D01*
X215332867Y-159771305D01*
X215566257Y-159771305D01*
X215566257Y-159830979D01*
X215589093Y-159886110D01*
X215631289Y-159928306D01*
X215686420Y-159951142D01*
X215746094Y-159951142D01*
X215801225Y-159928306D01*
X215843421Y-159886110D01*
X215866257Y-159830979D01*
X215866257Y-159801141D01*
X216069810Y-159801141D01*
X216256375Y-159987705D01*
X216286256Y-159876183D01*
X216286257Y-159876182D01*
X216286257Y-159726102D01*
X216286256Y-159726100D01*
X216256374Y-159614577D01*
X216069810Y-159801141D01*
X215866257Y-159801141D01*
X215866257Y-159771305D01*
X215843421Y-159716174D01*
X215801225Y-159673978D01*
X215746094Y-159651142D01*
X215686420Y-159651142D01*
X215631289Y-159673978D01*
X215589093Y-159716174D01*
X215566257Y-159771305D01*
X215332867Y-159771305D01*
X215171909Y-159610347D01*
X215147749Y-159610347D01*
X214956954Y-159801141D01*
X214753401Y-159801141D01*
X214753401Y-159771305D01*
X214730565Y-159716174D01*
X214688369Y-159673978D01*
X214633238Y-159651142D01*
X214573564Y-159651142D01*
X214518433Y-159673978D01*
X214476237Y-159716174D01*
X214453401Y-159771305D01*
X214220010Y-159771305D01*
X214063281Y-159614576D01*
X214046920Y-159618960D01*
X213982735Y-159618960D01*
X213966375Y-159614576D01*
X213779810Y-159801141D01*
X213576257Y-159801141D01*
X213576257Y-159771305D01*
X213553421Y-159716174D01*
X213511225Y-159673978D01*
X213456094Y-159651142D01*
X213396420Y-159651142D01*
X213341289Y-159673978D01*
X213299093Y-159716174D01*
X213276257Y-159771305D01*
X213042866Y-159771305D01*
X212892687Y-159621125D01*
X212712670Y-159801141D01*
X212509117Y-159801141D01*
X212509117Y-159771305D01*
X212486281Y-159716174D01*
X212444085Y-159673978D01*
X212388954Y-159651142D01*
X212329280Y-159651142D01*
X212274149Y-159673978D01*
X212231953Y-159716174D01*
X212209117Y-159771305D01*
X211975726Y-159771305D01*
X211818997Y-159614576D01*
X211794779Y-159621066D01*
X211730593Y-159621066D01*
X211706375Y-159614576D01*
X211519810Y-159801141D01*
X211316257Y-159801141D01*
X211316257Y-159771305D01*
X211293421Y-159716174D01*
X211251225Y-159673978D01*
X211196094Y-159651142D01*
X211136420Y-159651142D01*
X211081289Y-159673978D01*
X211039093Y-159716174D01*
X211016257Y-159771305D01*
X210782866Y-159771305D01*
X210626138Y-159614577D01*
X210626137Y-159614577D01*
X210596257Y-159726094D01*
X208741198Y-159726094D01*
X208741511Y-159261022D01*
X210979692Y-159261022D01*
X210979692Y-159261023D01*
X211166256Y-159447587D01*
X211261987Y-159351855D01*
X212263384Y-159351855D01*
X212359117Y-159447588D01*
X212456277Y-159350428D01*
X212366872Y-159261022D01*
X213239692Y-159261022D01*
X213239692Y-159261023D01*
X213426256Y-159447587D01*
X213544129Y-159329713D01*
X214485526Y-159329713D01*
X214603401Y-159447587D01*
X214698419Y-159352568D01*
X214606872Y-159261022D01*
X215529692Y-159261022D01*
X215529692Y-159261023D01*
X215716256Y-159447587D01*
X215902820Y-159261022D01*
X215791300Y-159231142D01*
X215641209Y-159231142D01*
X215529692Y-159261022D01*
X214606872Y-159261022D01*
X214580545Y-159234695D01*
X214485526Y-159329713D01*
X213544129Y-159329713D01*
X213612820Y-159261022D01*
X213501300Y-159231142D01*
X213351209Y-159231142D01*
X213239692Y-159261022D01*
X212366872Y-159261022D01*
X212360545Y-159254695D01*
X212263384Y-159351855D01*
X211261987Y-159351855D01*
X211352820Y-159261022D01*
X211241300Y-159231142D01*
X211091209Y-159231142D01*
X210979692Y-159261022D01*
X208741511Y-159261022D01*
X208741803Y-158826094D01*
X211790545Y-158826094D01*
X211790545Y-158976185D01*
X211820425Y-159087705D01*
X212006990Y-158901141D01*
X211977154Y-158871305D01*
X212210545Y-158871305D01*
X212210545Y-158930979D01*
X212233381Y-158986110D01*
X212275577Y-159028306D01*
X212330708Y-159051142D01*
X212390382Y-159051142D01*
X212445513Y-159028306D01*
X212487709Y-158986110D01*
X212510545Y-158930979D01*
X212510545Y-158901141D01*
X212714098Y-158901141D01*
X212900663Y-159087705D01*
X212930544Y-158976183D01*
X212930545Y-158976182D01*
X212930545Y-158826102D01*
X212925184Y-158806094D01*
X214010545Y-158806094D01*
X214010545Y-158956185D01*
X214040425Y-159067705D01*
X214226990Y-158881141D01*
X214197154Y-158851305D01*
X214430545Y-158851305D01*
X214430545Y-158910979D01*
X214453381Y-158966110D01*
X214495577Y-159008306D01*
X214550708Y-159031142D01*
X214610382Y-159031142D01*
X214665513Y-159008306D01*
X214707709Y-158966110D01*
X214730545Y-158910979D01*
X214730545Y-158881141D01*
X214934098Y-158881141D01*
X215120663Y-159067705D01*
X215150544Y-158956183D01*
X215150545Y-158956182D01*
X215150545Y-158806102D01*
X215150544Y-158806100D01*
X215120662Y-158694577D01*
X214934098Y-158881141D01*
X214730545Y-158881141D01*
X214730545Y-158851305D01*
X214707709Y-158796174D01*
X214665513Y-158753978D01*
X214610382Y-158731142D01*
X214550708Y-158731142D01*
X214495577Y-158753978D01*
X214453381Y-158796174D01*
X214430545Y-158851305D01*
X214197154Y-158851305D01*
X214040426Y-158694577D01*
X214040425Y-158694577D01*
X214010545Y-158806094D01*
X212925184Y-158806094D01*
X212900662Y-158714577D01*
X212714098Y-158901141D01*
X212510545Y-158901141D01*
X212510545Y-158871305D01*
X212487709Y-158816174D01*
X212445513Y-158773978D01*
X212390382Y-158751142D01*
X212330708Y-158751142D01*
X212275577Y-158773978D01*
X212233381Y-158816174D01*
X212210545Y-158871305D01*
X211977154Y-158871305D01*
X211820426Y-158714577D01*
X211820425Y-158714577D01*
X211790545Y-158826094D01*
X208741803Y-158826094D01*
X208742109Y-158371259D01*
X210973980Y-158371259D01*
X211085503Y-158401141D01*
X211085505Y-158401142D01*
X211235585Y-158401142D01*
X211235586Y-158401141D01*
X211291569Y-158386141D01*
X212199098Y-158386141D01*
X212360545Y-158547588D01*
X212536874Y-158371259D01*
X213233980Y-158371259D01*
X213345503Y-158401141D01*
X213345505Y-158401142D01*
X213495585Y-158401142D01*
X213495586Y-158401141D01*
X213607108Y-158371260D01*
X213600561Y-158364713D01*
X214417670Y-158364713D01*
X214580545Y-158527588D01*
X214736874Y-158371259D01*
X215523980Y-158371259D01*
X215635503Y-158401141D01*
X215635505Y-158401142D01*
X215785585Y-158401142D01*
X215785586Y-158401141D01*
X215897108Y-158371260D01*
X215710545Y-158184695D01*
X215523980Y-158371259D01*
X214736874Y-158371259D01*
X214760563Y-158347570D01*
X214597689Y-158184695D01*
X214417670Y-158364713D01*
X213600561Y-158364713D01*
X213420545Y-158184695D01*
X213233980Y-158371259D01*
X212536874Y-158371259D01*
X212541991Y-158366142D01*
X212380545Y-158204695D01*
X212199098Y-158386141D01*
X211291569Y-158386141D01*
X211347108Y-158371260D01*
X211160545Y-158184695D01*
X210973980Y-158371259D01*
X208742109Y-158371259D01*
X208742522Y-157756094D01*
X210590545Y-157756094D01*
X210590545Y-157906185D01*
X210620425Y-158017705D01*
X210806990Y-157831141D01*
X210777154Y-157801305D01*
X211010545Y-157801305D01*
X211010545Y-157860979D01*
X211033381Y-157916110D01*
X211075577Y-157958306D01*
X211130708Y-157981142D01*
X211190382Y-157981142D01*
X211245513Y-157958306D01*
X211287709Y-157916110D01*
X211310545Y-157860979D01*
X211310545Y-157831141D01*
X211514098Y-157831141D01*
X211700663Y-158017705D01*
X211706286Y-158016199D01*
X211776136Y-158017861D01*
X211782539Y-158022194D01*
X211840425Y-158037705D01*
X212026990Y-157851141D01*
X211997154Y-157821305D01*
X212230545Y-157821305D01*
X212230545Y-157880979D01*
X212253381Y-157936110D01*
X212295577Y-157978306D01*
X212350708Y-158001142D01*
X212410382Y-158001142D01*
X212465513Y-157978306D01*
X212507709Y-157936110D01*
X212530545Y-157880979D01*
X212530545Y-157851142D01*
X212734098Y-157851142D01*
X212890545Y-158007588D01*
X213066991Y-157831142D01*
X213037154Y-157801305D01*
X213270545Y-157801305D01*
X213270545Y-157860979D01*
X213293381Y-157916110D01*
X213335577Y-157958306D01*
X213390708Y-157981142D01*
X213450382Y-157981142D01*
X213505513Y-157958306D01*
X213547709Y-157916110D01*
X213570545Y-157860979D01*
X213570545Y-157831141D01*
X213774098Y-157831141D01*
X213960663Y-158017705D01*
X213977022Y-158013322D01*
X214041210Y-158013322D01*
X214057569Y-158017705D01*
X214244134Y-157831141D01*
X214214298Y-157801305D01*
X214447689Y-157801305D01*
X214447689Y-157860979D01*
X214470525Y-157916110D01*
X214512721Y-157958306D01*
X214567852Y-157981142D01*
X214627526Y-157981142D01*
X214682657Y-157958306D01*
X214724853Y-157916110D01*
X214747689Y-157860979D01*
X214747689Y-157831141D01*
X214951242Y-157831141D01*
X215142038Y-158021936D01*
X215166197Y-158021936D01*
X215356991Y-157831142D01*
X215356991Y-157831141D01*
X215327155Y-157801305D01*
X215560545Y-157801305D01*
X215560545Y-157860979D01*
X215583381Y-157916110D01*
X215625577Y-157958306D01*
X215680708Y-157981142D01*
X215740382Y-157981142D01*
X215795513Y-157958306D01*
X215837709Y-157916110D01*
X215860545Y-157860979D01*
X215860545Y-157831141D01*
X216064098Y-157831141D01*
X216250663Y-158017705D01*
X216280544Y-157906183D01*
X216280545Y-157906182D01*
X216280545Y-157756102D01*
X216280544Y-157756100D01*
X216250662Y-157644577D01*
X216064098Y-157831141D01*
X215860545Y-157831141D01*
X215860545Y-157801305D01*
X215837709Y-157746174D01*
X215795513Y-157703978D01*
X215740382Y-157681142D01*
X215680708Y-157681142D01*
X215625577Y-157703978D01*
X215583381Y-157746174D01*
X215560545Y-157801305D01*
X215327155Y-157801305D01*
X215166197Y-157640347D01*
X215142037Y-157640347D01*
X214951242Y-157831141D01*
X214747689Y-157831141D01*
X214747689Y-157801305D01*
X214724853Y-157746174D01*
X214682657Y-157703978D01*
X214627526Y-157681142D01*
X214567852Y-157681142D01*
X214512721Y-157703978D01*
X214470525Y-157746174D01*
X214447689Y-157801305D01*
X214214298Y-157801305D01*
X214057569Y-157644576D01*
X214041208Y-157648960D01*
X213977023Y-157648960D01*
X213960663Y-157644576D01*
X213774098Y-157831141D01*
X213570545Y-157831141D01*
X213570545Y-157801305D01*
X213547709Y-157746174D01*
X213505513Y-157703978D01*
X213450382Y-157681142D01*
X213390708Y-157681142D01*
X213335577Y-157703978D01*
X213293381Y-157746174D01*
X213270545Y-157801305D01*
X213037154Y-157801305D01*
X212910544Y-157674695D01*
X212734098Y-157851142D01*
X212530545Y-157851142D01*
X212530545Y-157821305D01*
X212507709Y-157766174D01*
X212465513Y-157723978D01*
X212410382Y-157701142D01*
X212350708Y-157701142D01*
X212295577Y-157723978D01*
X212253381Y-157766174D01*
X212230545Y-157821305D01*
X211997154Y-157821305D01*
X211840425Y-157664576D01*
X211834799Y-157666084D01*
X211764949Y-157664421D01*
X211758546Y-157660087D01*
X211700662Y-157644577D01*
X211514098Y-157831141D01*
X211310545Y-157831141D01*
X211310545Y-157801305D01*
X211287709Y-157746174D01*
X211245513Y-157703978D01*
X211190382Y-157681142D01*
X211130708Y-157681142D01*
X211075577Y-157703978D01*
X211033381Y-157746174D01*
X211010545Y-157801305D01*
X210777154Y-157801305D01*
X210620426Y-157644577D01*
X210620425Y-157644577D01*
X210590545Y-157756094D01*
X208742522Y-157756094D01*
X208742835Y-157291022D01*
X210973980Y-157291022D01*
X210973980Y-157291023D01*
X211160544Y-157477587D01*
X211306989Y-157331141D01*
X212214098Y-157331141D01*
X212380545Y-157497587D01*
X212536991Y-157341140D01*
X212486873Y-157291022D01*
X213233980Y-157291022D01*
X213233980Y-157291023D01*
X213420544Y-157477587D01*
X213570561Y-157327569D01*
X214447670Y-157327569D01*
X214597689Y-157477588D01*
X214760563Y-157314714D01*
X214736871Y-157291022D01*
X215523980Y-157291022D01*
X215523980Y-157291023D01*
X215710544Y-157477587D01*
X215897108Y-157291022D01*
X215785588Y-157261142D01*
X215635497Y-157261142D01*
X215523980Y-157291022D01*
X214736871Y-157291022D01*
X214610545Y-157164695D01*
X214447670Y-157327569D01*
X213570561Y-157327569D01*
X213607108Y-157291022D01*
X213495588Y-157261142D01*
X213345497Y-157261142D01*
X213233980Y-157291022D01*
X212486873Y-157291022D01*
X212370545Y-157174695D01*
X212214098Y-157331141D01*
X211306989Y-157331141D01*
X211347108Y-157291022D01*
X211235588Y-157261142D01*
X211085497Y-157261142D01*
X210973980Y-157291022D01*
X208742835Y-157291022D01*
X208743201Y-156746094D01*
X211800545Y-156746094D01*
X211800545Y-156896185D01*
X211830425Y-157007705D01*
X212016990Y-156821141D01*
X211987154Y-156791305D01*
X212220545Y-156791305D01*
X212220545Y-156850979D01*
X212243381Y-156906110D01*
X212285577Y-156948306D01*
X212340708Y-156971142D01*
X212400382Y-156971142D01*
X212455513Y-156948306D01*
X212497709Y-156906110D01*
X212520545Y-156850979D01*
X212520545Y-156821141D01*
X212724098Y-156821141D01*
X212910663Y-157007705D01*
X212940544Y-156896183D01*
X212940545Y-156896182D01*
X212940545Y-156746101D01*
X212937864Y-156736094D01*
X214040545Y-156736094D01*
X214040545Y-156886185D01*
X214070425Y-156997705D01*
X214256990Y-156811141D01*
X214227154Y-156781305D01*
X214460545Y-156781305D01*
X214460545Y-156840979D01*
X214483381Y-156896110D01*
X214525577Y-156938306D01*
X214580708Y-156961142D01*
X214640382Y-156961142D01*
X214695513Y-156938306D01*
X214737709Y-156896110D01*
X214760545Y-156840979D01*
X214760545Y-156811141D01*
X214964098Y-156811141D01*
X215150663Y-156997705D01*
X215180544Y-156886183D01*
X215180545Y-156886182D01*
X215180545Y-156736102D01*
X215180544Y-156736100D01*
X215150662Y-156624577D01*
X214964098Y-156811141D01*
X214760545Y-156811141D01*
X214760545Y-156781305D01*
X214737709Y-156726174D01*
X214695513Y-156683978D01*
X214640382Y-156661142D01*
X214580708Y-156661142D01*
X214525577Y-156683978D01*
X214483381Y-156726174D01*
X214460545Y-156781305D01*
X214227154Y-156781305D01*
X214070426Y-156624577D01*
X214070425Y-156624577D01*
X214040545Y-156736094D01*
X212937864Y-156736094D01*
X212910662Y-156634577D01*
X212724098Y-156821141D01*
X212520545Y-156821141D01*
X212520545Y-156791305D01*
X212497709Y-156736174D01*
X212455513Y-156693978D01*
X212400382Y-156671142D01*
X212340708Y-156671142D01*
X212285577Y-156693978D01*
X212243381Y-156736174D01*
X212220545Y-156791305D01*
X211987154Y-156791305D01*
X211830426Y-156634577D01*
X211830425Y-156634577D01*
X211800545Y-156746094D01*
X208743201Y-156746094D01*
X208743510Y-156286212D01*
X208737960Y-156281022D01*
X212183980Y-156281022D01*
X212183980Y-156281023D01*
X212370544Y-156467587D01*
X212557108Y-156281022D01*
X212519785Y-156271022D01*
X214423980Y-156271022D01*
X214423980Y-156271023D01*
X214610544Y-156457587D01*
X214797108Y-156271022D01*
X214685588Y-156241142D01*
X214535497Y-156241142D01*
X214423980Y-156271022D01*
X212519785Y-156271022D01*
X212445588Y-156251142D01*
X212295497Y-156251142D01*
X212183980Y-156281022D01*
X208737960Y-156281022D01*
X198300000Y-146520000D01*
X198299999Y-146520000D01*
X198299998Y-146519999D01*
X190994780Y-146549496D01*
X190927661Y-146530082D01*
X190881694Y-146477463D01*
X190870279Y-146425220D01*
X190926932Y-121109733D01*
X190924356Y-121109732D01*
X172539864Y-121106289D01*
X172539862Y-121106289D01*
X172341909Y-121106252D01*
X171140126Y-121106027D01*
X171140124Y-121106027D01*
X170942173Y-121105990D01*
X170942170Y-121105990D01*
X169740388Y-121105765D01*
X169740385Y-121105765D01*
X169542433Y-121105729D01*
X168549513Y-121105543D01*
X168482477Y-121085846D01*
X168436732Y-121033033D01*
X168425536Y-120981543D01*
X168425536Y-120700163D01*
X169510000Y-120700163D01*
X169510000Y-120759837D01*
X169532836Y-120814968D01*
X169575032Y-120857164D01*
X169630163Y-120880000D01*
X169689837Y-120880000D01*
X169744968Y-120857164D01*
X169787164Y-120814968D01*
X169810000Y-120759837D01*
X169810000Y-120700163D01*
X170910000Y-120700163D01*
X170910000Y-120759837D01*
X170932836Y-120814968D01*
X170975032Y-120857164D01*
X171030163Y-120880000D01*
X171089837Y-120880000D01*
X171144968Y-120857164D01*
X171187164Y-120814968D01*
X171210000Y-120759837D01*
X171210000Y-120700163D01*
X172310000Y-120700163D01*
X172310000Y-120759837D01*
X172332836Y-120814968D01*
X172375032Y-120857164D01*
X172430163Y-120880000D01*
X172489837Y-120880000D01*
X172544968Y-120857164D01*
X172587164Y-120814968D01*
X172610000Y-120759837D01*
X172610000Y-120700163D01*
X172587164Y-120645032D01*
X172544968Y-120602836D01*
X172489837Y-120580000D01*
X172430163Y-120580000D01*
X172375032Y-120602836D01*
X172332836Y-120645032D01*
X172310000Y-120700163D01*
X171210000Y-120700163D01*
X171187164Y-120645032D01*
X171144968Y-120602836D01*
X171089837Y-120580000D01*
X171030163Y-120580000D01*
X170975032Y-120602836D01*
X170932836Y-120645032D01*
X170910000Y-120700163D01*
X169810000Y-120700163D01*
X169787164Y-120645032D01*
X169744968Y-120602836D01*
X169689837Y-120580000D01*
X169630163Y-120580000D01*
X169575032Y-120602836D01*
X169532836Y-120645032D01*
X169510000Y-120700163D01*
X168425536Y-120700163D01*
X168425536Y-119765763D01*
X168445221Y-119698724D01*
X168498025Y-119652969D01*
X168561281Y-119643873D01*
X168575446Y-119622673D01*
X168572773Y-119617777D01*
X168575660Y-119577424D01*
X168630163Y-119600000D01*
X168689837Y-119600000D01*
X168744968Y-119577164D01*
X168787164Y-119534968D01*
X168810000Y-119479837D01*
X168810000Y-119420163D01*
X169510000Y-119420163D01*
X169510000Y-119479837D01*
X169532836Y-119534968D01*
X169575032Y-119577164D01*
X169630163Y-119600000D01*
X169689837Y-119600000D01*
X169744968Y-119577164D01*
X169787164Y-119534968D01*
X169810000Y-119479837D01*
X169810000Y-119420163D01*
X170910000Y-119420163D01*
X170910000Y-119479837D01*
X170932836Y-119534968D01*
X170975032Y-119577164D01*
X171030163Y-119600000D01*
X171089837Y-119600000D01*
X171144968Y-119577164D01*
X171187164Y-119534968D01*
X171210000Y-119479837D01*
X171210000Y-119420163D01*
X172310000Y-119420163D01*
X172310000Y-119479837D01*
X172332836Y-119534968D01*
X172375032Y-119577164D01*
X172430163Y-119600000D01*
X172489837Y-119600000D01*
X172544968Y-119577164D01*
X172587164Y-119534968D01*
X172610000Y-119479837D01*
X172610000Y-119420163D01*
X173310000Y-119420163D01*
X173310000Y-119479837D01*
X173332836Y-119534968D01*
X173375032Y-119577164D01*
X173430163Y-119600000D01*
X173489837Y-119600000D01*
X173544968Y-119577164D01*
X173587164Y-119534968D01*
X173610000Y-119479837D01*
X173610000Y-119420163D01*
X173587164Y-119365032D01*
X173544968Y-119322836D01*
X173489837Y-119300000D01*
X173430163Y-119300000D01*
X173375032Y-119322836D01*
X173332836Y-119365032D01*
X173310000Y-119420163D01*
X172610000Y-119420163D01*
X172587164Y-119365032D01*
X172544968Y-119322836D01*
X172489837Y-119300000D01*
X172430163Y-119300000D01*
X172375032Y-119322836D01*
X172332836Y-119365032D01*
X172310000Y-119420163D01*
X171210000Y-119420163D01*
X171187164Y-119365032D01*
X171144968Y-119322836D01*
X171089837Y-119300000D01*
X171030163Y-119300000D01*
X170975032Y-119322836D01*
X170932836Y-119365032D01*
X170910000Y-119420163D01*
X169810000Y-119420163D01*
X169787164Y-119365032D01*
X169744968Y-119322836D01*
X169689837Y-119300000D01*
X169630163Y-119300000D01*
X169575032Y-119322836D01*
X169532836Y-119365032D01*
X169510000Y-119420163D01*
X168810000Y-119420163D01*
X168787164Y-119365032D01*
X168744968Y-119322836D01*
X168689837Y-119300000D01*
X168630163Y-119300000D01*
X168575032Y-119322836D01*
X168558462Y-119339405D01*
X168454039Y-119213330D01*
X168443283Y-119188319D01*
X168429389Y-119164904D01*
X168427810Y-119152340D01*
X168426436Y-119149144D01*
X168426990Y-119145813D01*
X168425536Y-119134233D01*
X168425536Y-118140163D01*
X169510000Y-118140163D01*
X169510000Y-118199837D01*
X169532836Y-118254968D01*
X169575032Y-118297164D01*
X169630163Y-118320000D01*
X169689837Y-118320000D01*
X169744968Y-118297164D01*
X169787164Y-118254968D01*
X169810000Y-118199837D01*
X169810000Y-118140163D01*
X170910000Y-118140163D01*
X170910000Y-118199837D01*
X170932836Y-118254968D01*
X170975032Y-118297164D01*
X171030163Y-118320000D01*
X171089837Y-118320000D01*
X171144968Y-118297164D01*
X171187164Y-118254968D01*
X171210000Y-118199837D01*
X171210000Y-118140163D01*
X172310000Y-118140163D01*
X172310000Y-118199837D01*
X172332836Y-118254968D01*
X172375032Y-118297164D01*
X172430163Y-118320000D01*
X172489837Y-118320000D01*
X172544968Y-118297164D01*
X172587164Y-118254968D01*
X172610000Y-118199837D01*
X172610000Y-118140163D01*
X172587164Y-118085032D01*
X172544968Y-118042836D01*
X172489837Y-118020000D01*
X172430163Y-118020000D01*
X172375032Y-118042836D01*
X172332836Y-118085032D01*
X172310000Y-118140163D01*
X171210000Y-118140163D01*
X171187164Y-118085032D01*
X171144968Y-118042836D01*
X171089837Y-118020000D01*
X171030163Y-118020000D01*
X170975032Y-118042836D01*
X170932836Y-118085032D01*
X170910000Y-118140163D01*
X169810000Y-118140163D01*
X169787164Y-118085032D01*
X169744968Y-118042836D01*
X169689837Y-118020000D01*
X169630163Y-118020000D01*
X169575032Y-118042836D01*
X169532836Y-118085032D01*
X169510000Y-118140163D01*
X168425536Y-118140163D01*
X168425536Y-117939535D01*
X168445221Y-117872496D01*
X168498025Y-117826741D01*
X168549495Y-117815535D01*
X175105536Y-117813430D01*
X175105536Y-100869536D01*
X175125221Y-100802497D01*
X175178025Y-100756742D01*
X175229536Y-100745536D01*
X176888108Y-100745536D01*
X176888109Y-100745536D01*
X176852950Y-90224999D01*
X176851651Y-89836249D01*
X176846807Y-88386930D01*
X181541378Y-88386930D01*
X181541378Y-88613069D01*
X181570893Y-88837244D01*
X181570895Y-88837255D01*
X181629419Y-89055672D01*
X181629422Y-89055682D01*
X181715951Y-89264581D01*
X181715956Y-89264592D01*
X181829009Y-89460404D01*
X181829015Y-89460412D01*
X181882589Y-89530233D01*
X182439851Y-88972971D01*
X182528465Y-89105590D01*
X182660788Y-89237913D01*
X182793405Y-89326525D01*
X182236143Y-89883787D01*
X182236143Y-89883788D01*
X182305956Y-89937356D01*
X182305964Y-89937361D01*
X182501792Y-90050424D01*
X182501796Y-90050426D01*
X182710695Y-90136955D01*
X182710705Y-90136958D01*
X182929122Y-90195482D01*
X182929133Y-90195484D01*
X183153308Y-90224999D01*
X183153323Y-90225000D01*
X183379433Y-90225000D01*
X183379447Y-90224999D01*
X183603622Y-90195484D01*
X183603633Y-90195482D01*
X183822050Y-90136958D01*
X183822060Y-90136955D01*
X184030959Y-90050426D01*
X184030970Y-90050421D01*
X184226785Y-89937366D01*
X184226793Y-89937360D01*
X184296611Y-89883787D01*
X183739349Y-89326525D01*
X183871968Y-89237913D01*
X184004291Y-89105590D01*
X184092903Y-88972971D01*
X184650165Y-89530233D01*
X184703738Y-89460415D01*
X184703744Y-89460407D01*
X184816799Y-89264592D01*
X184816804Y-89264581D01*
X184903333Y-89055682D01*
X184903336Y-89055672D01*
X184961860Y-88837255D01*
X184961862Y-88837244D01*
X184991377Y-88613069D01*
X184991378Y-88613055D01*
X184991378Y-88386944D01*
X184991377Y-88386930D01*
X189041378Y-88386930D01*
X189041378Y-88613069D01*
X189070893Y-88837244D01*
X189070895Y-88837255D01*
X189129419Y-89055672D01*
X189129422Y-89055682D01*
X189215951Y-89264581D01*
X189215956Y-89264592D01*
X189329009Y-89460404D01*
X189329015Y-89460412D01*
X189382589Y-89530233D01*
X189939851Y-88972971D01*
X190028465Y-89105590D01*
X190160788Y-89237913D01*
X190293405Y-89326525D01*
X189736143Y-89883787D01*
X189736143Y-89883788D01*
X189805956Y-89937356D01*
X189805964Y-89937361D01*
X190001792Y-90050424D01*
X190001796Y-90050426D01*
X190210695Y-90136955D01*
X190210705Y-90136958D01*
X190429122Y-90195482D01*
X190429133Y-90195484D01*
X190653308Y-90224999D01*
X190653323Y-90225000D01*
X190879433Y-90225000D01*
X190879447Y-90224999D01*
X191103622Y-90195484D01*
X191103633Y-90195482D01*
X191322050Y-90136958D01*
X191322060Y-90136955D01*
X191530959Y-90050426D01*
X191530970Y-90050421D01*
X191726785Y-89937366D01*
X191726793Y-89937360D01*
X191796611Y-89883787D01*
X191239349Y-89326525D01*
X191371968Y-89237913D01*
X191504291Y-89105590D01*
X191592903Y-88972971D01*
X192150165Y-89530233D01*
X192203738Y-89460415D01*
X192203744Y-89460407D01*
X192316799Y-89264592D01*
X192316804Y-89264581D01*
X192403333Y-89055682D01*
X192403336Y-89055672D01*
X192461860Y-88837255D01*
X192461862Y-88837244D01*
X192491377Y-88613069D01*
X192491378Y-88613055D01*
X192491378Y-88386944D01*
X192491377Y-88386930D01*
X192461862Y-88162755D01*
X192461860Y-88162744D01*
X192403336Y-87944327D01*
X192403333Y-87944317D01*
X192316804Y-87735418D01*
X192316802Y-87735414D01*
X192203739Y-87539586D01*
X192203734Y-87539578D01*
X192150165Y-87469765D01*
X191592903Y-88027027D01*
X191504291Y-87894410D01*
X191371968Y-87762087D01*
X191239349Y-87673474D01*
X191796611Y-87116211D01*
X191796611Y-87116210D01*
X191726790Y-87062637D01*
X191726782Y-87062631D01*
X191530970Y-86949578D01*
X191530959Y-86949573D01*
X191322060Y-86863044D01*
X191322050Y-86863041D01*
X191103633Y-86804517D01*
X191103622Y-86804515D01*
X190879447Y-86775000D01*
X190653308Y-86775000D01*
X190429133Y-86804515D01*
X190429122Y-86804517D01*
X190210705Y-86863041D01*
X190210695Y-86863044D01*
X190001796Y-86949573D01*
X190001785Y-86949578D01*
X189805971Y-87062632D01*
X189805956Y-87062642D01*
X189736142Y-87116211D01*
X190293405Y-87673474D01*
X190160788Y-87762087D01*
X190028465Y-87894410D01*
X189939852Y-88027027D01*
X189382589Y-87469764D01*
X189329020Y-87539578D01*
X189329010Y-87539593D01*
X189215956Y-87735407D01*
X189215951Y-87735418D01*
X189129422Y-87944317D01*
X189129419Y-87944327D01*
X189070895Y-88162744D01*
X189070893Y-88162755D01*
X189041378Y-88386930D01*
X184991377Y-88386930D01*
X184961862Y-88162755D01*
X184961860Y-88162744D01*
X184903336Y-87944327D01*
X184903333Y-87944317D01*
X184816804Y-87735418D01*
X184816802Y-87735414D01*
X184703739Y-87539586D01*
X184703734Y-87539578D01*
X184650165Y-87469765D01*
X184092903Y-88027027D01*
X184004291Y-87894410D01*
X183871968Y-87762087D01*
X183739349Y-87673474D01*
X184296611Y-87116211D01*
X184296611Y-87116210D01*
X184226790Y-87062637D01*
X184226782Y-87062631D01*
X184030970Y-86949578D01*
X184030959Y-86949573D01*
X183822060Y-86863044D01*
X183822050Y-86863041D01*
X183603633Y-86804517D01*
X183603622Y-86804515D01*
X183379447Y-86775000D01*
X183153308Y-86775000D01*
X182929133Y-86804515D01*
X182929122Y-86804517D01*
X182710705Y-86863041D01*
X182710695Y-86863044D01*
X182501796Y-86949573D01*
X182501785Y-86949578D01*
X182305971Y-87062632D01*
X182305956Y-87062642D01*
X182236142Y-87116211D01*
X182793405Y-87673474D01*
X182660788Y-87762087D01*
X182528465Y-87894410D01*
X182439852Y-88027027D01*
X181882589Y-87469764D01*
X181829020Y-87539578D01*
X181829010Y-87539593D01*
X181715956Y-87735407D01*
X181715951Y-87735418D01*
X181629422Y-87944317D01*
X181629419Y-87944327D01*
X181570895Y-88162744D01*
X181570893Y-88162755D01*
X181541378Y-88386930D01*
X176846807Y-88386930D01*
X176846795Y-88383293D01*
X176842722Y-87164578D01*
X176842003Y-86949578D01*
X176827129Y-82498886D01*
X176846589Y-82431784D01*
X176899240Y-82385852D01*
X176951348Y-82374474D01*
X181704904Y-82382943D01*
G37*
%TD.AperFunction*%
%TD*%
%TA.AperFunction,Conductor*%
%TO.N,/stack5/GND2*%
G36*
X196453210Y-148081601D02*
G01*
X196499154Y-148134240D01*
X196510545Y-148186156D01*
X196510545Y-157622142D01*
X196490860Y-157689181D01*
X196438056Y-157734936D01*
X196386545Y-157746142D01*
X187584545Y-157746142D01*
X187517506Y-157726457D01*
X187471751Y-157673653D01*
X187460545Y-157622142D01*
X187460545Y-155776142D01*
X187460544Y-155776141D01*
X186955526Y-155775893D01*
X186888496Y-155756175D01*
X186886696Y-155754995D01*
X186776046Y-155681061D01*
X186776033Y-155681054D01*
X186639462Y-155624485D01*
X186639452Y-155624482D01*
X186494465Y-155595642D01*
X186494463Y-155595642D01*
X186346627Y-155595642D01*
X186346625Y-155595642D01*
X186201637Y-155624482D01*
X186201627Y-155624485D01*
X186065056Y-155681054D01*
X186065042Y-155681062D01*
X186044203Y-155694986D01*
X185977525Y-155715862D01*
X185910146Y-155697376D01*
X185872212Y-155660771D01*
X185863496Y-155647726D01*
X185863495Y-155647725D01*
X185863493Y-155647722D01*
X185758964Y-155543193D01*
X185758960Y-155543190D01*
X185636046Y-155461061D01*
X185636033Y-155461054D01*
X185499462Y-155404485D01*
X185499452Y-155404482D01*
X185354465Y-155375642D01*
X185354463Y-155375642D01*
X185206627Y-155375642D01*
X185206625Y-155375642D01*
X185061637Y-155404482D01*
X185061627Y-155404485D01*
X184925056Y-155461054D01*
X184925043Y-155461061D01*
X184802129Y-155543190D01*
X184802125Y-155543193D01*
X184697596Y-155647722D01*
X184697591Y-155647728D01*
X184649565Y-155719603D01*
X184595952Y-155764408D01*
X184546403Y-155774711D01*
X174943232Y-155770001D01*
X174940000Y-155770000D01*
X174939999Y-155770000D01*
X174928906Y-159046364D01*
X174919469Y-159093395D01*
X174888886Y-159167231D01*
X174888885Y-159167235D01*
X174860045Y-159312221D01*
X174860045Y-159312224D01*
X174860045Y-159460060D01*
X174860045Y-159460062D01*
X174860044Y-159460062D01*
X174888885Y-159605049D01*
X174888888Y-159605059D01*
X174917183Y-159673370D01*
X174926621Y-159721242D01*
X174925390Y-160084853D01*
X174915953Y-160131884D01*
X174888887Y-160197229D01*
X174888885Y-160197234D01*
X174860045Y-160342221D01*
X174860045Y-160342224D01*
X174860045Y-160490060D01*
X174860045Y-160490062D01*
X174860044Y-160490062D01*
X174888885Y-160635049D01*
X174888888Y-160635059D01*
X174913724Y-160695019D01*
X174923162Y-160742891D01*
X174922147Y-161042682D01*
X174912710Y-161089712D01*
X174888887Y-161147228D01*
X174888885Y-161147235D01*
X174860045Y-161292221D01*
X174860045Y-161391115D01*
X174840360Y-161458154D01*
X174787556Y-161503909D01*
X174735357Y-161515113D01*
X166033579Y-161466824D01*
X165966650Y-161446768D01*
X165921189Y-161393711D01*
X165910267Y-161343108D01*
X165880865Y-148295506D01*
X165900399Y-148228424D01*
X165953099Y-148182550D01*
X166004418Y-148171229D01*
X196386102Y-148062157D01*
X196453210Y-148081601D01*
G37*
%TD.AperFunction*%
%TD*%
M02*
