M48
; DRILL file {KiCad 9.0.4} date 2025-09-25T17:26:11-0400
; FORMAT={-:-/ absolute / metric / decimal}
; #@! TF.CreationDate,2025-09-25T17:26:11-04:00
; #@! TF.GenerationSoftware,Kicad,Pcbnew,9.0.4
; #@! TF.FileFunction,Plated,1,6,PTH
FMAT,2
METRIC
; #@! TA.AperFunction,Plated,PTH,ViaDrill
T1C0.300
; #@! TA.AperFunction,Plated,PTH,ComponentDrill
T2C0.300
; #@! TA.AperFunction,Plated,PTH,ViaDrill
T3C0.400
; #@! TA.AperFunction,Plated,PTH,ViaDrill
T4C0.600
; #@! TA.AperFunction,Plated,PTH,ComponentDrill
T5C0.600
; #@! TA.AperFunction,Plated,PTH,ComponentDrill
T6C1.000
; #@! TA.AperFunction,Plated,PTH,ComponentDrill
T7C1.900
; #@! TA.AperFunction,Plated,PTH,ComponentDrill
T8C3.200
%
G90
G05
T1
X128.05Y-172.901
X128.847Y-173.497
X128.895Y-180.241
X129.75Y-173.501
X129.855Y-180.241
X135.061Y-160.224
X135.941Y-159.916
X136.991Y-159.886
X136.991Y-168.546
X136.991Y-173.756
X136.991Y-182.336
X136.991Y-187.046
X137.131Y-154.426
X138.051Y-178.846
X138.091Y-181.276
X138.911Y-178.866
X138.951Y-181.276
X139.161Y-186.416
X139.391Y-159.496
X139.901Y-178.866
X139.901Y-181.166
X140.911Y-178.866
X140.961Y-181.246
X141.941Y-181.256
X142.001Y-177.056
X142.041Y-178.996
X142.241Y-192.406
X142.551Y-164.086
X143.191Y-186.836
X143.211Y-192.536
X143.271Y-175.036
X143.311Y-169.926
X143.371Y-177.826
X143.541Y-164.136
X143.781Y-156.046
X143.801Y-183.206
X144.721Y-181.646
X144.734Y-180.836
X144.881Y-167.936
X144.894Y-167.136
X145.007Y-192.816
X145.014Y-193.676
X145.041Y-153.946
X145.051Y-153.126
X145.071Y-152.206
X145.081Y-151.386
X145.761Y-181.646
X145.774Y-180.836
X145.804Y-167.936
X145.817Y-167.136
X145.949Y-192.816
X145.956Y-193.676
X145.986Y-153.936
X145.996Y-153.126
X146.016Y-152.196
X146.026Y-151.386
X146.727Y-167.936
X146.741Y-167.136
X146.801Y-181.646
X146.814Y-180.836
X146.854Y-192.816
X146.861Y-193.676
X146.931Y-153.936
X146.941Y-153.126
X146.961Y-152.196
X146.971Y-151.386
X147.651Y-167.936
X147.664Y-167.136
X147.796Y-192.816
X147.802Y-193.676
X147.841Y-181.646
X147.854Y-180.836
X147.876Y-153.936
X147.886Y-153.126
X147.906Y-152.196
X147.916Y-151.386
X148.574Y-167.936
X148.587Y-167.136
X148.737Y-192.816
X148.744Y-193.676
X148.821Y-153.936
X148.831Y-153.126
X148.851Y-152.196
X148.861Y-151.386
X148.881Y-181.646
X148.894Y-180.836
X149.497Y-167.936
X149.511Y-167.136
X149.679Y-192.816
X149.686Y-193.676
X149.766Y-153.936
X149.776Y-153.126
X149.796Y-152.196
X149.806Y-151.386
X149.921Y-181.646
X149.934Y-180.836
X150.421Y-167.936
X150.434Y-167.136
X150.621Y-192.816
X150.627Y-193.676
X150.711Y-153.936
X150.721Y-153.126
X150.741Y-152.196
X150.751Y-151.386
X150.961Y-181.646
X150.974Y-180.836
X151.313Y-167.93
X151.327Y-167.13
X151.562Y-192.816
X151.565Y-153.95
X151.569Y-193.676
X151.575Y-153.14
X151.595Y-152.21
X151.605Y-151.4
X152.504Y-192.806
X152.51Y-153.95
X152.511Y-193.666
X152.52Y-153.14
X152.54Y-152.21
X152.55Y-151.4
X153.861Y-169.706
X153.947Y-174.08
X153.951Y-183.646
X153.97Y-172.197
X153.971Y-171.376
X153.971Y-172.986
X153.971Y-184.466
X153.971Y-185.346
X153.971Y-186.396
X153.991Y-187.686
X154.031Y-170.556
X154.041Y-182.596
X154.051Y-156.276
X155.005Y-170.171
X155.101Y-156.366
X156.731Y-185.996
X156.731Y-188.026
X156.741Y-187.076
X156.771Y-185.056
X156.783Y-160.486
X156.831Y-171.696
X156.883Y-184.253
X157.041Y-172.426
X157.061Y-173.436
X157.071Y-174.446
X157.071Y-175.456
X157.731Y-190.806
X158.143Y-154.621
X159.043Y-151.864
X159.42Y-95.39
X159.42Y-96.03
X159.42Y-96.63
X159.42Y-97.31
X159.42Y-97.95
X159.42Y-98.55
X160.04Y-95.39
X160.04Y-96.03
X160.04Y-96.63
X160.04Y-97.31
X160.04Y-97.95
X160.04Y-98.55
X160.251Y-190.806
X160.351Y-186.326
X160.66Y-95.39
X160.66Y-96.03
X160.66Y-96.63
X160.66Y-97.31
X160.66Y-97.95
X160.66Y-98.55
X161.112Y-157.687
X161.261Y-156.386
X161.28Y-95.39
X161.28Y-96.03
X161.28Y-96.63
X161.28Y-97.31
X161.28Y-97.95
X161.28Y-98.55
X161.35Y-125.01
X161.95Y-95.39
X161.95Y-96.03
X161.95Y-96.63
X161.95Y-97.31
X161.95Y-97.95
X161.95Y-98.55
X162.005Y-93.455
X162.081Y-160.536
X162.101Y-157.476
X162.121Y-158.476
X162.121Y-159.506
X162.136Y-124.406
X162.361Y-161.522
X162.474Y-122.773
X162.57Y-95.39
X162.57Y-96.03
X162.57Y-96.63
X162.57Y-97.31
X162.57Y-97.95
X162.57Y-98.55
X162.821Y-182.816
X163.19Y-95.39
X163.19Y-96.03
X163.19Y-96.63
X163.19Y-97.31
X163.19Y-97.95
X163.19Y-98.55
X163.351Y-185.236
X163.8Y-118.49
X163.81Y-95.39
X163.81Y-96.03
X163.81Y-96.63
X163.81Y-97.31
X163.81Y-97.95
X163.81Y-98.55
X163.961Y-157.466
X163.961Y-158.48
X163.961Y-159.494
X163.961Y-160.508
X163.961Y-161.522
X163.981Y-154.866
X164.221Y-185.566
X164.39Y-114.36
X164.45Y-95.37
X164.45Y-96.01
X164.45Y-96.61
X164.45Y-97.29
X164.45Y-97.93
X164.45Y-98.53
X164.555Y-93.38
X164.646Y-182.791
X165.051Y-154.846
X165.07Y-95.37
X165.07Y-96.01
X165.07Y-96.61
X165.07Y-97.29
X165.07Y-97.93
X165.07Y-98.53
X165.191Y-164.076
X165.221Y-177.076
X165.301Y-172.586
X165.491Y-190.726
X165.63Y-120.07
X165.69Y-95.37
X165.69Y-96.01
X165.69Y-96.61
X165.69Y-97.29
X165.69Y-97.93
X165.69Y-98.53
X165.73Y-115.96
X165.73Y-126.08
X166.31Y-95.37
X166.31Y-96.01
X166.31Y-96.61
X166.31Y-97.29
X166.31Y-97.93
X166.31Y-98.53
X166.68Y-113.87
X166.84Y-179.88
X166.853Y-179.02
X166.86Y-166.26
X166.873Y-165.4
X166.98Y-95.37
X166.98Y-96.01
X166.98Y-96.61
X166.98Y-97.29
X166.98Y-97.93
X166.98Y-98.53
X167.005Y-119.7
X167.134Y-192.766
X167.141Y-193.626
X167.411Y-154.136
X167.424Y-153.276
X167.6Y-95.37
X167.6Y-96.01
X167.6Y-96.61
X167.6Y-97.29
X167.6Y-97.93
X167.6Y-98.53
X167.815Y-179.87
X167.825Y-166.25
X167.828Y-179.01
X167.838Y-165.39
X168.01Y-114.36
X168.076Y-192.766
X168.082Y-193.626
X168.22Y-95.37
X168.22Y-96.01
X168.22Y-96.61
X168.22Y-97.29
X168.22Y-97.93
X168.22Y-98.53
X168.497Y-154.136
X168.552Y-153.276
X168.79Y-166.25
X168.79Y-179.87
X168.803Y-165.39
X168.803Y-179.01
X168.84Y-95.37
X168.84Y-96.01
X168.84Y-96.61
X168.84Y-97.29
X168.84Y-97.93
X168.84Y-98.53
X169.017Y-192.766
X169.024Y-193.626
X169.09Y-113.69
X169.21Y-104.13
X169.21Y-104.77
X169.21Y-105.37
X169.584Y-154.136
X169.681Y-153.276
X169.71Y-123.623
X169.729Y-116.278
X169.755Y-166.25
X169.765Y-179.87
X169.768Y-165.39
X169.778Y-179.01
X169.959Y-192.766
X169.966Y-193.626
X170.06Y-114.37
X170.308Y-104.13
X170.308Y-104.77
X170.308Y-105.37
X170.671Y-154.136
X170.72Y-166.25
X170.733Y-165.39
X170.74Y-179.87
X170.753Y-179.01
X170.801Y-135.666
X170.809Y-153.276
X170.811Y-134.846
X170.831Y-137.406
X170.841Y-136.586
X170.901Y-192.766
X170.907Y-193.626
X171.27Y-95.28
X171.405Y-104.13
X171.405Y-104.77
X171.405Y-105.37
X171.58Y-97.91
X171.685Y-166.25
X171.698Y-165.39
X171.715Y-179.87
X171.728Y-179.01
X171.746Y-135.656
X171.756Y-134.846
X171.757Y-154.136
X171.776Y-137.396
X171.786Y-136.586
X171.842Y-192.766
X171.849Y-193.626
X171.937Y-153.276
X172.1Y-114.0
X172.1Y-114.64
X172.1Y-115.24
X172.11Y-115.87
X172.11Y-116.5
X172.49Y-125.93
X172.502Y-104.13
X172.502Y-104.77
X172.502Y-105.37
X172.51Y-122.26
X172.512Y-122.99
X172.512Y-124.55
X172.512Y-125.23
X172.542Y-123.79
X172.65Y-166.25
X172.663Y-165.39
X172.69Y-179.87
X172.691Y-135.656
X172.701Y-134.846
X172.703Y-179.01
X172.72Y-114.0
X172.72Y-114.64
X172.72Y-115.24
X172.721Y-137.396
X172.73Y-115.87
X172.73Y-116.5
X172.731Y-136.586
X172.784Y-192.756
X172.791Y-193.616
X172.844Y-154.136
X173.066Y-153.276
X173.191Y-125.93
X173.211Y-122.26
X173.214Y-122.99
X173.214Y-124.55
X173.214Y-125.23
X173.244Y-123.79
X173.34Y-114.0
X173.34Y-114.64
X173.34Y-115.24
X173.35Y-115.87
X173.35Y-116.5
X173.6Y-104.13
X173.6Y-104.77
X173.6Y-105.37
X173.636Y-135.656
X173.646Y-134.846
X173.666Y-137.396
X173.676Y-136.586
X173.83Y-98.805
X173.893Y-125.93
X173.913Y-122.26
X173.915Y-122.99
X173.915Y-124.55
X173.915Y-125.23
X173.931Y-154.136
X173.945Y-123.79
X173.96Y-114.0
X173.96Y-114.64
X173.96Y-115.24
X173.97Y-115.87
X173.97Y-116.5
X174.581Y-135.656
X174.591Y-134.846
X174.594Y-125.93
X174.611Y-137.396
X174.614Y-122.26
X174.616Y-122.99
X174.616Y-124.55
X174.616Y-125.23
X174.62Y-118.21
X174.62Y-118.88
X174.62Y-119.5
X174.62Y-120.12
X174.62Y-120.74
X174.621Y-136.586
X174.646Y-123.79
X175.26Y-118.21
X175.26Y-118.88
X175.26Y-119.5
X175.26Y-120.12
X175.26Y-120.74
X175.295Y-125.93
X175.315Y-122.26
X175.318Y-122.99
X175.318Y-124.55
X175.318Y-125.23
X175.348Y-123.79
X175.351Y-177.076
X175.423Y-164.274
X175.526Y-135.656
X175.536Y-134.846
X175.556Y-137.396
X175.566Y-136.586
X175.571Y-170.276
X175.611Y-159.386
X175.611Y-160.416
X175.611Y-161.366
X175.611Y-162.376
X175.611Y-163.376
X175.681Y-186.856
X175.681Y-187.616
X175.681Y-188.386
X175.681Y-189.166
X175.681Y-189.986
X175.69Y-104.14
X175.69Y-104.78
X175.69Y-105.38
X175.86Y-118.21
X175.86Y-118.88
X175.86Y-119.5
X175.86Y-120.12
X175.86Y-120.74
X175.961Y-190.696
X175.997Y-125.93
X176.017Y-122.26
X176.019Y-122.99
X176.019Y-124.55
X176.019Y-125.23
X176.049Y-123.79
X176.471Y-135.656
X176.481Y-134.846
X176.501Y-137.396
X176.511Y-136.586
X176.646Y-157.066
X176.698Y-125.93
X176.718Y-122.26
X176.72Y-122.99
X176.72Y-124.55
X176.72Y-125.23
X176.75Y-123.79
X176.787Y-104.14
X176.787Y-104.78
X176.787Y-105.38
X177.325Y-135.67
X177.335Y-134.86
X177.355Y-137.41
X177.365Y-136.6
X177.4Y-125.93
X177.42Y-122.26
X177.422Y-122.99
X177.422Y-124.55
X177.422Y-125.23
X177.452Y-123.79
X177.696Y-176.041
X177.885Y-104.14
X177.885Y-104.78
X177.885Y-105.38
X178.101Y-125.93
X178.121Y-122.26
X178.123Y-122.99
X178.123Y-124.55
X178.123Y-125.23
X178.153Y-123.79
X178.196Y-163.416
X178.201Y-159.396
X178.201Y-160.386
X178.201Y-161.396
X178.201Y-162.396
X178.221Y-158.116
X178.27Y-135.67
X178.28Y-134.86
X178.3Y-137.41
X178.31Y-136.6
X178.611Y-185.786
X178.611Y-186.806
X178.611Y-187.876
X178.611Y-188.866
X178.611Y-189.936
X178.802Y-125.93
X178.822Y-122.26
X178.825Y-122.99
X178.825Y-124.55
X178.825Y-125.23
X178.855Y-123.79
X178.982Y-104.14
X178.982Y-104.78
X178.982Y-105.38
X179.131Y-135.666
X179.141Y-134.846
X179.161Y-137.406
X179.171Y-136.586
X179.504Y-125.93
X179.524Y-122.26
X179.526Y-122.99
X179.526Y-124.55
X179.526Y-125.23
X179.556Y-123.79
X180.076Y-135.656
X180.08Y-104.14
X180.08Y-104.78
X180.08Y-105.38
X180.086Y-134.846
X180.106Y-137.396
X180.116Y-136.586
X180.205Y-125.93
X180.225Y-122.26
X180.227Y-122.99
X180.227Y-124.55
X180.227Y-125.23
X180.257Y-123.79
X180.906Y-125.93
X180.926Y-122.26
X180.929Y-122.99
X180.929Y-124.55
X180.929Y-125.23
X180.959Y-123.79
X181.021Y-135.656
X181.031Y-134.846
X181.031Y-172.856
X181.051Y-137.396
X181.061Y-136.586
X181.111Y-189.266
X181.331Y-184.386
X181.608Y-125.93
X181.628Y-122.26
X181.63Y-122.99
X181.63Y-124.55
X181.63Y-125.23
X181.66Y-123.79
X181.901Y-187.986
X181.966Y-135.656
X181.976Y-134.846
X181.996Y-137.396
X182.006Y-136.586
X182.309Y-125.93
X182.329Y-122.26
X182.331Y-122.99
X182.331Y-124.55
X182.331Y-125.23
X182.361Y-123.79
X182.911Y-135.656
X182.921Y-134.846
X182.941Y-137.396
X182.951Y-136.586
X183.01Y-125.93
X183.03Y-122.26
X183.033Y-122.99
X183.033Y-124.55
X183.033Y-125.23
X183.063Y-123.79
X183.712Y-125.93
X183.732Y-122.26
X183.734Y-122.99
X183.734Y-124.55
X183.734Y-125.23
X183.764Y-123.79
X183.856Y-135.656
X183.866Y-134.846
X183.886Y-137.396
X183.896Y-136.586
X184.134Y-185.526
X184.181Y-186.316
X184.221Y-187.066
X184.221Y-187.991
X184.221Y-188.916
X184.413Y-125.93
X184.433Y-122.26
X184.435Y-122.99
X184.435Y-124.55
X184.435Y-125.23
X184.465Y-123.79
X184.801Y-135.656
X184.811Y-134.846
X184.831Y-137.396
X184.841Y-136.586
X185.021Y-193.026
X185.115Y-125.93
X185.135Y-122.26
X185.137Y-122.99
X185.137Y-124.55
X185.137Y-125.23
X185.167Y-123.79
X185.281Y-156.126
X185.655Y-135.67
X185.665Y-134.86
X185.685Y-137.41
X185.695Y-136.6
X185.816Y-125.94
X185.836Y-122.27
X185.838Y-123.0
X185.838Y-124.56
X185.838Y-125.24
X185.868Y-123.8
X186.071Y-193.036
X186.231Y-162.456
X186.421Y-156.346
X186.441Y-170.006
X186.517Y-125.94
X186.537Y-122.27
X186.54Y-123.0
X186.54Y-124.56
X186.54Y-125.24
X186.57Y-123.8
X186.6Y-135.67
X186.61Y-134.86
X186.617Y-188.458
X186.63Y-137.41
X186.64Y-136.6
X186.701Y-183.366
X186.721Y-176.716
X186.791Y-186.606
X186.811Y-185.796
X186.821Y-184.136
X186.851Y-184.906
X187.219Y-125.94
X187.239Y-122.27
X187.241Y-123.0
X187.241Y-124.56
X187.241Y-125.24
X187.271Y-123.8
X187.711Y-181.706
X187.721Y-180.766
X187.731Y-154.286
X187.744Y-153.426
X187.821Y-167.136
X187.821Y-167.976
X187.92Y-125.94
X187.94Y-122.27
X187.941Y-193.736
X187.942Y-123.0
X187.942Y-124.56
X187.942Y-125.24
X187.951Y-192.826
X187.972Y-123.8
X188.727Y-181.696
X188.737Y-180.756
X188.817Y-154.286
X188.872Y-153.426
X188.891Y-167.136
X188.891Y-167.976
X189.007Y-193.726
X189.017Y-192.816
X189.744Y-181.696
X189.754Y-180.756
X189.904Y-154.286
X189.961Y-167.136
X189.961Y-167.976
X190.001Y-153.426
X190.074Y-193.726
X190.084Y-192.816
X190.761Y-181.696
X190.771Y-180.756
X190.991Y-154.286
X191.031Y-167.136
X191.031Y-167.976
X191.129Y-153.426
X191.141Y-193.726
X191.151Y-192.816
X191.777Y-181.696
X191.787Y-180.756
X192.077Y-154.286
X192.101Y-167.136
X192.101Y-167.976
X192.15Y-122.24
X192.15Y-122.86
X192.15Y-123.48
X192.15Y-124.1
X192.15Y-124.77
X192.15Y-125.39
X192.15Y-126.01
X192.15Y-126.63
X192.15Y-127.31
X192.15Y-127.93
X192.15Y-128.55
X192.15Y-129.17
X192.15Y-129.84
X192.15Y-130.46
X192.15Y-131.08
X192.15Y-131.7
X192.15Y-132.34
X192.15Y-132.96
X192.15Y-133.58
X192.15Y-134.2
X192.15Y-134.87
X192.15Y-135.49
X192.15Y-136.11
X192.15Y-136.73
X192.15Y-137.41
X192.15Y-138.03
X192.15Y-138.65
X192.15Y-139.27
X192.15Y-139.94
X192.15Y-140.56
X192.15Y-141.18
X192.15Y-141.8
X192.207Y-193.726
X192.217Y-192.816
X192.257Y-153.426
X192.79Y-122.24
X192.79Y-122.86
X192.79Y-123.48
X192.79Y-124.1
X192.79Y-124.77
X192.79Y-125.39
X192.79Y-126.01
X192.79Y-126.63
X192.79Y-127.31
X192.79Y-127.93
X192.79Y-128.55
X192.79Y-129.17
X192.79Y-129.84
X192.79Y-130.46
X192.79Y-131.08
X192.79Y-131.7
X192.79Y-132.34
X192.79Y-132.96
X192.79Y-133.58
X192.79Y-134.2
X192.79Y-134.87
X192.79Y-135.49
X192.79Y-136.11
X192.79Y-136.73
X192.79Y-137.41
X192.79Y-138.03
X192.79Y-138.65
X192.79Y-139.27
X192.79Y-139.94
X192.79Y-140.56
X192.79Y-141.18
X192.79Y-141.8
X192.794Y-181.696
X192.804Y-180.756
X193.164Y-154.286
X193.171Y-167.136
X193.171Y-167.976
X193.274Y-193.726
X193.284Y-192.816
X193.386Y-153.426
X193.39Y-122.24
X193.39Y-122.86
X193.39Y-123.48
X193.39Y-124.1
X193.39Y-124.77
X193.39Y-125.39
X193.39Y-126.01
X193.39Y-126.63
X193.39Y-127.31
X193.39Y-127.93
X193.39Y-128.55
X193.39Y-129.17
X193.39Y-129.84
X193.39Y-130.46
X193.39Y-131.08
X193.39Y-131.7
X193.39Y-132.34
X193.39Y-132.96
X193.39Y-133.58
X193.39Y-134.2
X193.39Y-134.87
X193.39Y-135.49
X193.39Y-136.11
X193.39Y-136.73
X193.39Y-137.41
X193.39Y-138.03
X193.39Y-138.65
X193.39Y-139.27
X193.39Y-139.94
X193.39Y-140.56
X193.39Y-141.18
X193.39Y-141.8
X193.811Y-181.696
X193.821Y-180.756
X194.241Y-167.136
X194.241Y-167.976
X194.251Y-154.286
X194.341Y-193.726
X194.351Y-192.816
X195.434Y-193.726
X195.444Y-192.816
X196.095Y-151.574
X196.501Y-193.726
X196.511Y-192.816
X197.046Y-170.576
X197.081Y-163.386
X197.131Y-169.736
X197.281Y-157.196
X197.281Y-183.566
X197.301Y-158.926
X197.321Y-155.386
X197.791Y-159.836
X197.821Y-156.216
X197.821Y-157.966
X198.846Y-176.416
X200.191Y-188.146
X200.221Y-184.296
X200.221Y-186.206
X200.221Y-187.166
X200.241Y-185.256
X200.311Y-156.776
X200.311Y-157.726
X200.311Y-158.716
X200.341Y-159.736
X200.521Y-155.756
X200.759Y-174.75
X202.091Y-162.026
X202.681Y-184.326
X202.681Y-185.276
X202.701Y-186.236
X202.731Y-187.186
X202.731Y-188.116
X202.949Y-170.72
X205.32Y-83.98
X205.651Y-174.234
X205.651Y-175.171
X205.651Y-176.109
X205.651Y-177.046
X205.671Y-173.296
X207.146Y-183.991
X207.661Y-162.983
X207.75Y-152.89
X207.75Y-153.53
X207.75Y-154.13
X208.1Y-175.915
X208.111Y-174.516
X208.185Y-177.649
X208.241Y-190.806
X208.37Y-152.89
X208.37Y-153.53
X208.37Y-154.13
X208.401Y-173.796
X208.401Y-175.216
X208.412Y-176.637
X208.561Y-163.316
X208.74Y-99.98
X208.99Y-152.89
X208.99Y-153.53
X208.99Y-154.13
X209.205Y-100.475
X209.321Y-180.006
X209.344Y-179.126
X209.401Y-166.346
X209.414Y-165.466
X209.441Y-193.776
X209.494Y-192.866
X209.61Y-152.89
X209.61Y-153.53
X209.61Y-154.13
X209.67Y-100.94
X209.86Y-89.56
X210.165Y-101.405
X210.28Y-152.89
X210.28Y-153.53
X210.28Y-154.13
X210.336Y-179.986
X210.359Y-179.106
X210.397Y-166.326
X210.411Y-165.446
X210.507Y-193.766
X210.561Y-192.856
X210.9Y-152.89
X210.9Y-153.53
X210.9Y-154.13
X211.22Y-91.87
X211.351Y-179.986
X211.374Y-179.106
X211.394Y-166.326
X211.407Y-165.446
X211.52Y-152.89
X211.52Y-153.53
X211.52Y-154.13
X211.574Y-193.766
X211.627Y-192.856
X212.14Y-152.89
X212.14Y-153.53
X212.14Y-154.13
X212.21Y-83.99
X212.27Y-91.864
X212.366Y-179.986
X212.389Y-179.106
X212.391Y-166.326
X212.404Y-165.446
X212.63Y-89.56
X212.641Y-193.766
X212.694Y-192.856
X212.72Y-100.02
X212.77Y-103.9
X212.82Y-152.89
X212.82Y-153.53
X212.82Y-154.13
X213.221Y-91.845
X213.381Y-179.986
X213.387Y-166.326
X213.401Y-165.446
X213.404Y-179.106
X213.44Y-152.89
X213.44Y-153.53
X213.44Y-154.13
X213.707Y-193.766
X213.761Y-192.856
X214.06Y-152.89
X214.06Y-153.53
X214.06Y-154.13
X214.284Y-103.214
X214.304Y-102.164
X214.384Y-166.326
X214.396Y-179.986
X214.397Y-165.446
X214.419Y-179.106
X214.569Y-96.762
X214.67Y-105.54
X214.68Y-152.89
X214.68Y-153.53
X214.68Y-154.13
X214.72Y-98.46
X214.72Y-99.42
X214.774Y-193.766
X214.78Y-94.8
X214.827Y-192.856
X215.031Y-97.246
X215.11Y-93.311
X215.13Y-96.286
X215.35Y-152.89
X215.35Y-153.53
X215.35Y-154.13
X215.381Y-166.326
X215.394Y-165.446
X215.411Y-179.986
X215.434Y-179.106
X215.69Y-102.2
X215.69Y-103.2
X215.71Y-99.08
X215.83Y-95.298
X215.841Y-193.766
X215.894Y-192.856
X215.97Y-152.89
X215.97Y-153.53
X215.97Y-154.13
X216.11Y-97.273
X216.123Y-94.117
X216.265Y-98.515
X216.59Y-152.89
X216.59Y-153.53
X216.59Y-154.13
X217.031Y-99.43
X217.035Y-107.175
X217.082Y-94.117
X217.09Y-89.55
X217.111Y-107.983
X217.21Y-152.89
X217.21Y-153.53
X217.21Y-154.13
X217.534Y-93.314
X218.031Y-90.795
X218.621Y-186.996
X218.901Y-104.665
X219.151Y-177.226
X219.321Y-89.77
X219.451Y-163.496
X219.501Y-183.716
X219.624Y-88.973
X219.851Y-94.59
X219.941Y-156.126
X219.981Y-170.816
X220.111Y-184.246
X220.331Y-162.166
X220.371Y-105.335
X220.691Y-94.59
X220.915Y-99.5
X220.951Y-156.126
X221.001Y-170.791
X221.331Y-178.906
X221.331Y-181.706
X221.391Y-97.84
X221.401Y-96.17
X221.716Y-90.236
X221.871Y-174.116
X221.911Y-94.615
X222.021Y-189.596
X222.121Y-96.998
X222.171Y-103.035
X222.261Y-157.646
X222.271Y-99.385
X222.341Y-178.906
X222.351Y-181.706
X222.561Y-91.58
X222.811Y-97.84
X222.821Y-96.17
X223.171Y-99.33
X223.341Y-181.726
X223.351Y-178.906
X223.38Y-102.42
X223.671Y-104.85
X223.851Y-94.615
X223.931Y-99.415
X224.241Y-174.336
X224.28Y-101.762
X224.341Y-178.896
X224.351Y-181.726
X224.67Y-90.47
X224.86Y-89.07
X224.921Y-92.475
X225.101Y-105.8
X225.361Y-178.906
X225.361Y-181.726
X225.45Y-103.46
X225.75Y-143.75
X226.1Y-110.23
X226.199Y-91.325
X226.24Y-146.53
X226.31Y-141.32
X226.371Y-164.466
X226.77Y-104.84
X226.79Y-102.45
X226.79Y-103.41
X226.94Y-93.87
X227.02Y-98.0
X227.324Y-92.4
X227.4Y-91.21
X227.5Y-108.207
X227.7Y-143.29
X227.9Y-93.87
X227.98Y-98.0
X228.431Y-158.766
X228.431Y-172.626
X228.431Y-177.516
X228.431Y-186.316
X228.431Y-191.276
X228.55Y-104.86
X228.85Y-145.8
X229.41Y-98.63
X229.79Y-84.97
X230.101Y-160.876
X230.19Y-99.64
X230.295Y-140.91
X230.3Y-137.96
X230.33Y-84.43
X230.88Y-83.88
X231.74Y-147.25
X232.1Y-138.46
X234.48Y-83.88
X234.7Y-146.98
X234.78Y-110.04
X235.171Y-160.416
X235.171Y-161.766
X235.171Y-163.066
X235.32Y-141.9
X235.65Y-138.61
X235.7Y-146.89
X235.759Y-110.03
X235.91Y-141.35
X236.74Y-141.35
X237.221Y-163.066
X237.271Y-160.416
X237.271Y-161.766
X237.78Y-149.12
T2
X146.635Y-159.901
X146.635Y-173.591
X146.635Y-187.271
X146.641Y-161.871
X146.641Y-175.561
X146.641Y-189.241
X147.741Y-162.891
X147.741Y-176.581
X147.741Y-190.261
X147.748Y-159.901
X147.748Y-173.591
X147.748Y-187.271
X147.753Y-161.871
X147.753Y-175.561
X147.753Y-189.241
X147.771Y-158.861
X147.771Y-160.821
X147.771Y-172.551
X147.771Y-174.511
X147.771Y-186.231
X147.771Y-188.191
X148.925Y-159.901
X148.925Y-173.591
X148.925Y-187.271
X148.931Y-161.871
X148.931Y-175.561
X148.931Y-189.241
X149.971Y-161.851
X149.971Y-175.541
X149.971Y-189.221
X149.981Y-162.881
X149.981Y-176.571
X149.981Y-190.251
X149.991Y-158.861
X149.991Y-160.801
X149.991Y-172.551
X149.991Y-174.491
X149.991Y-186.231
X149.991Y-188.171
X149.992Y-159.901
X149.992Y-173.591
X149.992Y-187.271
X151.185Y-159.901
X151.185Y-173.591
X151.185Y-187.271
X151.191Y-161.871
X151.191Y-175.561
X151.191Y-189.241
X168.101Y-171.421
X168.101Y-185.091
X168.106Y-173.391
X168.106Y-187.061
X168.121Y-157.741
X168.126Y-159.711
X168.66Y-119.45
X169.299Y-173.391
X169.299Y-187.061
X169.301Y-172.491
X169.301Y-174.431
X169.301Y-186.161
X169.301Y-188.101
X169.311Y-170.411
X169.311Y-184.081
X169.319Y-159.711
X169.321Y-158.811
X169.321Y-160.751
X169.321Y-171.441
X169.321Y-185.111
X169.331Y-156.731
X169.341Y-157.761
X169.66Y-118.17
X169.66Y-119.45
X169.66Y-120.73
X170.361Y-171.421
X170.361Y-185.091
X170.366Y-173.391
X170.366Y-187.061
X170.381Y-157.741
X170.386Y-159.711
X171.06Y-118.17
X171.06Y-119.45
X171.06Y-120.73
X171.521Y-172.471
X171.521Y-174.431
X171.521Y-186.141
X171.521Y-188.101
X171.538Y-171.421
X171.538Y-185.091
X171.541Y-158.791
X171.541Y-160.751
X171.543Y-173.391
X171.543Y-187.061
X171.551Y-170.401
X171.551Y-184.071
X171.558Y-157.741
X171.563Y-159.711
X171.571Y-156.721
X172.46Y-118.17
X172.46Y-119.45
X172.46Y-120.73
X172.651Y-171.421
X172.651Y-185.091
X172.656Y-173.391
X172.656Y-187.061
X172.671Y-157.741
X172.676Y-159.711
X173.46Y-119.45
X189.675Y-159.931
X189.675Y-173.611
X189.675Y-187.301
X189.681Y-161.901
X189.681Y-175.581
X189.681Y-189.271
X190.781Y-162.921
X190.781Y-176.601
X190.781Y-190.291
X190.788Y-159.931
X190.788Y-173.611
X190.788Y-187.301
X190.793Y-161.901
X190.793Y-175.581
X190.793Y-189.271
X190.811Y-158.891
X190.811Y-160.851
X190.811Y-172.571
X190.811Y-174.531
X190.811Y-186.261
X190.811Y-188.221
X191.965Y-159.931
X191.965Y-173.611
X191.965Y-187.301
X191.971Y-161.901
X191.971Y-175.581
X191.971Y-189.271
X193.011Y-161.881
X193.011Y-175.561
X193.011Y-189.251
X193.021Y-162.911
X193.021Y-176.591
X193.021Y-190.281
X193.031Y-158.891
X193.031Y-160.831
X193.031Y-172.571
X193.031Y-174.511
X193.031Y-186.261
X193.031Y-188.201
X193.032Y-159.931
X193.032Y-173.611
X193.032Y-187.301
X194.225Y-159.931
X194.225Y-173.611
X194.225Y-187.301
X194.231Y-161.901
X194.231Y-175.581
X194.231Y-189.271
X211.161Y-157.831
X211.161Y-171.511
X211.161Y-185.201
X211.166Y-159.801
X211.166Y-173.481
X211.166Y-187.171
X212.359Y-159.801
X212.359Y-173.481
X212.359Y-187.171
X212.361Y-158.901
X212.361Y-160.841
X212.361Y-172.581
X212.361Y-174.521
X212.361Y-186.271
X212.361Y-188.211
X212.371Y-156.821
X212.371Y-170.501
X212.371Y-184.191
X212.381Y-157.851
X212.381Y-171.531
X212.381Y-185.221
X213.421Y-157.831
X213.421Y-171.511
X213.421Y-185.201
X213.426Y-159.801
X213.426Y-173.481
X213.426Y-187.171
X214.581Y-158.881
X214.581Y-160.841
X214.581Y-172.561
X214.581Y-174.521
X214.581Y-186.251
X214.581Y-188.211
X214.598Y-157.831
X214.598Y-171.511
X214.598Y-185.201
X214.603Y-159.801
X214.603Y-173.481
X214.603Y-187.171
X214.611Y-156.811
X214.611Y-170.491
X214.611Y-184.181
X215.711Y-157.831
X215.711Y-171.511
X215.711Y-185.201
X215.716Y-159.801
X215.716Y-173.481
X215.716Y-187.171
T3
X166.18Y-92.48
X166.18Y-93.48
X167.18Y-92.48
X167.18Y-93.48
X168.205Y-92.48
X168.205Y-93.48
X233.89Y-92.94
X233.89Y-94.03
X233.899Y-96.98
X235.69Y-87.51
X236.17Y-91.45
X236.18Y-90.58
X236.97Y-87.51
X237.44Y-90.6
X237.451Y-91.46
T4
X219.549Y-87.52
X222.43Y-146.74
X225.53Y-87.77
T6
X128.31Y-88.18
X130.85Y-88.18
X133.39Y-88.18
X135.93Y-88.18
X138.47Y-88.18
X141.01Y-88.18
X143.55Y-88.18
X146.09Y-88.18
T7
X162.7Y-83.5
X162.7Y-88.5
X170.2Y-83.5
X170.2Y-88.5
X183.266Y-83.5
X183.266Y-88.5
X190.766Y-83.5
X190.766Y-88.5
T8
X159.351Y-166.436
X159.351Y-180.436
X181.351Y-166.436
X181.351Y-180.436
X203.351Y-166.436
X203.351Y-180.436
T5
G00X217.629Y-81.715
M15
G01X217.629Y-80.915
M16
G05
G00X217.629Y-86.045
M15
G01X217.629Y-84.945
M16
G05
G00X226.269Y-81.715
M15
G01X226.269Y-80.915
M16
G05
G00X226.269Y-86.045
M15
G01X226.269Y-84.945
M16
G05
M30
