%TF.GenerationSoftware,KiCad,Pcbnew,9.0.4*%
%TF.CreationDate,2025-09-25T17:26:09-04:00*%
%TF.ProjectId,emberone,656d6265-726f-46e6-952e-6b696361645f,rev?*%
%TF.SameCoordinates,Original*%
%TF.FileFunction,Paste,Bot*%
%TF.FilePolarity,Positive*%
%FSLAX46Y46*%
G04 Gerber Fmt 4.6, Leading zero omitted, Abs format (unit mm)*
G04 Created by KiCad (PCBNEW 9.0.4) date 2025-09-25 17:26:09*
%MOMM*%
%LPD*%
G01*
G04 APERTURE LIST*
G04 Aperture macros list*
%AMRoundRect*
0 Rectangle with rounded corners*
0 $1 Rounding radius*
0 $2 $3 $4 $5 $6 $7 $8 $9 X,Y pos of 4 corners*
0 Add a 4 corners polygon primitive as box body*
4,1,4,$2,$3,$4,$5,$6,$7,$8,$9,$2,$3,0*
0 Add four circle primitives for the rounded corners*
1,1,$1+$1,$2,$3*
1,1,$1+$1,$4,$5*
1,1,$1+$1,$6,$7*
1,1,$1+$1,$8,$9*
0 Add four rect primitives between the rounded corners*
20,1,$1+$1,$2,$3,$4,$5,0*
20,1,$1+$1,$4,$5,$6,$7,0*
20,1,$1+$1,$6,$7,$8,$9,0*
20,1,$1+$1,$8,$9,$2,$3,0*%
G04 Aperture macros list end*
%ADD10RoundRect,0.140000X-0.170000X0.140000X-0.170000X-0.140000X0.170000X-0.140000X0.170000X0.140000X0*%
%ADD11RoundRect,0.135000X0.135000X0.185000X-0.135000X0.185000X-0.135000X-0.185000X0.135000X-0.185000X0*%
%ADD12RoundRect,0.150000X-0.150000X0.512500X-0.150000X-0.512500X0.150000X-0.512500X0.150000X0.512500X0*%
%ADD13RoundRect,0.140000X0.170000X-0.140000X0.170000X0.140000X-0.170000X0.140000X-0.170000X-0.140000X0*%
%ADD14RoundRect,0.135000X-0.135000X-0.185000X0.135000X-0.185000X0.135000X0.185000X-0.135000X0.185000X0*%
%ADD15RoundRect,0.150000X0.150000X-0.512500X0.150000X0.512500X-0.150000X0.512500X-0.150000X-0.512500X0*%
%ADD16RoundRect,0.135000X0.185000X-0.135000X0.185000X0.135000X-0.185000X0.135000X-0.185000X-0.135000X0*%
%ADD17RoundRect,0.135000X-0.185000X0.135000X-0.185000X-0.135000X0.185000X-0.135000X0.185000X0.135000X0*%
%ADD18RoundRect,0.250000X-0.650000X0.325000X-0.650000X-0.325000X0.650000X-0.325000X0.650000X0.325000X0*%
%ADD19RoundRect,0.250000X0.650000X-0.325000X0.650000X0.325000X-0.650000X0.325000X-0.650000X-0.325000X0*%
%ADD20RoundRect,0.140000X-0.140000X-0.170000X0.140000X-0.170000X0.140000X0.170000X-0.140000X0.170000X0*%
%ADD21R,1.300000X1.100000*%
%ADD22RoundRect,0.140000X0.140000X0.170000X-0.140000X0.170000X-0.140000X-0.170000X0.140000X-0.170000X0*%
G04 APERTURE END LIST*
D10*
%TO.C,C118*%
X137860545Y-155396142D03*
X137860545Y-156356142D03*
%TD*%
D11*
%TO.C,R129*%
X207480545Y-173296142D03*
X206460545Y-173296142D03*
%TD*%
D12*
%TO.C,U28*%
X138290545Y-161196142D03*
X139240545Y-161196142D03*
X140190545Y-161196142D03*
X140190545Y-163471142D03*
X138290545Y-163471142D03*
%TD*%
D13*
%TO.C,C159*%
X142550545Y-163216142D03*
X142550545Y-162256142D03*
%TD*%
D10*
%TO.C,C215*%
X179693045Y-185216142D03*
X179693045Y-186176142D03*
%TD*%
D13*
%TO.C,C275*%
X216320545Y-167136142D03*
X216320545Y-166176142D03*
%TD*%
D14*
%TO.C,R97*%
X162940545Y-159494142D03*
X163960545Y-159494142D03*
%TD*%
D11*
%TO.C,R12*%
X201920545Y-184306142D03*
X200900545Y-184306142D03*
%TD*%
D14*
%TO.C,R115*%
X198520545Y-157752142D03*
X199540545Y-157752142D03*
%TD*%
D11*
%TO.C,R15*%
X201920545Y-187186142D03*
X200900545Y-187186142D03*
%TD*%
D15*
%TO.C,U52*%
X178380545Y-173663642D03*
X177430545Y-173663642D03*
X176480545Y-173663642D03*
X176480545Y-171388642D03*
X178380545Y-171388642D03*
%TD*%
D10*
%TO.C,C242*%
X196050000Y-179900000D03*
X196050000Y-180860000D03*
%TD*%
D11*
%TO.C,R68*%
X206755545Y-185016142D03*
X205735545Y-185016142D03*
%TD*%
D10*
%TO.C,C236*%
X195020000Y-179900000D03*
X195020000Y-180860000D03*
%TD*%
D13*
%TO.C,C191*%
X156813045Y-162106142D03*
X156813045Y-161146142D03*
%TD*%
D14*
%TO.C,R119*%
X198520545Y-155736142D03*
X199540545Y-155736142D03*
%TD*%
D10*
%TO.C,C257*%
X226318045Y-155488642D03*
X226318045Y-156448642D03*
%TD*%
D15*
%TO.C,U68*%
X225000545Y-163166142D03*
X224050545Y-163166142D03*
X223100545Y-163166142D03*
X223100545Y-160891142D03*
X225000545Y-160891142D03*
%TD*%
D14*
%TO.C,R117*%
X198520545Y-156744142D03*
X199540545Y-156744142D03*
%TD*%
D10*
%TO.C,C240*%
X196094545Y-152900142D03*
X196094545Y-153860142D03*
%TD*%
D13*
%TO.C,C183*%
X158910545Y-187956142D03*
X158910545Y-186996142D03*
%TD*%
D14*
%TO.C,R89*%
X176770545Y-188932142D03*
X177790545Y-188932142D03*
%TD*%
D13*
%TO.C,C196*%
X164900545Y-171836142D03*
X164900545Y-170876142D03*
%TD*%
%TO.C,C218*%
X179713045Y-188476142D03*
X179713045Y-187516142D03*
%TD*%
D10*
%TO.C,C228*%
X201663045Y-160271142D03*
X201663045Y-161231142D03*
%TD*%
D15*
%TO.C,U70*%
X225040545Y-172156142D03*
X224090545Y-172156142D03*
X223140545Y-172156142D03*
X223140545Y-169881142D03*
X225040545Y-169881142D03*
%TD*%
D14*
%TO.C,R135*%
X235760545Y-163066142D03*
X236780545Y-163066142D03*
%TD*%
D10*
%TO.C,C120*%
X137810545Y-182406142D03*
X137810545Y-183366142D03*
%TD*%
D16*
%TO.C,R64*%
X134670545Y-161751142D03*
X134670545Y-160731142D03*
%TD*%
D10*
%TO.C,C258*%
X220540545Y-185536142D03*
X220540545Y-186496142D03*
%TD*%
D12*
%TO.C,U42*%
X138960545Y-169821142D03*
X139910545Y-169821142D03*
X140860545Y-169821142D03*
X140860545Y-172096142D03*
X138960545Y-172096142D03*
%TD*%
%TO.C,U48*%
X160268045Y-185176142D03*
X161218045Y-185176142D03*
X162168045Y-185176142D03*
X162168045Y-187451142D03*
X160268045Y-187451142D03*
%TD*%
D11*
%TO.C,R133*%
X207480545Y-177328142D03*
X206460545Y-177328142D03*
%TD*%
D14*
%TO.C,R17*%
X205010545Y-188141142D03*
X206030545Y-188141142D03*
%TD*%
%TO.C,R88*%
X176770545Y-189950142D03*
X177790545Y-189950142D03*
%TD*%
D10*
%TO.C,C112*%
X137568045Y-174436142D03*
X137568045Y-175396142D03*
%TD*%
%TO.C,C263*%
X219940545Y-156586142D03*
X219940545Y-157546142D03*
%TD*%
%TO.C,C176*%
X153085000Y-179780000D03*
X153085000Y-180740000D03*
%TD*%
D17*
%TO.C,R58*%
X138908545Y-179536142D03*
X138908545Y-180556142D03*
%TD*%
D13*
%TO.C,C192*%
X164830545Y-184566142D03*
X164830545Y-183606142D03*
%TD*%
D10*
%TO.C,C174*%
X153630000Y-152985000D03*
X153630000Y-153945000D03*
%TD*%
D14*
%TO.C,R136*%
X235760545Y-161766142D03*
X236780545Y-161766142D03*
%TD*%
D10*
%TO.C,C181*%
X158610545Y-170881142D03*
X158610545Y-171841142D03*
%TD*%
D13*
%TO.C,C248*%
X226358045Y-163648642D03*
X226358045Y-162688642D03*
%TD*%
D10*
%TO.C,C261*%
X219490545Y-185536142D03*
X219490545Y-186496142D03*
%TD*%
D13*
%TO.C,C246*%
X226438045Y-191268642D03*
X226438045Y-190308642D03*
%TD*%
D11*
%TO.C,R120*%
X177380545Y-159386142D03*
X176360545Y-159386142D03*
%TD*%
%TO.C,R63*%
X156230545Y-171426142D03*
X155210545Y-171426142D03*
%TD*%
%TO.C,R83*%
X156230545Y-175450142D03*
X155210545Y-175450142D03*
%TD*%
D13*
%TO.C,C227*%
X185020545Y-192136142D03*
X185020545Y-191176142D03*
%TD*%
D15*
%TO.C,U67*%
X225040545Y-177056142D03*
X224090545Y-177056142D03*
X223140545Y-177056142D03*
X223140545Y-174781142D03*
X225040545Y-174781142D03*
%TD*%
D12*
%TO.C,U50*%
X160390545Y-153501142D03*
X161340545Y-153501142D03*
X162290545Y-153501142D03*
X162290545Y-155776142D03*
X160390545Y-155776142D03*
%TD*%
D13*
%TO.C,C201*%
X174758545Y-193936142D03*
X174758545Y-192976142D03*
%TD*%
%TO.C,C224*%
X179693045Y-193286142D03*
X179693045Y-192326142D03*
%TD*%
D16*
%TO.C,R122*%
X179240545Y-162196142D03*
X179240545Y-161176142D03*
%TD*%
D18*
%TO.C,C177*%
X156440000Y-151990000D03*
X156440000Y-154940000D03*
%TD*%
D16*
%TO.C,R125*%
X224342545Y-180776142D03*
X224342545Y-179756142D03*
%TD*%
D12*
%TO.C,U58*%
X183770545Y-171166142D03*
X184720545Y-171166142D03*
X185670545Y-171166142D03*
X185670545Y-173441142D03*
X183770545Y-173441142D03*
%TD*%
D19*
%TO.C,C212*%
X176400545Y-168201142D03*
X176400545Y-165251142D03*
%TD*%
D11*
%TO.C,R131*%
X207480545Y-175312142D03*
X206460545Y-175312142D03*
%TD*%
D17*
%TO.C,R67*%
X177420545Y-157081142D03*
X177420545Y-158101142D03*
%TD*%
%TO.C,R104*%
X155770545Y-189781142D03*
X155770545Y-190801142D03*
%TD*%
D12*
%TO.C,U32*%
X139380545Y-155896142D03*
X140330545Y-155896142D03*
X141280545Y-155896142D03*
X141280545Y-158171142D03*
X139380545Y-158171142D03*
%TD*%
D10*
%TO.C,C113*%
X137450545Y-188186142D03*
X137450545Y-189146142D03*
%TD*%
D13*
%TO.C,C189*%
X161403045Y-192801142D03*
X161403045Y-191841142D03*
%TD*%
D10*
%TO.C,C234*%
X195009545Y-152900142D03*
X195009545Y-153860142D03*
%TD*%
%TO.C,C223*%
X202019294Y-170729891D03*
X202019294Y-171689891D03*
%TD*%
D13*
%TO.C,C185*%
X159053045Y-156261142D03*
X159053045Y-155301142D03*
%TD*%
D10*
%TO.C,C251*%
X226338045Y-160418642D03*
X226338045Y-161378642D03*
%TD*%
D15*
%TO.C,U57*%
X205173045Y-160716142D03*
X204223045Y-160716142D03*
X203273045Y-160716142D03*
X203273045Y-158441142D03*
X205173045Y-158441142D03*
%TD*%
D11*
%TO.C,R123*%
X221005545Y-173741142D03*
X219985545Y-173741142D03*
%TD*%
D19*
%TO.C,C278*%
X219370545Y-168181142D03*
X219370545Y-165231142D03*
%TD*%
D16*
%TO.C,R126*%
X223338545Y-180776142D03*
X223338545Y-179756142D03*
%TD*%
D14*
%TO.C,R108*%
X185050545Y-186494142D03*
X186070545Y-186494142D03*
%TD*%
D13*
%TO.C,C229*%
X185930545Y-176716142D03*
X185930545Y-175756142D03*
%TD*%
D14*
%TO.C,R121*%
X198530545Y-169666142D03*
X199550545Y-169666142D03*
%TD*%
D13*
%TO.C,C157*%
X137820545Y-185621142D03*
X137820545Y-184661142D03*
%TD*%
D16*
%TO.C,R85*%
X154920545Y-168901142D03*
X154920545Y-167881142D03*
%TD*%
D11*
%TO.C,R79*%
X156230545Y-174444142D03*
X155210545Y-174444142D03*
%TD*%
D10*
%TO.C,C219*%
X180400545Y-157896142D03*
X180400545Y-158856142D03*
%TD*%
D13*
%TO.C,C116*%
X137588045Y-177636142D03*
X137588045Y-176676142D03*
%TD*%
D10*
%TO.C,C188*%
X156823045Y-158866142D03*
X156823045Y-159826142D03*
%TD*%
%TO.C,C170*%
X152040000Y-179780000D03*
X152040000Y-180740000D03*
%TD*%
D14*
%TO.C,R90*%
X176770545Y-187914142D03*
X177790545Y-187914142D03*
%TD*%
D12*
%TO.C,U51*%
X162770545Y-190076142D03*
X163720545Y-190076142D03*
X164670545Y-190076142D03*
X164670545Y-192351142D03*
X162770545Y-192351142D03*
%TD*%
D16*
%TO.C,R127*%
X222334545Y-180776142D03*
X222334545Y-179756142D03*
%TD*%
%TO.C,R18*%
X220100545Y-161146142D03*
X220100545Y-160126142D03*
%TD*%
D13*
%TO.C,C184*%
X158610545Y-174101142D03*
X158610545Y-173141142D03*
%TD*%
%TO.C,C187*%
X179700545Y-174148642D03*
X179700545Y-173188642D03*
%TD*%
%TO.C,C208*%
X173670000Y-180860000D03*
X173670000Y-179900000D03*
%TD*%
D17*
%TO.C,R59*%
X139912545Y-179536142D03*
X139912545Y-180556142D03*
%TD*%
D16*
%TO.C,R128*%
X221330545Y-180776142D03*
X221330545Y-179756142D03*
%TD*%
D15*
%TO.C,U66*%
X225040545Y-190766142D03*
X224090545Y-190766142D03*
X223140545Y-190766142D03*
X223140545Y-188491142D03*
X225040545Y-188491142D03*
%TD*%
D12*
%TO.C,U62*%
X181070545Y-190531142D03*
X182020545Y-190531142D03*
X182970545Y-190531142D03*
X182970545Y-192806142D03*
X181070545Y-192806142D03*
%TD*%
D13*
%TO.C,C207*%
X173688545Y-193936142D03*
X173688545Y-192976142D03*
%TD*%
%TO.C,C220*%
X202039294Y-173969891D03*
X202039294Y-173009891D03*
%TD*%
D14*
%TO.C,R113*%
X198520545Y-158760142D03*
X199540545Y-158760142D03*
%TD*%
D13*
%TO.C,C164*%
X143320545Y-191421142D03*
X143320545Y-190461142D03*
%TD*%
%TO.C,C195*%
X163720545Y-184566142D03*
X163720545Y-183606142D03*
%TD*%
D12*
%TO.C,U59*%
X181070545Y-185726142D03*
X182020545Y-185726142D03*
X182970545Y-185726142D03*
X182970545Y-188001142D03*
X181070545Y-188001142D03*
%TD*%
D13*
%TO.C,C197*%
X165020545Y-153886142D03*
X165020545Y-152926142D03*
%TD*%
%TO.C,C194*%
X164030545Y-153886142D03*
X164030545Y-152926142D03*
%TD*%
%TO.C,C268*%
X217440545Y-180976142D03*
X217440545Y-180016142D03*
%TD*%
D11*
%TO.C,R75*%
X156230545Y-173438142D03*
X155210545Y-173438142D03*
%TD*%
%TO.C,R130*%
X207480545Y-174304142D03*
X206460545Y-174304142D03*
%TD*%
D12*
%TO.C,U30*%
X138810545Y-188671142D03*
X139760545Y-188671142D03*
X140710545Y-188671142D03*
X140710545Y-190946142D03*
X138810545Y-190946142D03*
%TD*%
%TO.C,U60*%
X181768045Y-158381142D03*
X182718045Y-158381142D03*
X183668045Y-158381142D03*
X183668045Y-160656142D03*
X181768045Y-160656142D03*
%TD*%
D14*
%TO.C,R99*%
X162940545Y-158480142D03*
X163960545Y-158480142D03*
%TD*%
D10*
%TO.C,C221*%
X179713045Y-190026142D03*
X179713045Y-190986142D03*
%TD*%
D11*
%TO.C,R114*%
X177380545Y-162406142D03*
X176360545Y-162406142D03*
%TD*%
%TO.C,R16*%
X201920545Y-188146142D03*
X200900545Y-188146142D03*
%TD*%
%TO.C,R112*%
X177380545Y-163416142D03*
X176360545Y-163416142D03*
%TD*%
D14*
%TO.C,R91*%
X176770545Y-186896142D03*
X177790545Y-186896142D03*
%TD*%
D11*
%TO.C,R65*%
X156230545Y-172432142D03*
X155210545Y-172432142D03*
%TD*%
%TO.C,R118*%
X177380545Y-160386142D03*
X176360545Y-160386142D03*
%TD*%
D14*
%TO.C,R103*%
X163160545Y-164041142D03*
X164180545Y-164041142D03*
%TD*%
D13*
%TO.C,C202*%
X174760000Y-180860000D03*
X174760000Y-179900000D03*
%TD*%
%TO.C,C213*%
X206540545Y-161196142D03*
X206540545Y-160236142D03*
%TD*%
D18*
%TO.C,C244*%
X198000545Y-165241142D03*
X198000545Y-168191142D03*
%TD*%
D10*
%TO.C,C186*%
X161413045Y-189581142D03*
X161413045Y-190541142D03*
%TD*%
%TO.C,C190*%
X179700545Y-170918642D03*
X179700545Y-171878642D03*
%TD*%
D14*
%TO.C,R138*%
X235760545Y-160416142D03*
X236780545Y-160416142D03*
%TD*%
D17*
%TO.C,R60*%
X140916545Y-179536142D03*
X140916545Y-180556142D03*
%TD*%
D10*
%TO.C,C241*%
X195120545Y-166206142D03*
X195120545Y-167166142D03*
%TD*%
D13*
%TO.C,C225*%
X185830545Y-161346142D03*
X185830545Y-160386142D03*
%TD*%
%TO.C,C209*%
X173665000Y-167070000D03*
X173665000Y-166110000D03*
%TD*%
D12*
%TO.C,U43*%
X139170545Y-182881142D03*
X140120545Y-182881142D03*
X141070545Y-182881142D03*
X141070545Y-185156142D03*
X139170545Y-185156142D03*
%TD*%
D20*
%TO.C,C23*%
X230758955Y-168332732D03*
X231718955Y-168332732D03*
%TD*%
D10*
%TO.C,C249*%
X226418045Y-188038642D03*
X226418045Y-188998642D03*
%TD*%
D13*
%TO.C,C161*%
X142240545Y-191421142D03*
X142240545Y-190461142D03*
%TD*%
D10*
%TO.C,C255*%
X226438045Y-183118642D03*
X226438045Y-184078642D03*
%TD*%
D21*
%TO.C,U5*%
X232400545Y-166876142D03*
X230100545Y-166876142D03*
X230100545Y-164976142D03*
X232400545Y-164976142D03*
%TD*%
D14*
%TO.C,R92*%
X176770545Y-185878142D03*
X177790545Y-185878142D03*
%TD*%
D10*
%TO.C,C235*%
X196150545Y-166216142D03*
X196150545Y-167176142D03*
%TD*%
D13*
%TO.C,C269*%
X217425545Y-167136142D03*
X217425545Y-166176142D03*
%TD*%
D14*
%TO.C,R101*%
X162940545Y-157466142D03*
X163960545Y-157466142D03*
%TD*%
D11*
%TO.C,R98*%
X155810545Y-184960142D03*
X154790545Y-184960142D03*
%TD*%
D10*
%TO.C,C180*%
X158910545Y-184696142D03*
X158910545Y-185656142D03*
%TD*%
%TO.C,C250*%
X226420545Y-174348642D03*
X226420545Y-175308642D03*
%TD*%
D15*
%TO.C,U61*%
X200679294Y-173494891D03*
X199729294Y-173494891D03*
X198779294Y-173494891D03*
X198779294Y-171219891D03*
X200679294Y-171219891D03*
%TD*%
D19*
%TO.C,C276*%
X219732545Y-195444142D03*
X219732545Y-192494142D03*
%TD*%
D13*
%TO.C,C253*%
X226400545Y-172618642D03*
X226400545Y-171658642D03*
%TD*%
D17*
%TO.C,R57*%
X137904545Y-179536142D03*
X137904545Y-180556142D03*
%TD*%
D14*
%TO.C,R106*%
X185050545Y-188498142D03*
X186070545Y-188498142D03*
%TD*%
D11*
%TO.C,R96*%
X155810545Y-183958142D03*
X154790545Y-183958142D03*
%TD*%
D10*
%TO.C,C111*%
X136860545Y-160761142D03*
X136860545Y-161721142D03*
%TD*%
D13*
%TO.C,C163*%
X143350545Y-177066142D03*
X143350545Y-176106142D03*
%TD*%
D10*
%TO.C,C175*%
X153265000Y-165910000D03*
X153265000Y-166870000D03*
%TD*%
%TO.C,C119*%
X137630545Y-169336142D03*
X137630545Y-170296142D03*
%TD*%
D19*
%TO.C,C211*%
X176410545Y-182076142D03*
X176410545Y-179126142D03*
%TD*%
D10*
%TO.C,C168*%
X154690000Y-152985000D03*
X154690000Y-153945000D03*
%TD*%
%TO.C,C259*%
X219945545Y-171511142D03*
X219945545Y-172471142D03*
%TD*%
D13*
%TO.C,C117*%
X137460545Y-191436142D03*
X137460545Y-190476142D03*
%TD*%
%TO.C,C273*%
X216922545Y-194444142D03*
X216922545Y-193484142D03*
%TD*%
D16*
%TO.C,R124*%
X225346545Y-180776142D03*
X225346545Y-179756142D03*
%TD*%
D14*
%TO.C,R110*%
X185050545Y-184490142D03*
X186070545Y-184490142D03*
%TD*%
D13*
%TO.C,C115*%
X136850545Y-163971142D03*
X136850545Y-163011142D03*
%TD*%
D10*
%TO.C,C262*%
X221000545Y-171511142D03*
X221000545Y-172471142D03*
%TD*%
D17*
%TO.C,R62*%
X141920545Y-179536142D03*
X141920545Y-180556142D03*
%TD*%
D11*
%TO.C,R13*%
X201920545Y-185266142D03*
X200900545Y-185266142D03*
%TD*%
D19*
%TO.C,C210*%
X176548545Y-196267142D03*
X176548545Y-193317142D03*
%TD*%
D15*
%TO.C,U69*%
X225040545Y-185866142D03*
X224090545Y-185866142D03*
X223140545Y-185866142D03*
X223140545Y-183591142D03*
X225040545Y-183591142D03*
%TD*%
D11*
%TO.C,R14*%
X201920545Y-186226142D03*
X200900545Y-186226142D03*
%TD*%
D18*
%TO.C,C179*%
X154740545Y-178511142D03*
X154740545Y-181461142D03*
%TD*%
D19*
%TO.C,C277*%
X219370545Y-181951142D03*
X219370545Y-179001142D03*
%TD*%
D13*
%TO.C,C162*%
X143550545Y-163216142D03*
X143550545Y-162256142D03*
%TD*%
%TO.C,C267*%
X217992545Y-194449142D03*
X217992545Y-193489142D03*
%TD*%
D10*
%TO.C,C214*%
X182410545Y-170676142D03*
X182410545Y-171636142D03*
%TD*%
D13*
%TO.C,C254*%
X226338045Y-158748642D03*
X226338045Y-157788642D03*
%TD*%
%TO.C,C247*%
X226420545Y-177528642D03*
X226420545Y-176568642D03*
%TD*%
%TO.C,C122*%
X137860545Y-158616142D03*
X137860545Y-157656142D03*
%TD*%
D17*
%TO.C,R137*%
X230070545Y-162156142D03*
X230070545Y-163176142D03*
%TD*%
D15*
%TO.C,U71*%
X225000545Y-158266142D03*
X224050545Y-158266142D03*
X223100545Y-158266142D03*
X223100545Y-155991142D03*
X225000545Y-155991142D03*
%TD*%
D18*
%TO.C,C243*%
X197944545Y-150853142D03*
X197944545Y-153803142D03*
%TD*%
D11*
%TO.C,R100*%
X155810545Y-185962142D03*
X154790545Y-185962142D03*
%TD*%
D13*
%TO.C,C160*%
X142320545Y-176416142D03*
X142320545Y-175456142D03*
%TD*%
D10*
%TO.C,C216*%
X206540545Y-157956142D03*
X206540545Y-158916142D03*
%TD*%
D11*
%TO.C,R132*%
X207480545Y-176320142D03*
X206460545Y-176320142D03*
%TD*%
D22*
%TO.C,C226*%
X198850545Y-175366142D03*
X197890545Y-175366142D03*
%TD*%
D13*
%TO.C,C217*%
X182410545Y-173916142D03*
X182410545Y-172956142D03*
%TD*%
D14*
%TO.C,R109*%
X185050545Y-185492142D03*
X186070545Y-185492142D03*
%TD*%
D12*
%TO.C,U53*%
X158160545Y-159361142D03*
X159110545Y-159361142D03*
X160060545Y-159361142D03*
X160060545Y-161636142D03*
X158160545Y-161636142D03*
%TD*%
D13*
%TO.C,C252*%
X226418045Y-186348642D03*
X226418045Y-185388642D03*
%TD*%
D12*
%TO.C,U49*%
X159990545Y-171361142D03*
X160940545Y-171361142D03*
X161890545Y-171361142D03*
X161890545Y-173636142D03*
X159990545Y-173636142D03*
%TD*%
D11*
%TO.C,R102*%
X155810545Y-186964142D03*
X154790545Y-186964142D03*
%TD*%
D13*
%TO.C,C156*%
X137628045Y-172561142D03*
X137628045Y-171601142D03*
%TD*%
D11*
%TO.C,R105*%
X186090545Y-189816142D03*
X185070545Y-189816142D03*
%TD*%
D13*
%TO.C,C230*%
X186090545Y-192146142D03*
X186090545Y-191186142D03*
%TD*%
D18*
%TO.C,C245*%
X197710545Y-179101142D03*
X197710545Y-182051142D03*
%TD*%
D17*
%TO.C,R86*%
X135770545Y-160731142D03*
X135770545Y-161751142D03*
%TD*%
D13*
%TO.C,C203*%
X174720000Y-167070000D03*
X174720000Y-166110000D03*
%TD*%
D17*
%TO.C,R134*%
X207520545Y-164031142D03*
X207520545Y-165051142D03*
%TD*%
D18*
%TO.C,C178*%
X142945545Y-165591142D03*
X142945545Y-168541142D03*
%TD*%
D10*
%TO.C,C256*%
X226400545Y-169368642D03*
X226400545Y-170328642D03*
%TD*%
D17*
%TO.C,R56*%
X143320545Y-188056142D03*
X143320545Y-189076142D03*
%TD*%
D14*
%TO.C,R111*%
X198530545Y-159748142D03*
X199550545Y-159748142D03*
%TD*%
D11*
%TO.C,R66*%
X164655545Y-182191142D03*
X163635545Y-182191142D03*
%TD*%
D17*
%TO.C,R87*%
X176770545Y-176031142D03*
X176770545Y-177051142D03*
%TD*%
D11*
%TO.C,R94*%
X155810545Y-182956142D03*
X154790545Y-182956142D03*
%TD*%
D10*
%TO.C,C169*%
X152220000Y-165910000D03*
X152220000Y-166870000D03*
%TD*%
D14*
%TO.C,R107*%
X185050545Y-187496142D03*
X186070545Y-187496142D03*
%TD*%
D11*
%TO.C,R116*%
X177380545Y-161396142D03*
X176360545Y-161396142D03*
%TD*%
D14*
%TO.C,R93*%
X162940545Y-161522142D03*
X163960545Y-161522142D03*
%TD*%
D10*
%TO.C,C260*%
X220940545Y-156586142D03*
X220940545Y-157546142D03*
%TD*%
D22*
%TO.C,C193*%
X177110545Y-169706142D03*
X176150545Y-169706142D03*
%TD*%
D14*
%TO.C,R95*%
X162940545Y-160508142D03*
X163960545Y-160508142D03*
%TD*%
D13*
%TO.C,C222*%
X180410545Y-161136142D03*
X180410545Y-160176142D03*
%TD*%
D12*
%TO.C,U29*%
X138940545Y-174911142D03*
X139890545Y-174911142D03*
X140840545Y-174911142D03*
X140840545Y-177186142D03*
X138940545Y-177186142D03*
%TD*%
D10*
%TO.C,C182*%
X159043045Y-153021142D03*
X159043045Y-153981142D03*
%TD*%
D13*
%TO.C,C274*%
X216340545Y-180976142D03*
X216340545Y-180016142D03*
%TD*%
M02*
